{"glyphs":{"0":{"ha":917,"x_min":0,"x_max":0,"o":"m 453 -21 b 842 490 673 -21 842 153 b 464 1000 842 820 669 1000 b 75 489 244 1000 75 827 b 453 -21 75 159 248 -21 z m 463 68 b 283 507 349 68 283 226 b 454 911 283 782 344 911 b 634 473 568 911 634 753 b 463 68 634 197 573 68 z "},"1":{"ha":617,"x_min":0,"x_max":0,"o":"m 410 979 l 318 979 b 53 844 238 934 146 887 l 53 785 l 221 827 l 221 163 b 61 66 221 98 195 79 l 61 0 l 570 0 l 570 66 b 410 163 436 79 410 98 z "},"2":{"ha":724,"x_min":0,"x_max":0,"o":"m 661 0 l 669 153 l 170 153 l 327 294 b 644 743 560 489 644 602 b 359 1000 644 901 522 1000 b 52 823 196 1000 90 922 l 52 753 b 272 874 92 823 162 874 b 449 695 378 874 449 806 b 248 336 449 583 397 493 l 45 117 l 45 0 z "},"3":{"ha":784,"x_min":0,"x_max":0,"o":"m 136 304 b 45 205 84 304 45 263 b 353 -21 45 90 169 -21 b 721 291 542 -21 721 90 b 488 562 721 433 627 536 b 686 777 604 586 686 663 b 409 1000 686 916 573 1000 b 90 824 250 1000 126 926 l 90 758 b 332 874 139 831 224 874 b 505 737 439 874 505 823 b 239 558 505 644 425 579 l 239 492 b 524 270 420 490 524 405 b 317 73 524 149 430 73 b 165 131 254 73 199 96 b 227 214 201 141 227 174 b 136 304 227 266 188 304 z "},"4":{"ha":851,"x_min":0,"x_max":0,"o":"m 498 0 l 667 0 l 667 227 l 815 227 l 819 362 l 667 362 l 667 979 l 508 979 l 42 323 l 42 227 l 498 227 z m 498 362 l 180 362 l 498 829 z "},"5":{"ha":781,"x_min":0,"x_max":0,"o":"m 138 298 b 46 198 85 298 46 256 b 348 -21 46 86 163 -21 b 720 318 543 -21 720 111 b 411 613 720 502 577 613 b 184 534 311 613 228 579 l 250 826 l 672 826 l 680 979 l 189 979 l 89 433 l 162 432 b 335 505 191 473 251 505 b 525 290 442 505 525 416 b 317 73 525 152 431 73 b 168 125 255 73 201 92 b 229 208 203 136 229 169 b 138 298 229 260 190 298 z "},"6":{"ha":860,"x_min":0,"x_max":0,"o":"m 73 399 b 440 -21 72 128 214 -21 b 795 311 642 -21 795 106 b 525 604 795 486 688 604 b 264 427 397 604 304 536 b 745 923 278 709 460 909 l 745 987 b 73 399 342 995 75 732 z m 271 292 b 444 491 271 412 342 491 b 604 270 545 491 604 404 b 440 68 604 142 537 68 b 271 292 333 68 271 165 z "},"7":{"ha":686,"x_min":0,"x_max":0,"o":"m 302 0 b 640 825 423 330 525 576 l 640 979 l 37 979 l 29 825 l 553 825 b 106 13 414 597 271 342 l 106 0 z "},"8":{"ha":866,"x_min":0,"x_max":0,"o":"m 791 254 b 543 555 791 393 709 481 l 541 557 b 764 770 674 589 763 657 b 439 1000 764 903 645 1000 b 103 741 242 1000 103 905 b 313 481 103 623 184 542 b 75 227 165 444 75 354 b 431 -21 74 76 210 -21 b 791 254 644 -21 791 89 z m 430 608 b 276 781 326 656 276 703 b 434 910 276 858 334 910 b 591 749 530 910 591 841 b 488 581 591 674 555 620 z m 247 250 b 365 456 248 341 287 415 l 435 423 b 618 216 570 359 618 305 b 436 69 618 128 547 69 b 247 250 320 69 247 144 z "},"9":{"ha":860,"x_min":0,"x_max":0,"o":"m 787 581 b 420 1000 788 851 646 1000 b 64 668 218 1000 64 873 b 335 376 64 493 171 376 b 596 552 463 376 555 444 b 115 56 582 270 400 71 l 115 -8 b 787 581 517 -16 785 248 z m 416 488 b 255 709 315 488 255 575 b 420 911 255 837 323 911 b 589 687 527 911 589 814 b 416 488 589 567 517 488 z "}," ":{"ha":349,"x_min":0,"x_max":0,"o":""},"A":{"ha":1014,"x_min":0,"x_max":0,"o":"m 876 198 l 589 979 l 426 979 l 140 201 b -5 66 100 93 83 77 l -5 0 l 327 0 l 327 66 b 241 199 220 80 208 98 l 284 323 l 621 323 l 664 199 b 578 66 699 98 685 80 l 578 0 l 1019 0 l 1019 66 b 876 198 935 77 915 93 z m 311 404 l 452 814 l 593 404 z "},"Á":{"ha":1014,"x_min":0,"x_max":0,"o":"m 494 1061 l 716 1255 l 716 1262 l 517 1262 l 412 1061 z m 876 198 l 589 979 l 426 979 l 140 201 b -5 66 100 93 83 77 l -5 0 l 327 0 l 327 66 b 241 199 220 80 208 98 l 284 323 l 621 323 l 664 199 b 578 66 699 98 685 80 l 578 0 l 1019 0 l 1019 66 b 876 198 935 77 915 93 z m 311 404 l 452 814 l 593 404 z "},"À":{"ha":1014,"x_min":0,"x_max":0,"o":"m 534 1061 l 615 1061 l 517 1262 l 309 1262 l 309 1255 z m 876 198 l 589 979 l 426 979 l 140 201 b -5 66 100 93 83 77 l -5 0 l 327 0 l 327 66 b 241 199 220 80 208 98 l 284 323 l 621 323 l 664 199 b 578 66 699 98 685 80 l 578 0 l 1019 0 l 1019 66 b 876 198 935 77 915 93 z m 311 404 l 452 814 l 593 404 z "},"Ȁ":{"ha":1014,"x_min":0,"x_max":0,"o":"m 374 1262 l 203 1262 l 203 1255 l 390 1061 l 479 1061 z m 631 1262 l 475 1262 l 475 1255 l 589 1061 l 673 1061 z m 876 198 l 589 979 l 426 979 l 140 201 b -5 66 100 93 83 77 l -5 0 l 327 0 l 327 66 b 241 199 220 80 208 98 l 284 323 l 621 323 l 664 199 b 578 66 699 98 685 80 l 578 0 l 1019 0 l 1019 66 b 876 198 935 77 915 93 z m 311 404 l 452 814 l 593 404 z "},"Â":{"ha":1014,"x_min":0,"x_max":0,"o":"m 380 1061 l 515 1161 l 648 1061 l 730 1061 l 585 1262 l 446 1262 l 300 1061 z m 876 198 l 589 979 l 426 979 l 140 201 b -5 66 100 93 83 77 l -5 0 l 327 0 l 327 66 b 241 199 220 80 208 98 l 284 323 l 621 323 l 664 199 b 578 66 699 98 685 80 l 578 0 l 1019 0 l 1019 66 b 876 198 935 77 915 93 z m 311 404 l 452 814 l 593 404 z "},"Ấ":{"ha":1014,"x_min":0,"x_max":0,"o":"m 718 1247 l 718 1344 l 294 1249 l 294 1193 z m 294 1010 l 506 1072 l 717 1010 l 717 1067 l 527 1166 l 484 1166 l 295 1067 z m 876 198 l 589 979 l 426 979 l 140 201 b -5 66 100 93 83 77 l -5 0 l 327 0 l 327 66 b 241 199 220 80 208 98 l 284 323 l 621 323 l 664 199 b 578 66 699 98 685 80 l 578 0 l 1019 0 l 1019 66 b 876 198 935 77 915 93 z m 311 404 l 452 814 l 593 404 z "},"Ầ":{"ha":1014,"x_min":0,"x_max":0,"o":"m 294 1247 l 717 1193 l 717 1249 l 294 1344 z m 294 1010 l 506 1072 l 717 1010 l 717 1067 l 527 1166 l 484 1166 l 295 1067 z m 876 198 l 589 979 l 426 979 l 140 201 b -5 66 100 93 83 77 l -5 0 l 327 0 l 327 66 b 241 199 220 80 208 98 l 284 323 l 621 323 l 664 199 b 578 66 699 98 685 80 l 578 0 l 1019 0 l 1019 66 b 876 198 935 77 915 93 z m 311 404 l 452 814 l 593 404 z "},"Ẫ":{"ha":1014,"x_min":0,"x_max":0,"o":"m 593 1208 b 718 1333 665 1208 718 1251 l 643 1333 b 597 1291 643 1303 625 1291 b 535 1304 580 1291 562 1295 l 513 1311 b 418 1329 481 1322 452 1329 b 294 1204 348 1329 294 1287 l 369 1204 b 414 1246 369 1234 387 1246 b 476 1234 432 1246 450 1242 l 499 1226 b 593 1208 530 1215 559 1208 z m 294 1010 l 506 1072 l 717 1010 l 717 1067 l 527 1166 l 484 1166 l 295 1067 z m 876 198 l 589 979 l 426 979 l 140 201 b -5 66 100 93 83 77 l -5 0 l 327 0 l 327 66 b 241 199 220 80 208 98 l 284 323 l 621 323 l 664 199 b 578 66 699 98 685 80 l 578 0 l 1019 0 l 1019 66 b 876 198 935 77 915 93 z m 311 404 l 452 814 l 593 404 z "},"Ẩ":{"ha":1014,"x_min":0,"x_max":0,"o":"m 679 1328 b 552 1293 628 1328 580 1312 l 552 1247 b 640 1265 571 1256 606 1265 b 710 1227 685 1265 710 1250 b 630 1178 710 1204 686 1190 l 687 1143 b 819 1244 768 1162 819 1190 b 679 1328 819 1297 754 1328 z m 294 1010 l 506 1072 l 717 1010 l 717 1067 l 527 1166 l 484 1166 l 295 1067 z m 876 198 l 589 979 l 426 979 l 140 201 b -5 66 100 93 83 77 l -5 0 l 327 0 l 327 66 b 241 199 220 80 208 98 l 284 323 l 621 323 l 664 199 b 578 66 699 98 685 80 l 578 0 l 1019 0 l 1019 66 b 876 198 935 77 915 93 z m 311 404 l 452 814 l 593 404 z "},"Ậ":{"ha":1014,"x_min":0,"x_max":0,"o":"m 380 1061 l 515 1161 l 648 1061 l 730 1061 l 585 1262 l 446 1262 l 300 1061 z m 876 198 l 589 979 l 426 979 l 140 201 b -5 66 100 93 83 77 l -5 0 l 327 0 l 327 66 b 241 199 220 80 208 98 l 284 323 l 621 323 l 664 199 b 578 66 699 98 685 80 l 578 0 l 1019 0 l 1019 66 b 876 198 935 77 915 93 z m 311 404 l 452 814 l 593 404 z m 471 -119 b 382 -203 421 -119 382 -155 b 471 -288 382 -252 421 -288 b 559 -203 520 -288 559 -252 b 471 -119 559 -155 520 -119 z "},"Ǎ":{"ha":1014,"x_min":0,"x_max":0,"o":"m 649 1261 l 515 1160 l 381 1261 l 298 1261 l 445 1060 l 583 1060 l 729 1261 z m 876 198 l 589 979 l 426 979 l 140 201 b -5 66 100 93 83 77 l -5 0 l 327 0 l 327 66 b 241 199 220 80 208 98 l 284 323 l 621 323 l 664 199 b 578 66 699 98 685 80 l 578 0 l 1019 0 l 1019 66 b 876 198 935 77 915 93 z m 311 404 l 452 814 l 593 404 z "},"Ă":{"ha":1014,"x_min":0,"x_max":0,"o":"m 506 1077 b 711 1258 637 1077 711 1164 b 707 1293 711 1271 709 1282 l 637 1293 l 637 1288 b 506 1185 637 1230 589 1185 b 374 1288 423 1185 374 1231 l 374 1293 l 304 1293 b 301 1258 302 1282 301 1271 b 506 1077 301 1164 375 1077 z m 876 198 l 589 979 l 426 979 l 140 201 b -5 66 100 93 83 77 l -5 0 l 327 0 l 327 66 b 241 199 220 80 208 98 l 284 323 l 621 323 l 664 199 b 578 66 699 98 685 80 l 578 0 l 1019 0 l 1019 66 b 876 198 935 77 915 93 z m 311 404 l 452 814 l 593 404 z "},"Ắ":{"ha":1014,"x_min":0,"x_max":0,"o":"m 718 1261 l 718 1358 l 294 1263 l 294 1207 z m 506 1034 b 718 1187 634 1034 722 1093 l 643 1187 b 506 1122 642 1149 584 1122 b 368 1187 428 1122 370 1149 l 294 1187 b 506 1034 289 1093 377 1034 z m 876 198 l 589 979 l 426 979 l 140 201 b -5 66 100 93 83 77 l -5 0 l 327 0 l 327 66 b 241 199 220 80 208 98 l 284 323 l 621 323 l 664 199 b 578 66 699 98 685 80 l 578 0 l 1019 0 l 1019 66 b 876 198 935 77 915 93 z m 311 404 l 452 814 l 593 404 z "},"Ằ":{"ha":1014,"x_min":0,"x_max":0,"o":"m 294 1261 l 717 1207 l 717 1263 l 294 1358 z m 506 1034 b 718 1187 634 1034 722 1093 l 643 1187 b 506 1122 642 1149 584 1122 b 368 1187 428 1122 370 1149 l 294 1187 b 506 1034 289 1093 377 1034 z m 876 198 l 589 979 l 426 979 l 140 201 b -5 66 100 93 83 77 l -5 0 l 327 0 l 327 66 b 241 199 220 80 208 98 l 284 323 l 621 323 l 664 199 b 578 66 699 98 685 80 l 578 0 l 1019 0 l 1019 66 b 876 198 935 77 915 93 z m 311 404 l 452 814 l 593 404 z "},"Ẵ":{"ha":1014,"x_min":0,"x_max":0,"o":"m 593 1222 b 718 1346 665 1222 718 1263 l 643 1346 b 597 1304 643 1317 625 1304 b 535 1318 580 1304 562 1309 l 513 1324 b 418 1342 481 1335 452 1342 b 294 1218 348 1342 294 1301 l 369 1218 b 414 1260 369 1247 387 1260 b 476 1247 432 1260 450 1255 l 499 1240 b 593 1222 530 1229 559 1222 z m 506 1034 b 718 1187 634 1034 722 1093 l 643 1187 b 506 1122 642 1149 584 1122 b 368 1187 428 1122 370 1149 l 294 1187 b 506 1034 289 1093 377 1034 z m 876 198 l 589 979 l 426 979 l 140 201 b -5 66 100 93 83 77 l -5 0 l 327 0 l 327 66 b 241 199 220 80 208 98 l 284 323 l 621 323 l 664 199 b 578 66 699 98 685 80 l 578 0 l 1019 0 l 1019 66 b 876 198 935 77 915 93 z m 311 404 l 452 814 l 593 404 z "},"Ẳ":{"ha":1014,"x_min":0,"x_max":0,"o":"m 500 1357 b 368 1322 447 1357 397 1341 l 368 1277 b 458 1295 388 1285 425 1295 b 532 1257 507 1295 532 1280 b 449 1208 532 1234 507 1219 l 508 1173 b 646 1274 593 1191 646 1220 b 500 1357 646 1327 579 1357 z m 506 1034 b 718 1187 634 1034 722 1093 l 643 1187 b 506 1122 642 1149 584 1122 b 368 1187 428 1122 370 1149 l 294 1187 b 506 1034 289 1093 377 1034 z m 876 198 l 589 979 l 426 979 l 140 201 b -5 66 100 93 83 77 l -5 0 l 327 0 l 327 66 b 241 199 220 80 208 98 l 284 323 l 621 323 l 664 199 b 578 66 699 98 685 80 l 578 0 l 1019 0 l 1019 66 b 876 198 935 77 915 93 z m 311 404 l 452 814 l 593 404 z "},"Ặ":{"ha":1014,"x_min":0,"x_max":0,"o":"m 506 1077 b 711 1258 637 1077 711 1164 b 707 1293 711 1271 709 1282 l 637 1293 l 637 1288 b 506 1185 637 1230 589 1185 b 374 1288 423 1185 374 1231 l 374 1293 l 304 1293 b 301 1258 302 1282 301 1271 b 506 1077 301 1164 375 1077 z m 876 198 l 589 979 l 426 979 l 140 201 b -5 66 100 93 83 77 l -5 0 l 327 0 l 327 66 b 241 199 220 80 208 98 l 284 323 l 621 323 l 664 199 b 578 66 699 98 685 80 l 578 0 l 1019 0 l 1019 66 b 876 198 935 77 915 93 z m 311 404 l 452 814 l 593 404 z m 471 -119 b 382 -203 421 -119 382 -155 b 471 -288 382 -252 421 -288 b 559 -203 520 -288 559 -252 b 471 -119 559 -155 520 -119 z "},"Ȃ":{"ha":1014,"x_min":0,"x_max":0,"o":"m 506 1293 b 301 1112 375 1293 301 1206 b 304 1077 301 1100 302 1088 l 374 1077 l 374 1082 b 506 1185 374 1140 422 1185 b 637 1082 589 1185 637 1140 l 637 1077 l 707 1077 b 711 1112 709 1088 711 1100 b 506 1293 711 1206 636 1293 z m 876 198 l 589 979 l 426 979 l 140 201 b -5 66 100 93 83 77 l -5 0 l 327 0 l 327 66 b 241 199 220 80 208 98 l 284 323 l 621 323 l 664 199 b 578 66 699 98 685 80 l 578 0 l 1019 0 l 1019 66 b 876 198 935 77 915 93 z m 311 404 l 452 814 l 593 404 z "},"Ä":{"ha":1014,"x_min":0,"x_max":0,"o":"m 382 1079 b 469 1162 431 1079 469 1114 b 382 1246 469 1211 431 1246 b 297 1162 335 1246 297 1211 b 382 1079 297 1114 335 1079 z m 629 1079 b 715 1162 677 1079 715 1114 b 629 1246 715 1211 677 1246 b 543 1162 581 1246 543 1211 b 629 1079 543 1114 581 1079 z m 876 198 l 589 979 l 426 979 l 140 201 b -5 66 100 93 83 77 l -5 0 l 327 0 l 327 66 b 241 199 220 80 208 98 l 284 323 l 621 323 l 664 199 b 578 66 699 98 685 80 l 578 0 l 1019 0 l 1019 66 b 876 198 935 77 915 93 z m 311 404 l 452 814 l 593 404 z "},"Ǟ":{"ha":1014,"x_min":0,"x_max":0,"o":"m 294 1244 l 717 1244 l 717 1320 l 294 1320 z m 394 1050 b 463 1110 433 1050 463 1076 b 394 1170 463 1144 433 1170 l 385 1170 b 315 1110 346 1170 315 1144 b 385 1050 315 1076 346 1050 z m 626 1050 b 695 1110 665 1050 695 1076 b 626 1170 695 1144 665 1170 l 617 1170 b 548 1110 578 1170 548 1144 b 617 1050 548 1076 578 1050 z m 876 198 l 589 979 l 426 979 l 140 201 b -5 66 100 93 83 77 l -5 0 l 327 0 l 327 66 b 241 199 220 80 208 98 l 284 323 l 621 323 l 664 199 b 578 66 699 98 685 80 l 578 0 l 1019 0 l 1019 66 b 876 198 935 77 915 93 z m 311 404 l 452 814 l 593 404 z "},"Ã":{"ha":1014,"x_min":0,"x_max":0,"o":"m 593 1063 b 720 1261 663 1063 720 1119 l 646 1261 b 603 1177 644 1199 631 1177 b 547 1201 584 1177 568 1186 l 527 1217 b 419 1259 492 1242 461 1259 b 292 1061 349 1259 292 1203 l 366 1061 b 409 1145 368 1123 381 1145 b 465 1120 428 1145 444 1136 l 485 1105 b 593 1063 521 1080 551 1063 z m 876 198 l 589 979 l 426 979 l 140 201 b -5 66 100 93 83 77 l -5 0 l 327 0 l 327 66 b 241 199 220 80 208 98 l 284 323 l 621 323 l 664 199 b 578 66 699 98 685 80 l 578 0 l 1019 0 l 1019 66 b 876 198 935 77 915 93 z m 311 404 l 452 814 l 593 404 z "},"Ā":{"ha":1014,"x_min":0,"x_max":0,"o":"m 307 1096 l 705 1096 l 705 1196 l 307 1196 z m 876 198 l 589 979 l 426 979 l 140 201 b -5 66 100 93 83 77 l -5 0 l 327 0 l 327 66 b 241 199 220 80 208 98 l 284 323 l 621 323 l 664 199 b 578 66 699 98 685 80 l 578 0 l 1019 0 l 1019 66 b 876 198 935 77 915 93 z m 311 404 l 452 814 l 593 404 z "},"Ả":{"ha":1014,"x_min":0,"x_max":0,"o":"m 525 1294 b 375 1239 455 1294 403 1266 l 375 1190 b 464 1214 394 1202 427 1214 b 536 1166 509 1214 536 1196 b 444 1067 536 1136 508 1109 l 513 1067 b 659 1198 620 1110 659 1148 b 525 1294 659 1255 606 1294 z m 876 198 l 589 979 l 426 979 l 140 201 b -5 66 100 93 83 77 l -5 0 l 327 0 l 327 66 b 241 199 220 80 208 98 l 284 323 l 621 323 l 664 199 b 578 66 699 98 685 80 l 578 0 l 1019 0 l 1019 66 b 876 198 935 77 915 93 z m 311 404 l 452 814 l 593 404 z "},"Å":{"ha":1014,"x_min":0,"x_max":0,"o":"m 323 1194 b 506 1057 323 1113 402 1057 b 688 1194 609 1057 688 1113 b 506 1331 688 1274 609 1331 b 323 1194 402 1331 323 1274 z m 438 1194 b 505 1266 438 1237 467 1266 b 572 1194 543 1266 572 1237 b 505 1121 572 1150 543 1121 b 438 1194 467 1121 438 1150 z m 876 198 l 589 979 l 426 979 l 140 201 b -5 66 100 93 83 77 l -5 0 l 327 0 l 327 66 b 241 199 220 80 208 98 l 284 323 l 621 323 l 664 199 b 578 66 699 98 685 80 l 578 0 l 1019 0 l 1019 66 b 876 198 935 77 915 93 z m 311 404 l 452 814 l 593 404 z "},"Å":{"ha":1014,"x_min":0,"x_max":0,"o":"m 323 1194 b 506 1057 323 1113 402 1057 b 688 1194 609 1057 688 1113 b 506 1331 688 1274 609 1331 b 323 1194 402 1331 323 1274 z m 438 1194 b 505 1266 438 1237 467 1266 b 572 1194 543 1266 572 1237 b 505 1121 572 1150 543 1121 b 438 1194 467 1121 438 1150 z m 876 198 l 589 979 l 426 979 l 140 201 b -5 66 100 93 83 77 l -5 0 l 327 0 l 327 66 b 241 199 220 80 208 98 l 284 323 l 621 323 l 664 199 b 578 66 699 98 685 80 l 578 0 l 1019 0 l 1019 66 b 876 198 935 77 915 93 z m 311 404 l 452 814 l 593 404 z "},"Ǻ":{"ha":1014,"x_min":0,"x_max":0,"o":"m 718 1250 l 718 1347 l 294 1252 l 294 1196 z m 534 1021 b 678 1099 622 1021 678 1053 b 534 1177 678 1146 622 1177 l 477 1177 b 333 1099 391 1177 333 1146 b 477 1021 333 1053 391 1021 z m 526 1070 l 486 1070 b 441 1099 457 1070 441 1082 b 486 1128 441 1116 457 1128 l 526 1128 b 570 1099 555 1128 570 1116 b 526 1070 570 1082 555 1070 z m 876 198 l 589 979 l 426 979 l 140 201 b -5 66 100 93 83 77 l -5 0 l 327 0 l 327 66 b 241 199 220 80 208 98 l 284 323 l 621 323 l 664 199 b 578 66 699 98 685 80 l 578 0 l 1019 0 l 1019 66 b 876 198 935 77 915 93 z m 311 404 l 452 814 l 593 404 z "},"Ḁ":{"ha":1014,"x_min":0,"x_max":0,"o":"m 876 198 l 589 979 l 426 979 l 140 201 b -5 66 100 93 83 77 l -5 0 l 327 0 l 327 66 b 241 199 220 80 208 98 l 284 323 l 621 323 l 664 199 b 578 66 699 98 685 80 l 578 0 l 1019 0 l 1019 66 b 876 198 935 77 915 93 z m 311 404 l 452 814 l 593 404 z m 269 -203 b 471 -338 269 -283 357 -338 b 673 -203 585 -338 673 -283 b 471 -70 673 -123 585 -70 b 269 -203 357 -70 269 -123 z m 396 -203 b 471 -136 396 -162 429 -136 b 545 -203 513 -136 545 -162 b 471 -272 545 -244 513 -272 b 396 -203 429 -272 396 -244 z "},"Ȧ":{"ha":1014,"x_min":0,"x_max":0,"o":"m 506 1077 b 595 1161 555 1077 595 1113 b 506 1246 595 1210 555 1246 b 417 1161 456 1246 417 1210 b 506 1077 417 1113 456 1077 z m 876 198 l 589 979 l 426 979 l 140 201 b -5 66 100 93 83 77 l -5 0 l 327 0 l 327 66 b 241 199 220 80 208 98 l 284 323 l 621 323 l 664 199 b 578 66 699 98 685 80 l 578 0 l 1019 0 l 1019 66 b 876 198 935 77 915 93 z m 311 404 l 452 814 l 593 404 z "},"Ǡ":{"ha":1014,"x_min":0,"x_max":0,"o":"m 294 1227 l 717 1227 l 717 1303 l 294 1303 z m 506 1044 b 582 1110 548 1044 582 1072 b 506 1177 582 1148 548 1177 b 429 1110 463 1177 429 1148 b 506 1044 429 1072 463 1044 z m 876 198 l 589 979 l 426 979 l 140 201 b -5 66 100 93 83 77 l -5 0 l 327 0 l 327 66 b 241 199 220 80 208 98 l 284 323 l 621 323 l 664 199 b 578 66 699 98 685 80 l 578 0 l 1019 0 l 1019 66 b 876 198 935 77 915 93 z m 311 404 l 452 814 l 593 404 z "},"Ạ":{"ha":1014,"x_min":0,"x_max":0,"o":"m 876 198 l 589 979 l 426 979 l 140 201 b -5 66 100 93 83 77 l -5 0 l 327 0 l 327 66 b 241 199 220 80 208 98 l 284 323 l 621 323 l 664 199 b 578 66 699 98 685 80 l 578 0 l 1019 0 l 1019 66 b 876 198 935 77 915 93 z m 311 404 l 452 814 l 593 404 z m 471 -119 b 382 -203 421 -119 382 -155 b 471 -288 382 -252 421 -288 b 559 -203 520 -288 559 -252 b 471 -119 559 -155 520 -119 z "},"Ą":{"ha":1014,"x_min":0,"x_max":0,"o":"m 819 -333 b 960 -281 880 -333 932 -312 l 960 -217 b 907 -233 949 -227 928 -233 b 819 -111 858 -233 819 -184 b 851 0 819 -68 831 -26 l 1019 0 l 1019 66 b 876 198 935 77 915 93 l 589 979 l 426 979 l 140 201 b -5 66 100 93 83 77 l -5 0 l 327 0 l 327 66 b 241 199 220 80 208 98 l 284 323 l 621 323 l 664 199 b 578 66 699 98 685 80 l 578 0 l 777 0 b 667 -196 715 -52 667 -124 b 819 -333 667 -281 734 -333 z m 311 404 l 452 814 l 593 404 z "},"B":{"ha":990,"x_min":0,"x_max":0,"o":"m 932 288 b 644 535 932 436 815 519 b 881 742 778 551 881 622 b 509 979 881 889 749 979 l 43 979 l 43 913 b 158 829 146 903 158 890 l 158 150 b 43 66 158 90 146 77 l 43 0 l 509 0 b 932 288 745 0 932 102 z m 673 719 b 467 549 673 614 602 549 l 362 549 l 362 903 l 448 901 b 673 719 605 896 673 829 z m 715 275 b 448 79 715 142 610 83 l 362 76 l 362 473 l 467 473 b 715 275 627 473 715 404 z "},"Ḇ":{"ha":990,"x_min":0,"x_max":0,"o":"m 932 288 b 644 535 932 436 815 519 b 881 742 778 551 881 622 b 509 979 881 889 749 979 l 43 979 l 43 913 b 158 829 146 903 158 890 l 158 150 b 43 66 158 90 146 77 l 43 0 l 509 0 b 932 288 745 0 932 102 z m 673 719 b 467 549 673 614 602 549 l 362 549 l 362 903 l 448 901 b 673 719 605 896 673 829 z m 715 275 b 448 79 715 142 610 83 l 362 76 l 362 473 l 467 473 b 715 275 627 473 715 404 z m 294 -252 l 705 -252 l 705 -154 l 294 -154 z "},"Ḃ":{"ha":990,"x_min":0,"x_max":0,"o":"m 499 1077 b 588 1161 549 1077 588 1113 b 499 1246 588 1210 549 1246 b 410 1161 450 1246 410 1210 b 499 1077 410 1113 450 1077 z m 932 288 b 644 535 932 436 815 519 b 881 742 778 551 881 622 b 509 979 881 889 749 979 l 43 979 l 43 913 b 158 829 146 903 158 890 l 158 150 b 43 66 158 90 146 77 l 43 0 l 509 0 b 932 288 745 0 932 102 z m 673 719 b 467 549 673 614 602 549 l 362 549 l 362 903 l 448 901 b 673 719 605 896 673 829 z m 715 275 b 448 79 715 142 610 83 l 362 76 l 362 473 l 467 473 b 715 275 627 473 715 404 z "},"Ḅ":{"ha":990,"x_min":0,"x_max":0,"o":"m 932 288 b 644 535 932 436 815 519 b 881 742 778 551 881 622 b 509 979 881 889 749 979 l 43 979 l 43 913 b 158 829 146 903 158 890 l 158 150 b 43 66 158 90 146 77 l 43 0 l 509 0 b 932 288 745 0 932 102 z m 673 719 b 467 549 673 614 602 549 l 362 549 l 362 903 l 448 901 b 673 719 605 896 673 829 z m 715 275 b 448 79 715 142 610 83 l 362 76 l 362 473 l 467 473 b 715 275 627 473 715 404 z m 500 -119 b 411 -203 450 -119 411 -155 b 500 -288 411 -252 450 -288 b 589 -203 549 -288 589 -252 b 500 -119 589 -155 549 -119 z "},"C":{"ha":995,"x_min":0,"x_max":0,"o":"m 67 488 b 592 -21 67 172 306 -21 b 926 64 727 -21 863 17 l 933 295 l 872 295 b 613 70 833 125 746 70 b 294 505 423 70 294 252 b 613 909 294 745 409 909 b 868 694 746 909 830 850 l 929 694 l 922 926 b 592 1000 861 970 740 1000 b 67 488 290 1000 67 806 z "},"Ⅽ":{"ha":995,"x_min":0,"x_max":0,"o":"m 67 488 b 592 -21 67 172 306 -21 b 926 64 727 -21 863 17 l 933 295 l 872 295 b 613 70 833 125 746 70 b 294 505 423 70 294 252 b 613 909 294 745 409 909 b 868 694 746 909 830 850 l 929 694 l 922 926 b 592 1000 861 970 740 1000 b 67 488 290 1000 67 806 z "},"Ć":{"ha":995,"x_min":0,"x_max":0,"o":"m 566 1061 l 789 1255 l 789 1262 l 589 1262 l 485 1061 z m 67 488 b 592 -21 67 172 306 -21 b 926 64 727 -21 863 17 l 933 295 l 872 295 b 613 70 833 125 746 70 b 294 505 423 70 294 252 b 613 909 294 745 409 909 b 868 694 746 909 830 850 l 929 694 l 922 926 b 592 1000 861 970 740 1000 b 67 488 290 1000 67 806 z "},"Ĉ":{"ha":995,"x_min":0,"x_max":0,"o":"m 452 1061 l 588 1161 l 721 1061 l 803 1061 l 657 1262 l 519 1262 l 373 1061 z m 67 488 b 592 -21 67 172 306 -21 b 926 64 727 -21 863 17 l 933 295 l 872 295 b 613 70 833 125 746 70 b 294 505 423 70 294 252 b 613 909 294 745 409 909 b 868 694 746 909 830 850 l 929 694 l 922 926 b 592 1000 861 970 740 1000 b 67 488 290 1000 67 806 z "},"Č":{"ha":995,"x_min":0,"x_max":0,"o":"m 722 1261 l 587 1160 l 454 1261 l 372 1261 l 517 1060 l 656 1060 l 802 1261 z m 67 488 b 592 -21 67 172 306 -21 b 926 64 727 -21 863 17 l 933 295 l 872 295 b 613 70 833 125 746 70 b 294 505 423 70 294 252 b 613 909 294 745 409 909 b 868 694 746 909 830 850 l 929 694 l 922 926 b 592 1000 861 970 740 1000 b 67 488 290 1000 67 806 z "},"Ċ":{"ha":995,"x_min":0,"x_max":0,"o":"m 578 1077 b 667 1161 628 1077 667 1113 b 578 1246 667 1210 628 1246 b 490 1161 529 1246 490 1210 b 578 1077 490 1113 529 1077 z m 67 488 b 592 -21 67 172 306 -21 b 926 64 727 -21 863 17 l 933 295 l 872 295 b 613 70 833 125 746 70 b 294 505 423 70 294 252 b 613 909 294 745 409 909 b 868 694 746 909 830 850 l 929 694 l 922 926 b 592 1000 861 970 740 1000 b 67 488 290 1000 67 806 z "},"Ç":{"ha":995,"x_min":0,"x_max":0,"o":"m 67 488 b 554 -20 67 186 285 -4 l 493 -96 l 493 -150 b 521 -147 499 -149 511 -147 b 608 -203 572 -147 608 -165 b 532 -255 608 -237 575 -255 b 433 -229 494 -255 456 -244 l 433 -294 b 578 -333 466 -317 516 -333 b 759 -202 671 -333 759 -288 b 595 -73 759 -117 686 -73 l 637 -20 b 926 64 756 -12 869 22 l 933 295 l 872 295 b 613 70 833 125 746 70 b 294 505 423 70 294 252 b 613 909 294 745 409 909 b 868 694 746 909 830 850 l 929 694 l 922 926 b 592 1000 861 970 740 1000 b 67 488 290 1000 67 806 z "},"Ḉ":{"ha":995,"x_min":0,"x_max":0,"o":"m 566 1061 l 789 1255 l 789 1262 l 589 1262 l 485 1061 z m 67 488 b 554 -20 67 186 285 -4 l 493 -96 l 493 -150 b 521 -147 499 -149 511 -147 b 608 -203 572 -147 608 -165 b 532 -255 608 -237 575 -255 b 433 -229 494 -255 456 -244 l 433 -294 b 578 -333 466 -317 516 -333 b 759 -202 671 -333 759 -288 b 595 -73 759 -117 686 -73 l 637 -20 b 926 64 756 -12 869 22 l 933 295 l 872 295 b 613 70 833 125 746 70 b 294 505 423 70 294 252 b 613 909 294 745 409 909 b 868 694 746 909 830 850 l 929 694 l 922 926 b 592 1000 861 970 740 1000 b 67 488 290 1000 67 806 z "},"D":{"ha":1098,"x_min":0,"x_max":0,"o":"m 1039 504 b 484 979 1039 806 806 979 l 43 979 l 43 913 b 158 829 146 903 158 890 l 158 150 b 43 66 158 90 146 77 l 43 0 l 492 0 b 1039 504 787 0 1039 198 z m 814 492 b 449 79 814 240 670 85 l 362 76 l 362 903 l 449 901 b 814 492 671 893 814 736 z "},"Ⅾ":{"ha":1098,"x_min":0,"x_max":0,"o":"m 1039 504 b 484 979 1039 806 806 979 l 43 979 l 43 913 b 158 829 146 903 158 890 l 158 150 b 43 66 158 90 146 77 l 43 0 l 492 0 b 1039 504 787 0 1039 198 z m 814 492 b 449 79 814 240 670 85 l 362 76 l 362 903 l 449 901 b 814 492 671 893 814 736 z "},"Ḓ":{"ha":1098,"x_min":0,"x_max":0,"o":"m 1039 504 b 484 979 1039 806 806 979 l 43 979 l 43 913 b 158 829 146 903 158 890 l 158 150 b 43 66 158 90 146 77 l 43 0 l 492 0 b 1039 504 787 0 1039 198 z m 814 492 b 449 79 814 240 670 85 l 362 76 l 362 903 l 449 901 b 814 492 671 893 814 736 z m 368 -321 l 505 -199 l 640 -321 l 718 -321 l 568 -87 l 442 -87 l 291 -321 z "},"Ď":{"ha":1098,"x_min":0,"x_max":0,"o":"m 665 1261 l 530 1160 l 396 1261 l 314 1261 l 460 1060 l 598 1060 l 744 1261 z m 1039 504 b 484 979 1039 806 806 979 l 43 979 l 43 913 b 158 829 146 903 158 890 l 158 150 b 43 66 158 90 146 77 l 43 0 l 492 0 b 1039 504 787 0 1039 198 z m 814 492 b 449 79 814 240 670 85 l 362 76 l 362 903 l 449 901 b 814 492 671 893 814 736 z "},"Ḏ":{"ha":1098,"x_min":0,"x_max":0,"o":"m 1039 504 b 484 979 1039 806 806 979 l 43 979 l 43 913 b 158 829 146 903 158 890 l 158 150 b 43 66 158 90 146 77 l 43 0 l 492 0 b 1039 504 787 0 1039 198 z m 814 492 b 449 79 814 240 670 85 l 362 76 l 362 903 l 449 901 b 814 492 671 893 814 736 z m 299 -252 l 711 -252 l 711 -154 l 299 -154 z "},"Ḋ":{"ha":1098,"x_min":0,"x_max":0,"o":"m 521 1077 b 610 1161 570 1077 610 1113 b 521 1246 610 1210 570 1246 b 432 1161 472 1246 432 1210 b 521 1077 432 1113 471 1077 z m 1039 504 b 484 979 1039 806 806 979 l 43 979 l 43 913 b 158 829 146 903 158 890 l 158 150 b 43 66 158 90 146 77 l 43 0 l 492 0 b 1039 504 787 0 1039 198 z m 814 492 b 449 79 814 240 670 85 l 362 76 l 362 903 l 449 901 b 814 492 671 893 814 736 z "},"Ḍ":{"ha":1098,"x_min":0,"x_max":0,"o":"m 1039 504 b 484 979 1039 806 806 979 l 43 979 l 43 913 b 158 829 146 903 158 890 l 158 150 b 43 66 158 90 146 77 l 43 0 l 492 0 b 1039 504 787 0 1039 198 z m 814 492 b 449 79 814 240 670 85 l 362 76 l 362 903 l 449 901 b 814 492 671 893 814 736 z m 505 -119 b 416 -203 456 -119 416 -155 b 505 -288 416 -252 456 -288 b 593 -203 554 -288 593 -252 b 505 -119 593 -155 554 -119 z "},"Ḑ":{"ha":1098,"x_min":0,"x_max":0,"o":"m 1039 504 b 484 979 1039 806 806 979 l 43 979 l 43 913 b 158 829 146 903 158 890 l 158 150 b 43 66 158 90 146 77 l 43 0 l 492 0 b 1039 504 787 0 1039 198 z m 814 492 b 449 79 814 240 670 85 l 362 76 l 362 903 l 449 901 b 814 492 671 893 814 736 z m 490 -333 b 672 -203 600 -333 672 -282 b 517 -73 672 -123 608 -73 b 396 -112 461 -73 415 -91 l 396 -170 b 457 -159 409 -163 433 -159 b 532 -209 500 -159 532 -177 b 452 -261 532 -243 499 -261 b 355 -239 413 -261 378 -252 l 355 -300 b 490 -333 382 -318 431 -333 z "},"Ð":{"ha":1098,"x_min":0,"x_max":0,"o":"m 43 463 l 158 463 l 158 150 b 43 66 158 90 146 77 l 43 0 l 492 0 b 1039 504 787 0 1039 198 b 484 979 1039 806 806 979 l 43 979 l 43 913 b 158 829 146 903 158 890 l 158 541 l 43 541 z m 814 492 b 449 79 814 240 670 85 l 362 76 l 362 463 l 571 463 l 571 541 l 362 541 l 362 903 l 449 901 b 814 492 671 893 814 736 z "},"Đ":{"ha":1098,"x_min":0,"x_max":0,"o":"m 43 463 l 158 463 l 158 150 b 43 66 158 90 146 77 l 43 0 l 492 0 b 1039 504 787 0 1039 198 b 484 979 1039 806 806 979 l 43 979 l 43 913 b 158 829 146 903 158 890 l 158 541 l 43 541 z m 814 492 b 449 79 814 240 670 85 l 362 76 l 362 463 l 571 463 l 571 541 l 362 541 l 362 903 l 449 901 b 814 492 671 893 814 736 z "},"E":{"ha":912,"x_min":0,"x_max":0,"o":"m 822 979 l 43 979 l 43 913 b 158 829 146 903 158 890 l 158 150 b 43 66 158 90 146 77 l 43 0 l 852 0 l 861 292 l 800 292 b 540 82 762 106 723 88 l 362 76 l 362 463 l 530 463 b 614 328 578 463 594 444 l 673 328 l 673 673 l 614 673 b 530 538 591 556 576 538 l 362 538 l 362 903 l 534 898 b 768 720 690 893 732 866 l 829 720 z "},"É":{"ha":912,"x_min":0,"x_max":0,"o":"m 465 1061 l 688 1255 l 688 1262 l 488 1262 l 384 1061 z m 822 979 l 43 979 l 43 913 b 158 829 146 903 158 890 l 158 150 b 43 66 158 90 146 77 l 43 0 l 852 0 l 861 292 l 800 292 b 540 82 762 106 723 88 l 362 76 l 362 463 l 530 463 b 614 328 578 463 594 444 l 673 328 l 673 673 l 614 673 b 530 538 591 556 576 538 l 362 538 l 362 903 l 534 898 b 768 720 690 893 732 866 l 829 720 z "},"È":{"ha":912,"x_min":0,"x_max":0,"o":"m 506 1061 l 587 1061 l 489 1262 l 281 1262 l 281 1255 z m 822 979 l 43 979 l 43 913 b 158 829 146 903 158 890 l 158 150 b 43 66 158 90 146 77 l 43 0 l 852 0 l 861 292 l 800 292 b 540 82 762 106 723 88 l 362 76 l 362 463 l 530 463 b 614 328 578 463 594 444 l 673 328 l 673 673 l 614 673 b 530 538 591 556 576 538 l 362 538 l 362 903 l 534 898 b 768 720 690 893 732 866 l 829 720 z "},"Ȅ":{"ha":912,"x_min":0,"x_max":0,"o":"m 345 1262 l 175 1262 l 175 1255 l 361 1061 l 450 1061 z m 603 1262 l 447 1262 l 447 1255 l 561 1061 l 645 1061 z m 822 979 l 43 979 l 43 913 b 158 829 146 903 158 890 l 158 150 b 43 66 158 90 146 77 l 43 0 l 852 0 l 861 292 l 800 292 b 540 82 762 106 723 88 l 362 76 l 362 463 l 530 463 b 614 328 578 463 594 444 l 673 328 l 673 673 l 614 673 b 530 538 591 556 576 538 l 362 538 l 362 903 l 534 898 b 768 720 690 893 732 866 l 829 720 z "},"Ê":{"ha":912,"x_min":0,"x_max":0,"o":"m 351 1061 l 487 1161 l 620 1061 l 702 1061 l 556 1262 l 418 1262 l 272 1061 z m 822 979 l 43 979 l 43 913 b 158 829 146 903 158 890 l 158 150 b 43 66 158 90 146 77 l 43 0 l 852 0 l 861 292 l 800 292 b 540 82 762 106 723 88 l 362 76 l 362 463 l 530 463 b 614 328 578 463 594 444 l 673 328 l 673 673 l 614 673 b 530 538 591 556 576 538 l 362 538 l 362 903 l 534 898 b 768 720 690 893 732 866 l 829 720 z "},"Ế":{"ha":912,"x_min":0,"x_max":0,"o":"m 689 1247 l 689 1344 l 266 1249 l 266 1193 z m 266 1010 l 477 1072 l 688 1010 l 688 1067 l 498 1166 l 456 1166 l 267 1067 z m 822 979 l 43 979 l 43 913 b 158 829 146 903 158 890 l 158 150 b 43 66 158 90 146 77 l 43 0 l 852 0 l 861 292 l 800 292 b 540 82 762 106 723 88 l 362 76 l 362 463 l 530 463 b 614 328 578 463 594 444 l 673 328 l 673 673 l 614 673 b 530 538 591 556 576 538 l 362 538 l 362 903 l 534 898 b 768 720 690 893 732 866 l 829 720 z "},"Ề":{"ha":912,"x_min":0,"x_max":0,"o":"m 266 1247 l 688 1193 l 688 1249 l 266 1344 z m 266 1010 l 477 1072 l 688 1010 l 688 1067 l 498 1166 l 456 1166 l 267 1067 z m 822 979 l 43 979 l 43 913 b 158 829 146 903 158 890 l 158 150 b 43 66 158 90 146 77 l 43 0 l 852 0 l 861 292 l 800 292 b 540 82 762 106 723 88 l 362 76 l 362 463 l 530 463 b 614 328 578 463 594 444 l 673 328 l 673 673 l 614 673 b 530 538 591 556 576 538 l 362 538 l 362 903 l 534 898 b 768 720 690 893 732 866 l 829 720 z "},"Ễ":{"ha":912,"x_min":0,"x_max":0,"o":"m 565 1208 b 689 1333 636 1208 689 1251 l 614 1333 b 569 1291 614 1303 596 1291 b 507 1304 551 1291 533 1295 l 484 1311 b 389 1329 453 1322 424 1329 b 266 1204 319 1329 266 1287 l 340 1204 b 386 1246 340 1234 358 1246 b 448 1234 404 1246 422 1242 l 471 1226 b 565 1208 501 1215 531 1208 z m 266 1010 l 477 1072 l 688 1010 l 688 1067 l 498 1166 l 456 1166 l 267 1067 z m 822 979 l 43 979 l 43 913 b 158 829 146 903 158 890 l 158 150 b 43 66 158 90 146 77 l 43 0 l 852 0 l 861 292 l 800 292 b 540 82 762 106 723 88 l 362 76 l 362 463 l 530 463 b 614 328 578 463 594 444 l 673 328 l 673 673 l 614 673 b 530 538 591 556 576 538 l 362 538 l 362 903 l 534 898 b 768 720 690 893 732 866 l 829 720 z "},"Ể":{"ha":912,"x_min":0,"x_max":0,"o":"m 650 1328 b 524 1293 600 1328 551 1312 l 524 1247 b 611 1265 543 1256 578 1265 b 682 1227 656 1265 682 1250 b 602 1178 682 1204 657 1190 l 659 1143 b 791 1244 740 1162 791 1190 b 650 1328 791 1297 726 1328 z m 266 1010 l 477 1072 l 688 1010 l 688 1067 l 498 1166 l 456 1166 l 267 1067 z m 822 979 l 43 979 l 43 913 b 158 829 146 903 158 890 l 158 150 b 43 66 158 90 146 77 l 43 0 l 852 0 l 861 292 l 800 292 b 540 82 762 106 723 88 l 362 76 l 362 463 l 530 463 b 614 328 578 463 594 444 l 673 328 l 673 673 l 614 673 b 530 538 591 556 576 538 l 362 538 l 362 903 l 534 898 b 768 720 690 893 732 866 l 829 720 z "},"Ệ":{"ha":912,"x_min":0,"x_max":0,"o":"m 351 1061 l 487 1161 l 620 1061 l 702 1061 l 556 1262 l 418 1262 l 272 1061 z m 822 979 l 43 979 l 43 913 b 158 829 146 903 158 890 l 158 150 b 43 66 158 90 146 77 l 43 0 l 852 0 l 861 292 l 800 292 b 540 82 762 106 723 88 l 362 76 l 362 463 l 530 463 b 614 328 578 463 594 444 l 673 328 l 673 673 l 614 673 b 530 538 591 556 576 538 l 362 538 l 362 903 l 534 898 b 768 720 690 893 732 866 l 829 720 z m 475 -119 b 387 -203 426 -119 387 -155 b 475 -288 387 -252 426 -288 b 564 -203 525 -288 564 -252 b 475 -119 564 -155 525 -119 z "},"Ḙ":{"ha":912,"x_min":0,"x_max":0,"o":"m 822 979 l 43 979 l 43 913 b 158 829 146 903 158 890 l 158 150 b 43 66 158 90 146 77 l 43 0 l 852 0 l 861 292 l 800 292 b 540 82 762 106 723 88 l 362 76 l 362 463 l 530 463 b 614 328 578 463 594 444 l 673 328 l 673 673 l 614 673 b 530 538 591 556 576 538 l 362 538 l 362 903 l 534 898 b 768 720 690 893 732 866 l 829 720 z m 338 -321 l 475 -199 l 610 -321 l 689 -321 l 538 -87 l 413 -87 l 262 -321 z "},"Ě":{"ha":912,"x_min":0,"x_max":0,"o":"m 621 1261 l 486 1160 l 353 1261 l 270 1261 l 416 1060 l 555 1060 l 701 1261 z m 822 979 l 43 979 l 43 913 b 158 829 146 903 158 890 l 158 150 b 43 66 158 90 146 77 l 43 0 l 852 0 l 861 292 l 800 292 b 540 82 762 106 723 88 l 362 76 l 362 463 l 530 463 b 614 328 578 463 594 444 l 673 328 l 673 673 l 614 673 b 530 538 591 556 576 538 l 362 538 l 362 903 l 534 898 b 768 720 690 893 732 866 l 829 720 z "},"Ĕ":{"ha":912,"x_min":0,"x_max":0,"o":"m 477 1077 b 682 1258 608 1077 682 1164 b 679 1293 682 1271 682 1282 l 609 1293 l 609 1288 b 477 1185 609 1230 561 1185 b 345 1288 395 1185 345 1231 l 345 1293 l 275 1293 b 273 1258 273 1282 273 1271 b 477 1077 273 1164 347 1077 z m 822 979 l 43 979 l 43 913 b 158 829 146 903 158 890 l 158 150 b 43 66 158 90 146 77 l 43 0 l 852 0 l 861 292 l 800 292 b 540 82 762 106 723 88 l 362 76 l 362 463 l 530 463 b 614 328 578 463 594 444 l 673 328 l 673 673 l 614 673 b 530 538 591 556 576 538 l 362 538 l 362 903 l 534 898 b 768 720 690 893 732 866 l 829 720 z "},"Ȇ":{"ha":912,"x_min":0,"x_max":0,"o":"m 477 1293 b 273 1112 347 1293 273 1206 b 275 1077 273 1100 273 1088 l 345 1077 l 345 1082 b 477 1185 345 1140 394 1185 b 609 1082 560 1185 609 1140 l 609 1077 l 679 1077 b 682 1112 682 1088 682 1100 b 477 1293 682 1206 608 1293 z m 822 979 l 43 979 l 43 913 b 158 829 146 903 158 890 l 158 150 b 43 66 158 90 146 77 l 43 0 l 852 0 l 861 292 l 800 292 b 540 82 762 106 723 88 l 362 76 l 362 463 l 530 463 b 614 328 578 463 594 444 l 673 328 l 673 673 l 614 673 b 530 538 591 556 576 538 l 362 538 l 362 903 l 534 898 b 768 720 690 893 732 866 l 829 720 z "},"Ë":{"ha":912,"x_min":0,"x_max":0,"o":"m 354 1079 b 440 1162 402 1079 440 1114 b 354 1246 440 1211 402 1246 b 269 1162 307 1246 269 1211 b 354 1079 269 1114 307 1079 z m 601 1079 b 686 1162 648 1079 686 1114 b 601 1246 686 1211 648 1246 b 515 1162 553 1246 515 1211 b 601 1079 515 1114 553 1079 z m 822 979 l 43 979 l 43 913 b 158 829 146 903 158 890 l 158 150 b 43 66 158 90 146 77 l 43 0 l 852 0 l 861 292 l 800 292 b 540 82 762 106 723 88 l 362 76 l 362 463 l 530 463 b 614 328 578 463 594 444 l 673 328 l 673 673 l 614 673 b 530 538 591 556 576 538 l 362 538 l 362 903 l 534 898 b 768 720 690 893 732 866 l 829 720 z "},"Ẽ":{"ha":912,"x_min":0,"x_max":0,"o":"m 564 1063 b 692 1261 635 1063 692 1119 l 618 1261 b 574 1177 616 1199 602 1177 b 519 1201 556 1177 540 1186 l 498 1217 b 391 1259 463 1242 433 1259 b 263 1061 320 1259 263 1203 l 338 1061 b 380 1145 340 1123 353 1145 b 436 1120 399 1145 416 1136 l 456 1105 b 564 1063 492 1080 523 1063 z m 822 979 l 43 979 l 43 913 b 158 829 146 903 158 890 l 158 150 b 43 66 158 90 146 77 l 43 0 l 852 0 l 861 292 l 800 292 b 540 82 762 106 723 88 l 362 76 l 362 463 l 530 463 b 614 328 578 463 594 444 l 673 328 l 673 673 l 614 673 b 530 538 591 556 576 538 l 362 538 l 362 903 l 534 898 b 768 720 690 893 732 866 l 829 720 z "},"Ḛ":{"ha":912,"x_min":0,"x_max":0,"o":"m 822 979 l 43 979 l 43 913 b 158 829 146 903 158 890 l 158 150 b 43 66 158 90 146 77 l 43 0 l 852 0 l 861 292 l 800 292 b 540 82 762 106 723 88 l 362 76 l 362 463 l 530 463 b 614 328 578 463 594 444 l 673 328 l 673 673 l 614 673 b 530 538 591 556 576 538 l 362 538 l 362 903 l 534 898 b 768 720 690 893 732 866 l 829 720 z m 559 -297 b 682 -108 627 -297 682 -244 l 612 -108 b 570 -190 610 -168 597 -190 b 515 -166 552 -190 536 -180 l 496 -151 b 392 -111 463 -127 433 -111 b 269 -300 325 -111 269 -163 l 339 -300 b 381 -218 341 -239 354 -218 b 435 -241 399 -218 416 -227 l 455 -256 b 559 -297 489 -281 519 -297 z "},"Ē":{"ha":912,"x_min":0,"x_max":0,"o":"m 278 1096 l 677 1096 l 677 1196 l 278 1196 z m 822 979 l 43 979 l 43 913 b 158 829 146 903 158 890 l 158 150 b 43 66 158 90 146 77 l 43 0 l 852 0 l 861 292 l 800 292 b 540 82 762 106 723 88 l 362 76 l 362 463 l 530 463 b 614 328 578 463 594 444 l 673 328 l 673 673 l 614 673 b 530 538 591 556 576 538 l 362 538 l 362 903 l 534 898 b 768 720 690 893 732 866 l 829 720 z "},"Ḗ":{"ha":912,"x_min":0,"x_max":0,"o":"m 689 1261 l 689 1358 l 266 1263 l 266 1207 z m 266 1072 l 688 1072 l 688 1149 l 266 1149 z m 822 979 l 43 979 l 43 913 b 158 829 146 903 158 890 l 158 150 b 43 66 158 90 146 77 l 43 0 l 852 0 l 861 292 l 800 292 b 540 82 762 106 723 88 l 362 76 l 362 463 l 530 463 b 614 328 578 463 594 444 l 673 328 l 673 673 l 614 673 b 530 538 591 556 576 538 l 362 538 l 362 903 l 534 898 b 768 720 690 893 732 866 l 829 720 z "},"Ḕ":{"ha":912,"x_min":0,"x_max":0,"o":"m 266 1261 l 688 1207 l 688 1263 l 266 1358 z m 266 1072 l 688 1072 l 688 1149 l 266 1149 z m 822 979 l 43 979 l 43 913 b 158 829 146 903 158 890 l 158 150 b 43 66 158 90 146 77 l 43 0 l 852 0 l 861 292 l 800 292 b 540 82 762 106 723 88 l 362 76 l 362 463 l 530 463 b 614 328 578 463 594 444 l 673 328 l 673 673 l 614 673 b 530 538 591 556 576 538 l 362 538 l 362 903 l 534 898 b 768 720 690 893 732 866 l 829 720 z "},"Ẻ":{"ha":912,"x_min":0,"x_max":0,"o":"m 497 1294 b 347 1239 427 1294 374 1266 l 347 1190 b 436 1214 366 1202 399 1214 b 508 1166 481 1214 508 1196 b 415 1067 508 1136 479 1109 l 484 1067 b 631 1198 591 1110 631 1148 b 497 1294 631 1255 578 1294 z m 822 979 l 43 979 l 43 913 b 158 829 146 903 158 890 l 158 150 b 43 66 158 90 146 77 l 43 0 l 852 0 l 861 292 l 800 292 b 540 82 762 106 723 88 l 362 76 l 362 463 l 530 463 b 614 328 578 463 594 444 l 673 328 l 673 673 l 614 673 b 530 538 591 556 576 538 l 362 538 l 362 903 l 534 898 b 768 720 690 893 732 866 l 829 720 z "},"Ė":{"ha":912,"x_min":0,"x_max":0,"o":"m 477 1077 b 566 1161 527 1077 566 1113 b 477 1246 566 1210 527 1246 b 389 1161 428 1246 389 1210 b 477 1077 389 1113 428 1077 z m 822 979 l 43 979 l 43 913 b 158 829 146 903 158 890 l 158 150 b 43 66 158 90 146 77 l 43 0 l 852 0 l 861 292 l 800 292 b 540 82 762 106 723 88 l 362 76 l 362 463 l 530 463 b 614 328 578 463 594 444 l 673 328 l 673 673 l 614 673 b 530 538 591 556 576 538 l 362 538 l 362 903 l 534 898 b 768 720 690 893 732 866 l 829 720 z "},"Ẹ":{"ha":912,"x_min":0,"x_max":0,"o":"m 822 979 l 43 979 l 43 913 b 158 829 146 903 158 890 l 158 150 b 43 66 158 90 146 77 l 43 0 l 852 0 l 861 292 l 800 292 b 540 82 762 106 723 88 l 362 76 l 362 463 l 530 463 b 614 328 578 463 594 444 l 673 328 l 673 673 l 614 673 b 530 538 591 556 576 538 l 362 538 l 362 903 l 534 898 b 768 720 690 893 732 866 l 829 720 z m 475 -119 b 387 -203 426 -119 387 -155 b 475 -288 387 -252 426 -288 b 564 -203 525 -288 564 -252 b 475 -119 564 -155 525 -119 z "},"Ȩ":{"ha":912,"x_min":0,"x_max":0,"o":"m 452 -333 b 633 -202 545 -333 633 -288 b 469 -73 633 -117 560 -73 l 526 0 l 852 0 l 861 292 l 800 292 b 540 82 762 106 723 88 l 362 76 l 362 463 l 530 463 b 614 328 578 463 594 444 l 673 328 l 673 673 l 614 673 b 530 538 591 556 576 538 l 362 538 l 362 903 l 534 898 b 768 720 690 893 732 866 l 829 720 l 822 979 l 43 979 l 43 913 b 158 829 146 903 158 890 l 158 150 b 43 66 158 90 146 77 l 43 0 l 444 0 l 367 -96 l 367 -150 b 395 -147 373 -149 385 -147 b 481 -203 446 -147 481 -165 b 406 -255 481 -237 449 -255 b 308 -229 368 -255 330 -244 l 308 -294 b 452 -333 340 -317 390 -333 z "},"Ḝ":{"ha":912,"x_min":0,"x_max":0,"o":"m 477 1077 b 682 1258 608 1077 682 1164 b 679 1293 682 1271 682 1282 l 609 1293 l 609 1288 b 477 1185 609 1230 561 1185 b 345 1288 395 1185 345 1231 l 345 1293 l 275 1293 b 273 1258 273 1282 273 1271 b 477 1077 273 1164 347 1077 z m 452 -333 b 633 -202 545 -333 633 -288 b 469 -73 633 -117 560 -73 l 526 0 l 852 0 l 861 292 l 800 292 b 540 82 762 106 723 88 l 362 76 l 362 463 l 530 463 b 614 328 578 463 594 444 l 673 328 l 673 673 l 614 673 b 530 538 591 556 576 538 l 362 538 l 362 903 l 534 898 b 768 720 690 893 732 866 l 829 720 l 822 979 l 43 979 l 43 913 b 158 829 146 903 158 890 l 158 150 b 43 66 158 90 146 77 l 43 0 l 444 0 l 367 -96 l 367 -150 b 395 -147 373 -149 385 -147 b 481 -203 446 -147 481 -165 b 406 -255 481 -237 449 -255 b 308 -229 368 -255 330 -244 l 308 -294 b 452 -333 340 -317 390 -333 z "},"Ę":{"ha":912,"x_min":0,"x_max":0,"o":"m 720 -333 b 861 -281 782 -333 835 -312 l 861 -217 b 808 -233 850 -227 831 -233 b 722 -111 760 -233 722 -184 b 753 0 722 -68 734 -26 l 852 0 l 861 292 l 800 292 b 540 82 762 106 723 88 l 362 76 l 362 463 l 530 463 b 614 328 578 463 594 444 l 673 328 l 673 673 l 614 673 b 530 538 591 556 576 538 l 362 538 l 362 903 l 534 898 b 768 720 690 893 732 866 l 829 720 l 822 979 l 43 979 l 43 913 b 158 829 146 903 158 890 l 158 150 b 43 66 158 90 146 77 l 43 0 l 680 0 b 570 -196 617 -52 570 -124 b 720 -333 570 -281 635 -333 z "},"F":{"ha":847,"x_min":0,"x_max":0,"o":"m 805 979 l 43 979 l 43 913 b 158 829 146 903 158 890 l 158 150 b 43 66 158 90 146 77 l 43 0 l 486 0 l 486 66 b 362 159 377 77 362 94 l 362 454 l 513 454 b 598 319 562 454 578 435 l 656 319 l 656 665 l 598 665 b 513 530 575 547 560 530 l 362 530 l 362 903 l 515 899 b 750 720 672 894 715 867 l 812 720 z "},"Ḟ":{"ha":847,"x_min":0,"x_max":0,"o":"m 468 1077 b 557 1161 517 1077 557 1113 b 468 1246 557 1210 517 1246 b 379 1161 419 1246 379 1210 b 468 1077 379 1113 418 1077 z m 805 979 l 43 979 l 43 913 b 158 829 146 903 158 890 l 158 150 b 43 66 158 90 146 77 l 43 0 l 486 0 l 486 66 b 362 159 377 77 362 94 l 362 454 l 513 454 b 598 319 562 454 578 435 l 656 319 l 656 665 l 598 665 b 513 530 575 547 560 530 l 362 530 l 362 903 l 515 899 b 750 720 672 894 715 867 l 812 720 z "},"G":{"ha":1083,"x_min":0,"x_max":0,"o":"m 67 488 b 592 -21 67 173 306 -21 b 955 67 736 -21 876 16 l 955 342 b 1066 422 955 401 965 412 l 1066 488 l 650 488 l 650 422 b 773 343 763 412 773 401 l 773 109 b 615 70 737 83 682 70 b 294 505 424 70 294 252 b 612 909 294 745 408 909 b 868 694 745 909 829 850 l 930 694 l 922 926 b 592 1000 861 970 740 1000 b 67 488 290 1000 67 806 z "},"Ǵ":{"ha":1083,"x_min":0,"x_max":0,"o":"m 562 1061 l 785 1255 l 785 1262 l 586 1262 l 481 1061 z m 67 488 b 592 -21 67 173 306 -21 b 955 67 736 -21 876 16 l 955 342 b 1066 422 955 401 965 412 l 1066 488 l 650 488 l 650 422 b 773 343 763 412 773 401 l 773 109 b 615 70 737 83 682 70 b 294 505 424 70 294 252 b 612 909 294 745 408 909 b 868 694 745 909 829 850 l 930 694 l 922 926 b 592 1000 861 970 740 1000 b 67 488 290 1000 67 806 z "},"Ĝ":{"ha":1083,"x_min":0,"x_max":0,"o":"m 449 1061 l 584 1161 l 718 1061 l 799 1061 l 653 1262 l 515 1262 l 369 1061 z m 67 488 b 592 -21 67 173 306 -21 b 955 67 736 -21 876 16 l 955 342 b 1066 422 955 401 965 412 l 1066 488 l 650 488 l 650 422 b 773 343 763 412 773 401 l 773 109 b 615 70 737 83 682 70 b 294 505 424 70 294 252 b 612 909 294 745 408 909 b 868 694 745 909 829 850 l 930 694 l 922 926 b 592 1000 861 970 740 1000 b 67 488 290 1000 67 806 z "},"Ǧ":{"ha":1083,"x_min":0,"x_max":0,"o":"m 718 1261 l 583 1160 l 450 1261 l 368 1261 l 513 1060 l 652 1060 l 798 1261 z m 67 488 b 592 -21 67 173 306 -21 b 955 67 736 -21 876 16 l 955 342 b 1066 422 955 401 965 412 l 1066 488 l 650 488 l 650 422 b 773 343 763 412 773 401 l 773 109 b 615 70 737 83 682 70 b 294 505 424 70 294 252 b 612 909 294 745 408 909 b 868 694 745 909 829 850 l 930 694 l 922 926 b 592 1000 861 970 740 1000 b 67 488 290 1000 67 806 z "},"Ğ":{"ha":1083,"x_min":0,"x_max":0,"o":"m 574 1077 b 779 1258 705 1077 779 1164 b 777 1293 779 1271 779 1282 l 707 1293 l 707 1288 b 574 1185 707 1230 658 1185 b 442 1288 492 1185 442 1231 l 442 1293 l 372 1293 b 370 1258 370 1282 370 1271 b 574 1077 370 1164 444 1077 z m 67 488 b 592 -21 67 173 306 -21 b 955 67 736 -21 876 16 l 955 342 b 1066 422 955 401 965 412 l 1066 488 l 650 488 l 650 422 b 773 343 763 412 773 401 l 773 109 b 615 70 737 83 682 70 b 294 505 424 70 294 252 b 612 909 294 745 408 909 b 868 694 745 909 829 850 l 930 694 l 922 926 b 592 1000 861 970 740 1000 b 67 488 290 1000 67 806 z "},"Ḡ":{"ha":1083,"x_min":0,"x_max":0,"o":"m 375 1096 l 774 1096 l 774 1196 l 375 1196 z m 67 488 b 592 -21 67 173 306 -21 b 955 67 736 -21 876 16 l 955 342 b 1066 422 955 401 965 412 l 1066 488 l 650 488 l 650 422 b 773 343 763 412 773 401 l 773 109 b 615 70 737 83 682 70 b 294 505 424 70 294 252 b 612 909 294 745 408 909 b 868 694 745 909 829 850 l 930 694 l 922 926 b 592 1000 861 970 740 1000 b 67 488 290 1000 67 806 z "},"Ġ":{"ha":1083,"x_min":0,"x_max":0,"o":"m 574 1077 b 663 1161 624 1077 663 1113 b 574 1246 663 1210 624 1246 b 486 1161 525 1246 486 1210 b 574 1077 486 1113 525 1077 z m 67 488 b 592 -21 67 173 306 -21 b 955 67 736 -21 876 16 l 955 342 b 1066 422 955 401 965 412 l 1066 488 l 650 488 l 650 422 b 773 343 763 412 773 401 l 773 109 b 615 70 737 83 682 70 b 294 505 424 70 294 252 b 612 909 294 745 408 909 b 868 694 745 909 829 850 l 930 694 l 922 926 b 592 1000 861 970 740 1000 b 67 488 290 1000 67 806 z "},"Ģ":{"ha":1083,"x_min":0,"x_max":0,"o":"m 67 488 b 592 -21 67 173 306 -21 b 955 67 736 -21 876 16 l 955 342 b 1066 422 955 401 965 412 l 1066 488 l 650 488 l 650 422 b 773 343 763 412 773 401 l 773 109 b 615 70 737 83 682 70 b 294 505 424 70 294 252 b 612 909 294 745 408 909 b 868 694 745 909 829 850 l 930 694 l 922 926 b 592 1000 861 970 740 1000 b 67 488 290 1000 67 806 z m 573 -333 b 755 -203 683 -333 755 -282 b 600 -73 755 -123 691 -73 b 478 -112 544 -73 497 -91 l 478 -170 b 540 -159 492 -163 515 -159 b 615 -209 582 -159 615 -177 b 535 -261 615 -243 582 -261 b 437 -239 496 -261 460 -252 l 437 -300 b 573 -333 465 -318 514 -333 z "},"H":{"ha":1164,"x_min":0,"x_max":0,"o":"m 362 146 l 362 460 l 802 460 l 802 146 b 695 66 802 87 791 76 l 695 0 l 1121 0 l 1121 66 b 1006 150 1020 76 1006 89 l 1006 829 b 1121 913 1006 890 1020 903 l 1121 979 l 695 979 l 695 913 b 802 833 791 903 802 892 l 802 541 l 362 541 l 362 832 b 470 913 362 890 375 902 l 470 979 l 43 979 l 43 913 b 158 829 146 903 158 890 l 158 150 b 43 66 158 90 146 77 l 43 0 l 470 0 l 470 66 b 362 146 375 77 362 89 z "},"Ĥ":{"ha":1164,"x_min":0,"x_max":0,"o":"m 458 1061 l 593 1161 l 727 1061 l 808 1061 l 663 1261 l 524 1261 l 378 1061 z m 362 146 l 362 460 l 802 460 l 802 146 b 695 66 802 87 791 76 l 695 0 l 1121 0 l 1121 66 b 1006 150 1020 76 1006 89 l 1006 829 b 1121 913 1006 890 1020 903 l 1121 979 l 695 979 l 695 913 b 802 833 791 903 802 892 l 802 541 l 362 541 l 362 832 b 470 913 362 890 375 902 l 470 979 l 43 979 l 43 913 b 158 829 146 903 158 890 l 158 150 b 43 66 158 90 146 77 l 43 0 l 470 0 l 470 66 b 362 146 375 77 362 89 z "},"Ȟ":{"ha":1164,"x_min":0,"x_max":0,"o":"m 727 1261 l 593 1160 l 459 1261 l 377 1261 l 523 1060 l 661 1060 l 807 1261 z m 362 146 l 362 460 l 802 460 l 802 146 b 695 66 802 87 791 76 l 695 0 l 1121 0 l 1121 66 b 1006 150 1020 76 1006 89 l 1006 829 b 1121 913 1006 890 1020 903 l 1121 979 l 695 979 l 695 913 b 802 833 791 903 802 892 l 802 541 l 362 541 l 362 832 b 470 913 362 890 375 902 l 470 979 l 43 979 l 43 913 b 158 829 146 903 158 890 l 158 150 b 43 66 158 90 146 77 l 43 0 l 470 0 l 470 66 b 362 146 375 77 362 89 z "},"Ḫ":{"ha":1164,"x_min":0,"x_max":0,"o":"m 362 146 l 362 460 l 802 460 l 802 146 b 695 66 802 87 791 76 l 695 0 l 1121 0 l 1121 66 b 1006 150 1020 76 1006 89 l 1006 829 b 1121 913 1006 890 1020 903 l 1121 979 l 695 979 l 695 913 b 802 833 791 903 802 892 l 802 541 l 362 541 l 362 832 b 470 913 362 890 375 902 l 470 979 l 43 979 l 43 913 b 158 829 146 903 158 890 l 158 150 b 43 66 158 90 146 77 l 43 0 l 470 0 l 470 66 b 362 146 375 77 362 89 z m 584 -315 b 793 -128 718 -315 793 -226 b 790 -92 793 -115 792 -102 l 720 -92 l 720 -98 b 584 -202 720 -155 670 -202 b 448 -98 498 -202 448 -155 l 448 -92 l 378 -92 b 375 -128 376 -103 375 -115 b 584 -315 375 -226 450 -315 z "},"Ḧ":{"ha":1164,"x_min":0,"x_max":0,"o":"m 461 1078 b 547 1162 509 1078 547 1114 b 461 1246 547 1211 509 1246 b 375 1162 413 1246 375 1211 b 461 1078 375 1114 413 1078 z m 707 1078 b 793 1162 755 1078 793 1114 b 707 1246 793 1211 755 1246 b 621 1162 660 1246 621 1211 b 707 1078 621 1114 659 1078 z m 362 146 l 362 460 l 802 460 l 802 146 b 695 66 802 87 791 76 l 695 0 l 1121 0 l 1121 66 b 1006 150 1020 76 1006 89 l 1006 829 b 1121 913 1006 890 1020 903 l 1121 979 l 695 979 l 695 913 b 802 833 791 903 802 892 l 802 541 l 362 541 l 362 832 b 470 913 362 890 375 902 l 470 979 l 43 979 l 43 913 b 158 829 146 903 158 890 l 158 150 b 43 66 158 90 146 77 l 43 0 l 470 0 l 470 66 b 362 146 375 77 362 89 z "},"Ḣ":{"ha":1164,"x_min":0,"x_max":0,"o":"m 584 1076 b 673 1161 633 1076 673 1113 b 584 1246 673 1210 633 1246 b 495 1161 534 1246 495 1210 b 584 1076 495 1113 534 1076 z m 362 146 l 362 460 l 802 460 l 802 146 b 695 66 802 87 791 76 l 695 0 l 1121 0 l 1121 66 b 1006 150 1020 76 1006 89 l 1006 829 b 1121 913 1006 890 1020 903 l 1121 979 l 695 979 l 695 913 b 802 833 791 903 802 892 l 802 541 l 362 541 l 362 832 b 470 913 362 890 375 902 l 470 979 l 43 979 l 43 913 b 158 829 146 903 158 890 l 158 150 b 43 66 158 90 146 77 l 43 0 l 470 0 l 470 66 b 362 146 375 77 362 89 z "},"Ḥ":{"ha":1164,"x_min":0,"x_max":0,"o":"m 362 146 l 362 460 l 802 460 l 802 146 b 695 66 802 87 791 76 l 695 0 l 1121 0 l 1121 66 b 1006 150 1020 76 1006 89 l 1006 829 b 1121 913 1006 890 1020 903 l 1121 979 l 695 979 l 695 913 b 802 833 791 903 802 892 l 802 541 l 362 541 l 362 832 b 470 913 362 890 375 902 l 470 979 l 43 979 l 43 913 b 158 829 146 903 158 890 l 158 150 b 43 66 158 90 146 77 l 43 0 l 470 0 l 470 66 b 362 146 375 77 362 89 z m 584 -119 b 495 -203 534 -119 495 -155 b 584 -288 495 -252 534 -288 b 673 -203 633 -288 673 -252 b 584 -119 673 -155 633 -119 z "},"Ḩ":{"ha":1164,"x_min":0,"x_max":0,"o":"m 362 146 l 362 460 l 802 460 l 802 146 b 695 66 802 87 791 76 l 695 0 l 1121 0 l 1121 66 b 1006 150 1020 76 1006 89 l 1006 829 b 1121 913 1006 890 1020 903 l 1121 979 l 695 979 l 695 913 b 802 833 791 903 802 892 l 802 541 l 362 541 l 362 832 b 470 913 362 890 375 902 l 470 979 l 43 979 l 43 913 b 158 829 146 903 158 890 l 158 150 b 43 66 158 90 146 77 l 43 0 l 222 0 l 145 -96 l 145 -150 b 173 -147 151 -149 163 -147 b 260 -203 224 -147 260 -165 b 184 -255 260 -237 227 -255 b 85 -229 146 -255 109 -245 l 85 -294 b 230 -333 118 -317 168 -333 b 411 -202 323 -333 411 -288 b 248 -73 411 -118 338 -73 l 304 0 l 470 0 l 470 66 b 362 146 375 77 362 89 z "},"Ħ":{"ha":1164,"x_min":0,"x_max":0,"o":"m 362 146 l 362 460 l 802 460 l 802 146 b 695 66 802 87 791 76 l 695 0 l 1121 0 l 1121 66 b 1006 150 1020 76 1006 89 l 1006 717 l 1121 717 l 1121 793 l 1006 793 l 1006 829 b 1121 913 1006 890 1020 903 l 1121 979 l 695 979 l 695 913 b 802 833 791 903 802 892 l 802 793 l 362 793 l 362 832 b 470 913 362 890 375 902 l 470 979 l 43 979 l 43 913 b 158 829 146 903 158 890 l 158 793 l 43 793 l 43 717 l 158 717 l 158 150 b 43 66 158 90 146 77 l 43 0 l 470 0 l 470 66 b 362 146 375 77 362 89 z m 362 541 l 362 717 l 802 717 l 802 541 z "},"I":{"ha":521,"x_min":0,"x_max":0,"o":"m 362 150 l 362 829 b 477 913 362 890 374 903 l 477 979 l 43 979 l 43 913 b 158 829 146 903 158 890 l 158 150 b 43 66 158 90 146 77 l 43 0 l 477 0 l 477 66 b 362 150 374 77 362 90 z "},"Ⅰ":{"ha":521,"x_min":0,"x_max":0,"o":"m 362 150 l 362 829 b 477 913 362 890 374 903 l 477 979 l 43 979 l 43 913 b 158 829 146 903 158 890 l 158 150 b 43 66 158 90 146 77 l 43 0 l 477 0 l 477 66 b 362 150 374 77 362 90 z "},"Ɪ":{"ha":521,"x_min":0,"x_max":0,"o":"m 362 150 l 362 829 b 477 913 362 890 374 903 l 477 979 l 43 979 l 43 913 b 158 829 146 903 158 890 l 158 150 b 43 66 158 90 146 77 l 43 0 l 477 0 l 477 66 b 362 150 374 77 362 90 z "},"Í":{"ha":521,"x_min":0,"x_max":0,"o":"m 248 1061 l 471 1255 l 471 1262 l 271 1262 l 168 1061 z m 362 150 l 362 829 b 477 913 362 890 374 903 l 477 979 l 43 979 l 43 913 b 158 829 146 903 158 890 l 158 150 b 43 66 158 90 146 77 l 43 0 l 477 0 l 477 66 b 362 150 374 77 362 90 z "},"Ì":{"ha":521,"x_min":0,"x_max":0,"o":"m 289 1061 l 370 1061 l 272 1262 l 64 1262 l 64 1255 z m 362 150 l 362 829 b 477 913 362 890 374 903 l 477 979 l 43 979 l 43 913 b 158 829 146 903 158 890 l 158 150 b 43 66 158 90 146 77 l 43 0 l 477 0 l 477 66 b 362 150 374 77 362 90 z "},"Ȉ":{"ha":521,"x_min":0,"x_max":0,"o":"m 128 1262 l -42 1262 l -42 1255 l 144 1061 l 233 1061 z m 386 1262 l 230 1262 l 230 1255 l 344 1061 l 428 1061 z m 362 150 l 362 829 b 477 913 362 890 374 903 l 477 979 l 43 979 l 43 913 b 158 829 146 903 158 890 l 158 150 b 43 66 158 90 146 77 l 43 0 l 477 0 l 477 66 b 362 150 374 77 362 90 z "},"Î":{"ha":521,"x_min":0,"x_max":0,"o":"m 135 1061 l 270 1161 l 404 1061 l 485 1061 l 339 1262 l 201 1262 l 55 1061 z m 362 150 l 362 829 b 477 913 362 890 374 903 l 477 979 l 43 979 l 43 913 b 158 829 146 903 158 890 l 158 150 b 43 66 158 90 146 77 l 43 0 l 477 0 l 477 66 b 362 150 374 77 362 90 z "},"Ǐ":{"ha":521,"x_min":0,"x_max":0,"o":"m 404 1261 l 269 1160 l 136 1261 l 54 1261 l 199 1060 l 338 1060 l 484 1261 z m 362 150 l 362 829 b 477 913 362 890 374 903 l 477 979 l 43 979 l 43 913 b 158 829 146 903 158 890 l 158 150 b 43 66 158 90 146 77 l 43 0 l 477 0 l 477 66 b 362 150 374 77 362 90 z "},"Ĭ":{"ha":521,"x_min":0,"x_max":0,"o":"m 260 1077 b 465 1258 391 1077 465 1164 b 462 1293 465 1271 465 1282 l 393 1293 l 393 1288 b 260 1185 393 1230 344 1185 b 128 1288 178 1185 128 1231 l 128 1293 l 58 1293 b 56 1258 56 1282 56 1271 b 260 1077 56 1164 130 1077 z m 362 150 l 362 829 b 477 913 362 890 374 903 l 477 979 l 43 979 l 43 913 b 158 829 146 903 158 890 l 158 150 b 43 66 158 90 146 77 l 43 0 l 477 0 l 477 66 b 362 150 374 77 362 90 z "},"Ȋ":{"ha":521,"x_min":0,"x_max":0,"o":"m 260 1293 b 56 1112 130 1293 56 1206 b 58 1077 56 1100 56 1088 l 128 1077 l 128 1082 b 260 1185 128 1140 177 1185 b 393 1082 343 1185 393 1140 l 393 1077 l 462 1077 b 465 1112 465 1088 465 1100 b 260 1293 465 1206 391 1293 z m 362 150 l 362 829 b 477 913 362 890 374 903 l 477 979 l 43 979 l 43 913 b 158 829 146 903 158 890 l 158 150 b 43 66 158 90 146 77 l 43 0 l 477 0 l 477 66 b 362 150 374 77 362 90 z "},"Ï":{"ha":521,"x_min":0,"x_max":0,"o":"m 138 1079 b 223 1162 185 1079 223 1114 b 138 1246 223 1211 185 1246 b 52 1162 90 1246 52 1211 b 138 1079 52 1114 90 1079 z m 384 1079 b 469 1162 431 1079 469 1114 b 384 1246 469 1211 431 1246 b 298 1162 336 1246 298 1211 b 384 1079 298 1114 336 1079 z m 362 150 l 362 829 b 477 913 362 890 374 903 l 477 979 l 43 979 l 43 913 b 158 829 146 903 158 890 l 158 150 b 43 66 158 90 146 77 l 43 0 l 477 0 l 477 66 b 362 150 374 77 362 90 z "},"Ḯ":{"ha":521,"x_min":0,"x_max":0,"o":"m 472 1261 l 472 1358 l 50 1263 l 50 1207 z m 149 1050 b 218 1110 187 1050 218 1076 b 149 1170 218 1144 187 1170 l 140 1170 b 70 1110 101 1170 70 1144 b 140 1050 70 1076 101 1050 z m 380 1050 b 450 1110 420 1050 450 1076 b 380 1170 450 1144 420 1170 l 372 1170 b 303 1110 334 1170 303 1144 b 372 1050 303 1076 334 1050 z m 362 150 l 362 829 b 477 913 362 890 374 903 l 477 979 l 43 979 l 43 913 b 158 829 146 903 158 890 l 158 150 b 43 66 158 90 146 77 l 43 0 l 477 0 l 477 66 b 362 150 374 77 362 90 z "},"Ĩ":{"ha":521,"x_min":0,"x_max":0,"o":"m 347 1063 b 475 1261 418 1063 475 1119 l 401 1261 b 357 1177 399 1199 385 1177 b 302 1201 339 1177 323 1186 l 282 1217 b 174 1259 246 1242 216 1259 b 46 1061 104 1259 46 1203 l 121 1061 b 164 1145 123 1123 136 1145 b 219 1120 182 1145 199 1136 l 239 1105 b 347 1063 275 1080 306 1063 z m 362 150 l 362 829 b 477 913 362 890 374 903 l 477 979 l 43 979 l 43 913 b 158 829 146 903 158 890 l 158 150 b 43 66 158 90 146 77 l 43 0 l 477 0 l 477 66 b 362 150 374 77 362 90 z "},"Ḭ":{"ha":521,"x_min":0,"x_max":0,"o":"m 362 150 l 362 829 b 477 913 362 890 374 903 l 477 979 l 43 979 l 43 913 b 158 829 146 903 158 890 l 158 150 b 43 66 158 90 146 77 l 43 0 l 477 0 l 477 66 b 362 150 374 77 362 90 z m 345 -297 b 467 -108 412 -297 467 -244 l 397 -108 b 355 -190 395 -168 382 -190 b 301 -166 337 -190 321 -180 l 281 -151 b 177 -111 248 -127 218 -111 b 55 -300 110 -111 55 -163 l 125 -300 b 166 -218 126 -239 140 -218 b 220 -241 184 -218 201 -227 l 240 -256 b 345 -297 274 -281 304 -297 z "},"Ī":{"ha":521,"x_min":0,"x_max":0,"o":"m 61 1096 l 460 1096 l 460 1196 l 61 1196 z m 362 150 l 362 829 b 477 913 362 890 374 903 l 477 979 l 43 979 l 43 913 b 158 829 146 903 158 890 l 158 150 b 43 66 158 90 146 77 l 43 0 l 477 0 l 477 66 b 362 150 374 77 362 90 z "},"Ỉ":{"ha":521,"x_min":0,"x_max":0,"o":"m 280 1294 b 130 1239 210 1294 157 1266 l 130 1190 b 219 1214 149 1202 182 1214 b 291 1166 264 1214 291 1196 b 199 1067 291 1136 262 1109 l 267 1067 b 414 1198 375 1110 414 1148 b 280 1294 414 1255 361 1294 z m 362 150 l 362 829 b 477 913 362 890 374 903 l 477 979 l 43 979 l 43 913 b 158 829 146 903 158 890 l 158 150 b 43 66 158 90 146 77 l 43 0 l 477 0 l 477 66 b 362 150 374 77 362 90 z "},"İ":{"ha":521,"x_min":0,"x_max":0,"o":"m 260 1077 b 349 1161 310 1077 349 1113 b 260 1246 349 1210 310 1246 b 172 1161 211 1246 172 1210 b 260 1077 172 1113 211 1077 z m 362 150 l 362 829 b 477 913 362 890 374 903 l 477 979 l 43 979 l 43 913 b 158 829 146 903 158 890 l 158 150 b 43 66 158 90 146 77 l 43 0 l 477 0 l 477 66 b 362 150 374 77 362 90 z "},"Ị":{"ha":521,"x_min":0,"x_max":0,"o":"m 362 150 l 362 829 b 477 913 362 890 374 903 l 477 979 l 43 979 l 43 913 b 158 829 146 903 158 890 l 158 150 b 43 66 158 90 146 77 l 43 0 l 477 0 l 477 66 b 362 150 374 77 362 90 z m 260 -119 b 172 -203 212 -119 172 -155 b 260 -288 172 -252 212 -288 b 349 -203 310 -288 349 -252 b 260 -119 349 -155 310 -119 z "},"Į":{"ha":521,"x_min":0,"x_max":0,"o":"m 362 150 l 362 829 b 477 913 362 890 374 903 l 477 979 l 43 979 l 43 913 b 158 829 146 903 158 890 l 158 150 b 43 66 158 90 146 77 l 43 0 l 234 0 b 123 -196 171 -52 123 -124 b 275 -333 123 -281 190 -333 b 416 -281 336 -333 389 -312 l 416 -217 b 362 -233 405 -227 385 -233 b 275 -111 315 -233 275 -184 b 307 0 275 -68 288 -26 l 477 0 l 477 66 b 362 150 374 77 362 90 z "},"J":{"ha":521,"x_min":0,"x_max":0,"o":"m 362 190 l 362 829 b 477 913 362 890 374 903 l 477 979 l 43 979 l 43 913 b 158 829 146 903 158 890 l 158 174 b -24 -233 158 -37 111 -133 l 8 -287 b 362 190 261 -155 362 -58 z "},"Ĵ":{"ha":521,"x_min":0,"x_max":0,"o":"m 134 1061 l 269 1161 l 403 1061 l 485 1061 l 339 1262 l 200 1262 l 54 1061 z m 362 190 l 362 829 b 477 913 362 890 374 903 l 477 979 l 43 979 l 43 913 b 158 829 146 903 158 890 l 158 174 b -24 -233 158 -37 111 -133 l 8 -287 b 362 190 261 -155 362 -58 z "},"K":{"ha":996,"x_min":0,"x_max":0,"o":"m 362 146 l 362 465 l 468 465 l 751 0 l 1001 0 l 1001 62 b 827 256 950 77 918 109 l 612 602 b 750 755 654 651 699 701 b 983 913 853 867 901 901 l 983 979 l 621 979 l 621 913 b 671 795 726 905 739 879 l 465 543 l 362 543 l 362 832 b 470 913 362 890 375 902 l 470 979 l 43 979 l 43 913 b 158 829 146 903 158 890 l 158 150 b 43 66 158 90 146 77 l 43 0 l 470 0 l 470 66 b 362 146 375 77 362 89 z "},"K":{"ha":996,"x_min":0,"x_max":0,"o":"m 362 146 l 362 465 l 468 465 l 751 0 l 1001 0 l 1001 62 b 827 256 950 77 918 109 l 612 602 b 750 755 654 651 699 701 b 983 913 853 867 901 901 l 983 979 l 621 979 l 621 913 b 671 795 726 905 739 879 l 465 543 l 362 543 l 362 832 b 470 913 362 890 375 902 l 470 979 l 43 979 l 43 913 b 158 829 146 903 158 890 l 158 150 b 43 66 158 90 146 77 l 43 0 l 470 0 l 470 66 b 362 146 375 77 362 89 z "},"Ḱ":{"ha":996,"x_min":0,"x_max":0,"o":"m 532 1061 l 755 1255 l 755 1262 l 555 1262 l 451 1061 z m 362 146 l 362 465 l 468 465 l 751 0 l 1001 0 l 1001 62 b 827 256 950 77 918 109 l 612 602 b 750 755 654 651 699 701 b 983 913 853 867 901 901 l 983 979 l 621 979 l 621 913 b 671 795 726 905 739 879 l 465 543 l 362 543 l 362 832 b 470 913 362 890 375 902 l 470 979 l 43 979 l 43 913 b 158 829 146 903 158 890 l 158 150 b 43 66 158 90 146 77 l 43 0 l 470 0 l 470 66 b 362 146 375 77 362 89 z "},"Ǩ":{"ha":996,"x_min":0,"x_max":0,"o":"m 688 1261 l 553 1160 l 420 1261 l 337 1261 l 483 1060 l 621 1060 l 768 1261 z m 362 146 l 362 465 l 468 465 l 751 0 l 1001 0 l 1001 62 b 827 256 950 77 918 109 l 612 602 b 750 755 654 651 699 701 b 983 913 853 867 901 901 l 983 979 l 621 979 l 621 913 b 671 795 726 905 739 879 l 465 543 l 362 543 l 362 832 b 470 913 362 890 375 902 l 470 979 l 43 979 l 43 913 b 158 829 146 903 158 890 l 158 150 b 43 66 158 90 146 77 l 43 0 l 470 0 l 470 66 b 362 146 375 77 362 89 z "},"Ḵ":{"ha":996,"x_min":0,"x_max":0,"o":"m 362 146 l 362 465 l 468 465 l 751 0 l 1001 0 l 1001 62 b 827 256 950 77 918 109 l 612 602 b 750 755 654 651 699 701 b 983 913 853 867 901 901 l 983 979 l 621 979 l 621 913 b 671 795 726 905 739 879 l 465 543 l 362 543 l 362 832 b 470 913 362 890 375 902 l 470 979 l 43 979 l 43 913 b 158 829 146 903 158 890 l 158 150 b 43 66 158 90 146 77 l 43 0 l 470 0 l 470 66 b 362 146 375 77 362 89 z m 356 -252 l 768 -252 l 768 -154 l 356 -154 z "},"Ḳ":{"ha":996,"x_min":0,"x_max":0,"o":"m 362 146 l 362 465 l 468 465 l 751 0 l 1001 0 l 1001 62 b 827 256 950 77 918 109 l 612 602 b 750 755 654 651 699 701 b 983 913 853 867 901 901 l 983 979 l 621 979 l 621 913 b 671 795 726 905 739 879 l 465 543 l 362 543 l 362 832 b 470 913 362 890 375 902 l 470 979 l 43 979 l 43 913 b 158 829 146 903 158 890 l 158 150 b 43 66 158 90 146 77 l 43 0 l 470 0 l 470 66 b 362 146 375 77 362 89 z m 562 -119 b 473 -203 513 -119 473 -155 b 562 -288 473 -252 513 -288 b 651 -203 611 -288 651 -252 b 562 -119 651 -155 612 -119 z "},"Ķ":{"ha":996,"x_min":0,"x_max":0,"o":"m 362 146 l 362 465 l 468 465 l 751 0 l 1001 0 l 1001 62 b 827 256 950 77 918 109 l 612 602 b 750 755 654 651 699 701 b 983 913 853 867 901 901 l 983 979 l 621 979 l 621 913 b 671 795 726 905 739 879 l 465 543 l 362 543 l 362 832 b 470 913 362 890 375 902 l 470 979 l 43 979 l 43 913 b 158 829 146 903 158 890 l 158 150 b 43 66 158 90 146 77 l 43 0 l 470 0 l 470 66 b 362 146 375 77 362 89 z m 548 -333 b 729 -203 657 -333 729 -282 b 574 -73 729 -123 665 -73 b 453 -112 519 -73 472 -91 l 453 -170 b 514 -159 466 -163 490 -159 b 590 -209 557 -159 590 -177 b 510 -261 590 -243 556 -261 b 412 -239 471 -261 435 -252 l 412 -300 b 548 -333 439 -318 489 -333 z "},"L":{"ha":842,"x_min":0,"x_max":0,"o":"m 798 0 l 808 318 l 746 318 b 500 80 699 113 646 85 l 362 76 l 362 825 b 486 913 362 888 377 902 l 486 979 l 43 979 l 43 913 b 158 829 146 903 158 890 l 158 150 b 43 66 158 90 146 77 l 43 0 z "},"Ⅼ":{"ha":842,"x_min":0,"x_max":0,"o":"m 798 0 l 808 318 l 746 318 b 500 80 699 113 646 85 l 362 76 l 362 825 b 486 913 362 888 377 902 l 486 979 l 43 979 l 43 913 b 158 829 146 903 158 890 l 158 150 b 43 66 158 90 146 77 l 43 0 z "},"Ĺ":{"ha":842,"x_min":0,"x_max":0,"o":"m 250 1061 l 473 1255 l 473 1262 l 273 1262 l 169 1061 z m 798 0 l 808 318 l 746 318 b 500 80 699 113 646 85 l 362 76 l 362 825 b 486 913 362 888 377 902 l 486 979 l 43 979 l 43 913 b 158 829 146 903 158 890 l 158 150 b 43 66 158 90 146 77 l 43 0 z "},"Ḽ":{"ha":842,"x_min":0,"x_max":0,"o":"m 798 0 l 808 318 l 746 318 b 500 80 699 113 646 85 l 362 76 l 362 825 b 486 913 362 888 377 902 l 486 979 l 43 979 l 43 913 b 158 829 146 903 158 890 l 158 150 b 43 66 158 90 146 77 l 43 0 z m 292 -321 l 429 -199 l 563 -321 l 642 -321 l 491 -87 l 366 -87 l 214 -321 z "},"Ľ":{"ha":842,"x_min":0,"x_max":0,"o":"m 675 768 l 792 1055 l 642 1055 l 610 768 z m 798 0 l 808 318 l 746 318 b 500 80 699 113 646 85 l 362 76 l 362 825 b 486 913 362 888 377 902 l 486 979 l 43 979 l 43 913 b 158 829 146 903 158 890 l 158 150 b 43 66 158 90 146 77 l 43 0 z "},"Ḻ":{"ha":842,"x_min":0,"x_max":0,"o":"m 798 0 l 808 318 l 746 318 b 500 80 699 113 646 85 l 362 76 l 362 825 b 486 913 362 888 377 902 l 486 979 l 43 979 l 43 913 b 158 829 146 903 158 890 l 158 150 b 43 66 158 90 146 77 l 43 0 z m 222 -252 l 634 -252 l 634 -154 l 222 -154 z "},"Ŀ":{"ha":842,"x_min":0,"x_max":0,"o":"m 798 0 l 808 318 l 746 318 b 500 80 699 113 646 85 l 362 76 l 362 825 b 486 913 362 888 377 902 l 486 979 l 43 979 l 43 913 b 158 829 146 903 158 890 l 158 150 b 43 66 158 90 146 77 l 43 0 z m 667 480 b 771 580 724 480 771 522 b 667 680 771 637 724 680 b 562 580 609 680 562 637 b 667 480 562 522 609 480 z "},"Ḷ":{"ha":842,"x_min":0,"x_max":0,"o":"m 798 0 l 808 318 l 746 318 b 500 80 699 113 646 85 l 362 76 l 362 825 b 486 913 362 888 377 902 l 486 979 l 43 979 l 43 913 b 158 829 146 903 158 890 l 158 150 b 43 66 158 90 146 77 l 43 0 z m 428 -119 b 339 -203 378 -119 339 -155 b 428 -288 339 -252 378 -288 b 517 -203 477 -288 517 -252 b 428 -119 517 -155 477 -119 z "},"Ḹ":{"ha":842,"x_min":0,"x_max":0,"o":"m 62 1096 l 461 1096 l 461 1196 l 62 1196 z m 798 0 l 808 318 l 746 318 b 500 80 699 113 646 85 l 362 76 l 362 825 b 486 913 362 888 377 902 l 486 979 l 43 979 l 43 913 b 158 829 146 903 158 890 l 158 150 b 43 66 158 90 146 77 l 43 0 z m 428 -119 b 339 -203 378 -119 339 -155 b 428 -288 339 -252 378 -288 b 517 -203 477 -288 517 -252 b 428 -119 517 -155 477 -119 z "},"Ļ":{"ha":842,"x_min":0,"x_max":0,"o":"m 798 0 l 808 318 l 746 318 b 500 80 699 113 646 85 l 362 76 l 362 825 b 486 913 362 888 377 902 l 486 979 l 43 979 l 43 913 b 158 829 146 903 158 890 l 158 150 b 43 66 158 90 146 77 l 43 0 z m 414 -333 b 595 -203 524 -333 595 -282 b 441 -73 595 -123 532 -73 b 319 -112 385 -73 338 -91 l 319 -170 b 381 -159 332 -163 357 -159 b 456 -209 423 -159 456 -177 b 376 -261 456 -243 423 -261 b 278 -239 337 -261 302 -252 l 278 -300 b 414 -333 306 -318 355 -333 z "},"Ł":{"ha":842,"x_min":0,"x_max":0,"o":"m 43 404 l 158 437 l 158 150 b 43 66 158 90 146 77 l 43 0 l 798 0 l 808 318 l 746 318 b 500 80 699 113 646 85 l 362 76 l 362 494 l 600 562 l 600 644 l 362 577 l 362 825 b 486 913 362 888 377 902 l 486 979 l 43 979 l 43 913 b 158 829 146 903 158 890 l 158 519 l 43 487 z "},"M":{"ha":1309,"x_min":0,"x_max":0,"o":"m 390 979 l 45 979 l 45 913 b 153 814 140 903 155 886 l 138 156 b 31 66 136 90 125 77 l 31 0 l 348 0 l 348 66 b 239 158 251 77 240 91 l 239 831 l 545 0 l 657 0 l 743 249 l 948 827 l 962 146 b 855 66 964 87 951 76 l 855 0 l 1279 0 l 1279 66 b 1164 150 1177 76 1165 89 l 1149 829 b 1264 913 1148 890 1162 903 l 1264 979 l 909 980 l 661 223 z "},"Ⅿ":{"ha":1309,"x_min":0,"x_max":0,"o":"m 390 979 l 45 979 l 45 913 b 153 814 140 903 155 886 l 138 156 b 31 66 136 90 125 77 l 31 0 l 348 0 l 348 66 b 239 158 251 77 240 91 l 239 831 l 545 0 l 657 0 l 743 249 l 948 827 l 962 146 b 855 66 964 87 951 76 l 855 0 l 1279 0 l 1279 66 b 1164 150 1177 76 1165 89 l 1149 829 b 1264 913 1148 890 1162 903 l 1264 979 l 909 980 l 661 223 z "},"Ḿ":{"ha":1309,"x_min":0,"x_max":0,"o":"m 642 1061 l 865 1255 l 865 1262 l 665 1262 l 561 1061 z m 390 979 l 45 979 l 45 913 b 153 814 140 903 155 886 l 138 156 b 31 66 136 90 125 77 l 31 0 l 348 0 l 348 66 b 239 158 251 77 240 91 l 239 831 l 545 0 l 657 0 l 743 249 l 948 827 l 962 146 b 855 66 964 87 951 76 l 855 0 l 1279 0 l 1279 66 b 1164 150 1177 76 1165 89 l 1149 829 b 1264 913 1148 890 1162 903 l 1264 979 l 909 980 l 661 223 z "},"Ṁ":{"ha":1309,"x_min":0,"x_max":0,"o":"m 654 1077 b 743 1161 704 1077 743 1113 b 654 1246 743 1210 704 1246 b 566 1161 605 1246 566 1210 b 654 1077 566 1113 605 1077 z m 390 979 l 45 979 l 45 913 b 153 814 140 903 155 886 l 138 156 b 31 66 136 90 125 77 l 31 0 l 348 0 l 348 66 b 239 158 251 77 240 91 l 239 831 l 545 0 l 657 0 l 743 249 l 948 827 l 962 146 b 855 66 964 87 951 76 l 855 0 l 1279 0 l 1279 66 b 1164 150 1177 76 1165 89 l 1149 829 b 1264 913 1148 890 1162 903 l 1264 979 l 909 980 l 661 223 z "},"Ṃ":{"ha":1309,"x_min":0,"x_max":0,"o":"m 390 979 l 45 979 l 45 913 b 153 814 140 903 155 886 l 138 156 b 31 66 136 90 125 77 l 31 0 l 348 0 l 348 66 b 239 158 251 77 240 91 l 239 831 l 545 0 l 657 0 l 743 249 l 948 827 l 962 146 b 855 66 964 87 951 76 l 855 0 l 1279 0 l 1279 66 b 1164 150 1177 76 1165 89 l 1149 829 b 1264 913 1148 890 1162 903 l 1264 979 l 909 980 l 661 223 z m 600 -119 b 511 -203 551 -119 511 -155 b 600 -288 511 -252 551 -288 b 689 -203 649 -288 689 -252 b 600 -119 689 -155 650 -119 z "},"N":{"ha":1088,"x_min":0,"x_max":0,"o":"m 358 979 l 29 979 l 29 913 b 137 814 125 901 137 886 l 134 156 b 26 66 134 92 123 79 l 26 0 l 350 0 l 350 66 b 236 157 250 77 237 90 l 223 802 l 728 0 l 949 0 l 954 823 b 1062 913 955 888 966 901 l 1062 979 l 739 979 l 739 913 b 852 822 840 903 852 890 l 865 175 z "},"Ń":{"ha":1088,"x_min":0,"x_max":0,"o":"m 549 1061 l 771 1255 l 771 1262 l 572 1262 l 467 1061 z m 358 979 l 29 979 l 29 913 b 137 814 125 901 137 886 l 134 156 b 26 66 134 92 123 79 l 26 0 l 350 0 l 350 66 b 236 157 250 77 237 90 l 223 802 l 728 0 l 949 0 l 954 823 b 1062 913 955 888 966 901 l 1062 979 l 739 979 l 739 913 b 852 822 840 903 852 890 l 865 175 z "},"Ǹ":{"ha":1088,"x_min":0,"x_max":0,"o":"m 589 1061 l 670 1061 l 572 1262 l 364 1262 l 364 1255 z m 358 979 l 29 979 l 29 913 b 137 814 125 901 137 886 l 134 156 b 26 66 134 92 123 79 l 26 0 l 350 0 l 350 66 b 236 157 250 77 237 90 l 223 802 l 728 0 l 949 0 l 954 823 b 1062 913 955 888 966 901 l 1062 979 l 739 979 l 739 913 b 852 822 840 903 852 890 l 865 175 z "},"Ṋ":{"ha":1088,"x_min":0,"x_max":0,"o":"m 358 979 l 29 979 l 29 913 b 137 814 125 901 137 886 l 134 156 b 26 66 134 92 123 79 l 26 0 l 350 0 l 350 66 b 236 157 250 77 237 90 l 223 802 l 728 0 l 949 0 l 954 823 b 1062 913 955 888 966 901 l 1062 979 l 739 979 l 739 913 b 852 822 840 903 852 890 l 865 175 z m 396 -321 l 533 -199 l 668 -321 l 747 -321 l 595 -87 l 470 -87 l 319 -321 z "},"Ň":{"ha":1088,"x_min":0,"x_max":0,"o":"m 704 1261 l 569 1160 l 436 1261 l 353 1261 l 499 1060 l 638 1060 l 784 1261 z m 358 979 l 29 979 l 29 913 b 137 814 125 901 137 886 l 134 156 b 26 66 134 92 123 79 l 26 0 l 350 0 l 350 66 b 236 157 250 77 237 90 l 223 802 l 728 0 l 949 0 l 954 823 b 1062 913 955 888 966 901 l 1062 979 l 739 979 l 739 913 b 852 822 840 903 852 890 l 865 175 z "},"Ñ":{"ha":1088,"x_min":0,"x_max":0,"o":"m 648 1063 b 775 1261 718 1063 775 1119 l 701 1261 b 658 1177 699 1199 686 1177 b 602 1201 639 1177 623 1186 l 582 1217 b 474 1259 546 1242 515 1259 b 347 1061 404 1259 347 1203 l 421 1061 b 464 1145 422 1123 436 1145 b 519 1120 483 1145 498 1136 l 540 1105 b 648 1063 576 1080 606 1063 z m 358 979 l 29 979 l 29 913 b 137 814 125 901 137 886 l 134 156 b 26 66 134 92 123 79 l 26 0 l 350 0 l 350 66 b 236 157 250 77 237 90 l 223 802 l 728 0 l 949 0 l 954 823 b 1062 913 955 888 966 901 l 1062 979 l 739 979 l 739 913 b 852 822 840 903 852 890 l 865 175 z "},"Ṉ":{"ha":1088,"x_min":0,"x_max":0,"o":"m 358 979 l 29 979 l 29 913 b 137 814 125 901 137 886 l 134 156 b 26 66 134 92 123 79 l 26 0 l 350 0 l 350 66 b 236 157 250 77 237 90 l 223 802 l 728 0 l 949 0 l 954 823 b 1062 913 955 888 966 901 l 1062 979 l 739 979 l 739 913 b 852 822 840 903 852 890 l 865 175 z m 327 -252 l 739 -252 l 739 -154 l 327 -154 z "},"Ṅ":{"ha":1088,"x_min":0,"x_max":0,"o":"m 560 1077 b 649 1161 610 1077 649 1113 b 560 1246 649 1210 610 1246 b 472 1161 511 1246 472 1210 b 560 1077 472 1113 511 1077 z m 358 979 l 29 979 l 29 913 b 137 814 125 901 137 886 l 134 156 b 26 66 134 92 123 79 l 26 0 l 350 0 l 350 66 b 236 157 250 77 237 90 l 223 802 l 728 0 l 949 0 l 954 823 b 1062 913 955 888 966 901 l 1062 979 l 739 979 l 739 913 b 852 822 840 903 852 890 l 865 175 z "},"Ṇ":{"ha":1088,"x_min":0,"x_max":0,"o":"m 358 979 l 29 979 l 29 913 b 137 814 125 901 137 886 l 134 156 b 26 66 134 92 123 79 l 26 0 l 350 0 l 350 66 b 236 157 250 77 237 90 l 223 802 l 728 0 l 949 0 l 954 823 b 1062 913 955 888 966 901 l 1062 979 l 739 979 l 739 913 b 852 822 840 903 852 890 l 865 175 z m 533 -119 b 444 -203 484 -119 444 -155 b 533 -288 444 -252 484 -288 b 622 -203 582 -288 622 -252 b 533 -119 622 -155 583 -119 z "},"Ņ":{"ha":1088,"x_min":0,"x_max":0,"o":"m 358 979 l 29 979 l 29 913 b 137 814 125 901 137 886 l 134 156 b 26 66 134 92 123 79 l 26 0 l 350 0 l 350 66 b 236 157 250 77 237 90 l 223 802 l 728 0 l 949 0 l 954 823 b 1062 913 955 888 966 901 l 1062 979 l 739 979 l 739 913 b 852 822 840 903 852 890 l 865 175 z m 518 -333 b 700 -203 628 -333 700 -282 b 545 -73 700 -123 636 -73 b 424 -112 489 -73 443 -91 l 424 -170 b 485 -159 437 -163 461 -159 b 561 -209 528 -159 561 -177 b 481 -261 561 -243 527 -261 b 382 -239 441 -261 406 -252 l 382 -300 b 518 -333 410 -318 460 -333 z "},"O":{"ha":1160,"x_min":0,"x_max":0,"o":"m 67 489 b 578 -21 67 175 304 -21 b 1093 490 890 -21 1093 203 b 581 1000 1093 804 855 1000 b 67 489 270 1000 67 776 z m 294 502 b 572 909 294 728 376 909 b 866 477 755 909 866 713 b 587 70 866 252 785 70 b 294 502 404 70 294 267 z "},"Ó":{"ha":1160,"x_min":0,"x_max":0,"o":"m 564 1061 l 787 1255 l 787 1262 l 587 1262 l 483 1061 z m 67 489 b 578 -21 67 175 304 -21 b 1093 490 890 -21 1093 203 b 581 1000 1093 804 855 1000 b 67 489 270 1000 67 776 z m 294 502 b 572 909 294 728 376 909 b 866 477 755 909 866 713 b 587 70 866 252 785 70 b 294 502 404 70 294 267 z "},"Ò":{"ha":1160,"x_min":0,"x_max":0,"o":"m 605 1061 l 686 1061 l 587 1262 l 380 1262 l 380 1255 z m 67 489 b 578 -21 67 175 304 -21 b 1093 490 890 -21 1093 203 b 581 1000 1093 804 855 1000 b 67 489 270 1000 67 776 z m 294 502 b 572 909 294 728 376 909 b 866 477 755 909 866 713 b 587 70 866 252 785 70 b 294 502 404 70 294 267 z "},"Ő":{"ha":1160,"x_min":0,"x_max":0,"o":"m 472 1262 l 430 1061 l 513 1061 l 629 1255 l 629 1262 z m 729 1262 l 624 1061 l 713 1061 l 900 1255 l 900 1262 z m 67 489 b 578 -21 67 175 304 -21 b 1093 490 890 -21 1093 203 b 581 1000 1093 804 855 1000 b 67 489 270 1000 67 776 z m 294 502 b 572 909 294 728 376 909 b 866 477 755 909 866 713 b 587 70 866 252 785 70 b 294 502 404 70 294 267 z "},"Ȍ":{"ha":1160,"x_min":0,"x_max":0,"o":"m 444 1262 l 274 1262 l 274 1255 l 460 1061 l 549 1061 z m 702 1262 l 546 1262 l 546 1255 l 660 1061 l 743 1061 z m 67 489 b 578 -21 67 175 304 -21 b 1093 490 890 -21 1093 203 b 581 1000 1093 804 855 1000 b 67 489 270 1000 67 776 z m 294 502 b 572 909 294 728 376 909 b 866 477 755 909 866 713 b 587 70 866 252 785 70 b 294 502 404 70 294 267 z "},"Ô":{"ha":1160,"x_min":0,"x_max":0,"o":"m 450 1061 l 586 1161 l 719 1061 l 801 1061 l 655 1262 l 517 1262 l 371 1061 z m 67 489 b 578 -21 67 175 304 -21 b 1093 490 890 -21 1093 203 b 581 1000 1093 804 855 1000 b 67 489 270 1000 67 776 z m 294 502 b 572 909 294 728 376 909 b 866 477 755 909 866 713 b 587 70 866 252 785 70 b 294 502 404 70 294 267 z "},"Ố":{"ha":1160,"x_min":0,"x_max":0,"o":"m 788 1247 l 788 1344 l 365 1249 l 365 1193 z m 365 1010 l 576 1072 l 787 1010 l 787 1067 l 597 1166 l 555 1166 l 366 1067 z m 67 489 b 578 -21 67 175 304 -21 b 1093 490 890 -21 1093 203 b 581 1000 1093 804 855 1000 b 67 489 270 1000 67 776 z m 294 502 b 572 909 294 728 376 909 b 866 477 755 909 866 713 b 587 70 866 252 785 70 b 294 502 404 70 294 267 z "},"Ồ":{"ha":1160,"x_min":0,"x_max":0,"o":"m 364 1247 l 787 1193 l 787 1249 l 364 1344 z m 365 1010 l 576 1072 l 787 1010 l 787 1067 l 597 1166 l 555 1166 l 366 1067 z m 67 489 b 578 -21 67 175 304 -21 b 1093 490 890 -21 1093 203 b 581 1000 1093 804 855 1000 b 67 489 270 1000 67 776 z m 294 502 b 572 909 294 728 376 909 b 866 477 755 909 866 713 b 587 70 866 252 785 70 b 294 502 404 70 294 267 z "},"Ỗ":{"ha":1160,"x_min":0,"x_max":0,"o":"m 664 1208 b 788 1333 735 1208 788 1251 l 713 1333 b 667 1291 713 1303 695 1291 b 606 1304 650 1291 632 1295 l 583 1311 b 488 1329 552 1322 523 1329 b 365 1204 418 1329 365 1287 l 439 1204 b 485 1246 439 1234 457 1246 b 547 1234 503 1246 521 1242 l 570 1226 b 664 1208 600 1215 630 1208 z m 365 1010 l 576 1072 l 787 1010 l 787 1067 l 597 1166 l 555 1166 l 366 1067 z m 67 489 b 578 -21 67 175 304 -21 b 1093 490 890 -21 1093 203 b 581 1000 1093 804 855 1000 b 67 489 270 1000 67 776 z m 294 502 b 572 909 294 728 376 909 b 866 477 755 909 866 713 b 587 70 866 252 785 70 b 294 502 404 70 294 267 z "},"Ổ":{"ha":1160,"x_min":0,"x_max":0,"o":"m 749 1328 b 623 1293 698 1328 650 1312 l 623 1247 b 709 1265 642 1256 677 1265 b 781 1227 755 1265 781 1250 b 701 1178 781 1204 756 1190 l 757 1143 b 889 1244 838 1162 889 1190 b 749 1328 889 1297 825 1328 z m 365 1010 l 576 1072 l 787 1010 l 787 1067 l 597 1166 l 555 1166 l 366 1067 z m 67 489 b 578 -21 67 175 304 -21 b 1093 490 890 -21 1093 203 b 581 1000 1093 804 855 1000 b 67 489 270 1000 67 776 z m 294 502 b 572 909 294 728 376 909 b 866 477 755 909 866 713 b 587 70 866 252 785 70 b 294 502 404 70 294 267 z "},"Ộ":{"ha":1160,"x_min":0,"x_max":0,"o":"m 450 1061 l 586 1161 l 719 1061 l 801 1061 l 655 1262 l 517 1262 l 371 1061 z m 67 489 b 578 -21 67 175 304 -21 b 1093 490 890 -21 1093 203 b 581 1000 1093 804 855 1000 b 67 489 270 1000 67 776 z m 294 502 b 572 909 294 728 376 909 b 866 477 755 909 866 713 b 587 70 866 252 785 70 b 294 502 404 70 294 267 z m 583 -119 b 494 -203 534 -119 494 -155 b 583 -288 494 -252 534 -288 b 672 -203 633 -288 672 -252 b 583 -119 672 -155 633 -119 z "},"Ǒ":{"ha":1160,"x_min":0,"x_max":0,"o":"m 720 1261 l 585 1160 l 452 1261 l 369 1261 l 515 1060 l 654 1060 l 800 1261 z m 67 489 b 578 -21 67 175 304 -21 b 1093 490 890 -21 1093 203 b 581 1000 1093 804 855 1000 b 67 489 270 1000 67 776 z m 294 502 b 572 909 294 728 376 909 b 866 477 755 909 866 713 b 587 70 866 252 785 70 b 294 502 404 70 294 267 z "},"Ŏ":{"ha":1160,"x_min":0,"x_max":0,"o":"m 576 1077 b 781 1258 707 1077 781 1164 b 778 1293 781 1271 780 1282 l 708 1293 l 708 1288 b 576 1185 708 1230 659 1185 b 444 1288 493 1185 444 1231 l 444 1293 l 374 1293 b 371 1258 372 1282 371 1271 b 576 1077 371 1164 446 1077 z m 67 489 b 578 -21 67 175 304 -21 b 1093 490 890 -21 1093 203 b 581 1000 1093 804 855 1000 b 67 489 270 1000 67 776 z m 294 502 b 572 909 294 728 376 909 b 866 477 755 909 866 713 b 587 70 866 252 785 70 b 294 502 404 70 294 267 z "},"Ȏ":{"ha":1160,"x_min":0,"x_max":0,"o":"m 576 1293 b 371 1112 446 1293 371 1206 b 374 1077 371 1100 372 1088 l 444 1077 l 444 1082 b 576 1185 444 1140 493 1185 b 708 1082 659 1185 708 1140 l 708 1077 l 778 1077 b 781 1112 780 1088 781 1100 b 576 1293 781 1206 707 1293 z m 67 489 b 578 -21 67 175 304 -21 b 1093 490 890 -21 1093 203 b 581 1000 1093 804 855 1000 b 67 489 270 1000 67 776 z m 294 502 b 572 909 294 728 376 909 b 866 477 755 909 866 713 b 587 70 866 252 785 70 b 294 502 404 70 294 267 z "},"Ö":{"ha":1160,"x_min":0,"x_max":0,"o":"m 453 1079 b 539 1162 501 1079 539 1114 b 453 1246 539 1211 501 1246 b 368 1162 406 1246 368 1211 b 453 1079 368 1114 406 1079 z m 699 1079 b 785 1162 747 1079 785 1114 b 699 1246 785 1211 747 1246 b 614 1162 652 1246 614 1211 b 699 1079 614 1114 652 1079 z m 67 489 b 578 -21 67 175 304 -21 b 1093 490 890 -21 1093 203 b 581 1000 1093 804 855 1000 b 67 489 270 1000 67 776 z m 294 502 b 572 909 294 728 376 909 b 866 477 755 909 866 713 b 587 70 866 252 785 70 b 294 502 404 70 294 267 z "},"Ȫ":{"ha":1160,"x_min":0,"x_max":0,"o":"m 364 1244 l 787 1244 l 787 1320 l 364 1320 z m 465 1050 b 534 1110 503 1050 534 1076 b 465 1170 534 1144 503 1170 l 456 1170 b 386 1110 416 1170 386 1144 b 456 1050 386 1076 416 1050 z m 696 1050 b 766 1110 736 1050 766 1076 b 696 1170 766 1144 736 1170 l 688 1170 b 618 1110 649 1170 618 1144 b 688 1050 618 1076 649 1050 z m 67 489 b 578 -21 67 175 304 -21 b 1093 490 890 -21 1093 203 b 581 1000 1093 804 855 1000 b 67 489 270 1000 67 776 z m 294 502 b 572 909 294 728 376 909 b 866 477 755 909 866 713 b 587 70 866 252 785 70 b 294 502 404 70 294 267 z "},"Õ":{"ha":1160,"x_min":0,"x_max":0,"o":"m 663 1063 b 791 1261 734 1063 791 1119 l 716 1261 b 673 1177 714 1199 701 1177 b 618 1201 654 1177 639 1186 l 597 1217 b 490 1259 562 1242 531 1259 b 362 1061 419 1259 362 1203 l 437 1061 b 479 1145 439 1123 452 1145 b 535 1120 498 1145 514 1136 l 555 1105 b 663 1063 591 1080 621 1063 z m 67 489 b 578 -21 67 175 304 -21 b 1093 490 890 -21 1093 203 b 581 1000 1093 804 855 1000 b 67 489 270 1000 67 776 z m 294 502 b 572 909 294 728 376 909 b 866 477 755 909 866 713 b 587 70 866 252 785 70 b 294 502 404 70 294 267 z "},"Ṍ":{"ha":1160,"x_min":0,"x_max":0,"o":"m 788 1261 l 788 1358 l 365 1263 l 365 1207 z m 664 1050 b 788 1175 735 1050 788 1092 l 713 1175 b 667 1133 713 1145 695 1133 b 606 1145 650 1133 632 1137 l 583 1153 b 488 1171 552 1164 523 1171 b 365 1046 418 1171 365 1128 l 439 1046 b 485 1088 439 1076 457 1088 b 547 1075 503 1088 521 1084 l 570 1068 b 664 1050 600 1058 630 1050 z m 67 489 b 578 -21 67 175 304 -21 b 1093 490 890 -21 1093 203 b 581 1000 1093 804 855 1000 b 67 489 270 1000 67 776 z m 294 502 b 572 909 294 728 376 909 b 866 477 755 909 866 713 b 587 70 866 252 785 70 b 294 502 404 70 294 267 z "},"Ṏ":{"ha":1160,"x_min":0,"x_max":0,"o":"m 465 1223 b 534 1282 503 1223 534 1248 b 465 1342 534 1316 503 1342 l 456 1342 b 386 1282 416 1342 386 1316 b 456 1223 386 1248 416 1223 z m 696 1223 b 766 1282 736 1223 766 1248 b 696 1342 766 1316 736 1342 l 688 1342 b 618 1282 649 1342 618 1316 b 688 1223 618 1248 649 1223 z m 664 1050 b 788 1175 735 1050 788 1092 l 713 1175 b 667 1133 713 1145 695 1133 b 606 1145 650 1133 632 1137 l 583 1153 b 488 1171 552 1164 523 1171 b 365 1046 418 1171 365 1128 l 439 1046 b 485 1088 439 1076 457 1088 b 547 1075 503 1088 521 1084 l 570 1068 b 664 1050 600 1058 630 1050 z m 67 489 b 578 -21 67 175 304 -21 b 1093 490 890 -21 1093 203 b 581 1000 1093 804 855 1000 b 67 489 270 1000 67 776 z m 294 502 b 572 909 294 728 376 909 b 866 477 755 909 866 713 b 587 70 866 252 785 70 b 294 502 404 70 294 267 z "},"Ȭ":{"ha":1160,"x_min":0,"x_max":0,"o":"m 364 1244 l 787 1244 l 787 1320 l 364 1320 z m 664 1050 b 788 1175 735 1050 788 1092 l 713 1175 b 667 1133 713 1145 695 1133 b 606 1145 650 1133 632 1137 l 583 1153 b 488 1171 552 1164 523 1171 b 365 1046 418 1171 365 1128 l 439 1046 b 485 1088 439 1076 457 1088 b 547 1075 503 1088 521 1084 l 570 1068 b 664 1050 600 1058 630 1050 z m 67 489 b 578 -21 67 175 304 -21 b 1093 490 890 -21 1093 203 b 581 1000 1093 804 855 1000 b 67 489 270 1000 67 776 z m 294 502 b 572 909 294 728 376 909 b 866 477 755 909 866 713 b 587 70 866 252 785 70 b 294 502 404 70 294 267 z "},"Ō":{"ha":1160,"x_min":0,"x_max":0,"o":"m 376 1096 l 776 1096 l 776 1196 l 376 1196 z m 67 489 b 578 -21 67 175 304 -21 b 1093 490 890 -21 1093 203 b 581 1000 1093 804 855 1000 b 67 489 270 1000 67 776 z m 294 502 b 572 909 294 728 376 909 b 866 477 755 909 866 713 b 587 70 866 252 785 70 b 294 502 404 70 294 267 z "},"Ṓ":{"ha":1160,"x_min":0,"x_max":0,"o":"m 788 1261 l 788 1358 l 365 1263 l 365 1207 z m 364 1072 l 787 1072 l 787 1149 l 364 1149 z m 67 489 b 578 -21 67 175 304 -21 b 1093 490 890 -21 1093 203 b 581 1000 1093 804 855 1000 b 67 489 270 1000 67 776 z m 294 502 b 572 909 294 728 376 909 b 866 477 755 909 866 713 b 587 70 866 252 785 70 b 294 502 404 70 294 267 z "},"Ṑ":{"ha":1160,"x_min":0,"x_max":0,"o":"m 364 1261 l 787 1207 l 787 1263 l 364 1358 z m 364 1072 l 787 1072 l 787 1149 l 364 1149 z m 67 489 b 578 -21 67 175 304 -21 b 1093 490 890 -21 1093 203 b 581 1000 1093 804 855 1000 b 67 489 270 1000 67 776 z m 294 502 b 572 909 294 728 376 909 b 866 477 755 909 866 713 b 587 70 866 252 785 70 b 294 502 404 70 294 267 z "},"Ỏ":{"ha":1160,"x_min":0,"x_max":0,"o":"m 595 1294 b 446 1239 525 1294 473 1266 l 446 1190 b 534 1214 465 1202 498 1214 b 607 1166 580 1214 607 1196 b 514 1067 607 1136 578 1109 l 583 1067 b 730 1198 690 1110 730 1148 b 595 1294 730 1255 677 1294 z m 67 489 b 578 -21 67 175 304 -21 b 1093 490 890 -21 1093 203 b 581 1000 1093 804 855 1000 b 67 489 270 1000 67 776 z m 294 502 b 572 909 294 728 376 909 b 866 477 755 909 866 713 b 587 70 866 252 785 70 b 294 502 404 70 294 267 z "},"Ȯ":{"ha":1160,"x_min":0,"x_max":0,"o":"m 576 1077 b 665 1161 625 1077 665 1113 b 576 1246 665 1210 625 1246 b 488 1161 527 1246 488 1210 b 576 1077 488 1113 527 1077 z m 67 489 b 578 -21 67 175 304 -21 b 1093 490 890 -21 1093 203 b 581 1000 1093 804 855 1000 b 67 489 270 1000 67 776 z m 294 502 b 572 909 294 728 376 909 b 866 477 755 909 866 713 b 587 70 866 252 785 70 b 294 502 404 70 294 267 z "},"Ȱ":{"ha":1160,"x_min":0,"x_max":0,"o":"m 364 1227 l 787 1227 l 787 1303 l 364 1303 z m 576 1044 b 652 1110 618 1044 652 1072 b 576 1177 652 1148 618 1177 b 500 1110 534 1177 500 1148 b 576 1044 500 1072 534 1044 z m 67 489 b 578 -21 67 175 304 -21 b 1093 490 890 -21 1093 203 b 581 1000 1093 804 855 1000 b 67 489 270 1000 67 776 z m 294 502 b 572 909 294 728 376 909 b 866 477 755 909 866 713 b 587 70 866 252 785 70 b 294 502 404 70 294 267 z "},"Ọ":{"ha":1160,"x_min":0,"x_max":0,"o":"m 67 489 b 578 -21 67 175 304 -21 b 1093 490 890 -21 1093 203 b 581 1000 1093 804 855 1000 b 67 489 270 1000 67 776 z m 294 502 b 572 909 294 728 376 909 b 866 477 755 909 866 713 b 587 70 866 252 785 70 b 294 502 404 70 294 267 z m 583 -119 b 494 -203 534 -119 494 -155 b 583 -288 494 -252 534 -288 b 672 -203 633 -288 672 -252 b 583 -119 672 -155 633 -119 z "},"Ǫ":{"ha":1160,"x_min":0,"x_max":0,"o":"m 67 489 b 544 -20 67 189 286 -5 b 447 -196 488 -69 447 -134 b 598 -333 447 -281 513 -333 b 739 -281 659 -333 712 -312 l 739 -217 b 686 -233 728 -227 707 -233 b 599 -116 637 -233 599 -186 b 624 -20 599 -80 608 -45 b 1093 490 910 1 1093 218 b 581 1000 1093 804 855 1000 b 67 489 270 1000 67 776 z m 294 502 b 572 909 294 728 376 909 b 866 477 755 909 866 713 b 587 70 866 252 785 70 b 294 502 404 70 294 267 z "},"Ǭ":{"ha":1160,"x_min":0,"x_max":0,"o":"m 376 1096 l 776 1096 l 776 1196 l 376 1196 z m 67 489 b 544 -20 67 189 286 -5 b 447 -196 488 -69 447 -134 b 598 -333 447 -281 513 -333 b 739 -281 659 -333 712 -312 l 739 -217 b 686 -233 728 -227 707 -233 b 599 -116 637 -233 599 -186 b 624 -20 599 -80 608 -45 b 1093 490 910 1 1093 218 b 581 1000 1093 804 855 1000 b 67 489 270 1000 67 776 z m 294 502 b 572 909 294 728 376 909 b 866 477 755 909 866 713 b 587 70 866 252 785 70 b 294 502 404 70 294 267 z "},"Ơ":{"ha":1175,"x_min":0,"x_max":0,"o":"m 67 489 b 578 -21 67 175 304 -21 b 1093 490 890 -21 1093 203 b 854 929 1093 687 997 844 b 906 924 870 926 888 924 b 1107 1057 1025 924 1107 965 b 1005 1224 1107 1122 1062 1185 l 941 1224 b 964 1128 954 1204 964 1162 b 821 984 964 1043 919 984 b 581 1000 753 984 678 1000 b 67 489 270 1000 67 776 z m 294 502 b 572 909 294 728 376 909 b 866 477 755 909 866 713 b 587 70 866 252 785 70 b 294 502 404 70 294 267 z "},"Ớ":{"ha":1175,"x_min":0,"x_max":0,"o":"m 568 1061 l 790 1255 l 790 1262 l 591 1262 l 486 1061 z m 67 489 b 578 -21 67 175 304 -21 b 1093 490 890 -21 1093 203 b 854 929 1093 687 997 844 b 906 924 870 926 888 924 b 1107 1057 1025 924 1107 965 b 1005 1224 1107 1122 1062 1185 l 941 1224 b 964 1128 954 1204 964 1162 b 821 984 964 1043 919 984 b 581 1000 753 984 678 1000 b 67 489 270 1000 67 776 z m 294 502 b 572 909 294 728 376 909 b 866 477 755 909 866 713 b 587 70 866 252 785 70 b 294 502 404 70 294 267 z "},"Ờ":{"ha":1175,"x_min":0,"x_max":0,"o":"m 608 1061 l 689 1061 l 591 1262 l 383 1262 l 383 1255 z m 67 489 b 578 -21 67 175 304 -21 b 1093 490 890 -21 1093 203 b 854 929 1093 687 997 844 b 906 924 870 926 888 924 b 1107 1057 1025 924 1107 965 b 1005 1224 1107 1122 1062 1185 l 941 1224 b 964 1128 954 1204 964 1162 b 821 984 964 1043 919 984 b 581 1000 753 984 678 1000 b 67 489 270 1000 67 776 z m 294 502 b 572 909 294 728 376 909 b 866 477 755 909 866 713 b 587 70 866 252 785 70 b 294 502 404 70 294 267 z "},"Ỡ":{"ha":1175,"x_min":0,"x_max":0,"o":"m 667 1063 b 794 1261 737 1063 794 1119 l 720 1261 b 677 1177 718 1199 705 1177 b 621 1201 658 1177 642 1186 l 601 1217 b 493 1259 565 1242 534 1259 b 366 1061 422 1259 366 1203 l 440 1061 b 483 1145 442 1123 455 1145 b 538 1120 502 1145 517 1136 l 559 1105 b 667 1063 595 1080 625 1063 z m 67 489 b 578 -21 67 175 304 -21 b 1093 490 890 -21 1093 203 b 854 929 1093 687 997 844 b 906 924 870 926 888 924 b 1107 1057 1025 924 1107 965 b 1005 1224 1107 1122 1062 1185 l 941 1224 b 964 1128 954 1204 964 1162 b 821 984 964 1043 919 984 b 581 1000 753 984 678 1000 b 67 489 270 1000 67 776 z m 294 502 b 572 909 294 728 376 909 b 866 477 755 909 866 713 b 587 70 866 252 785 70 b 294 502 404 70 294 267 z "},"Ở":{"ha":1175,"x_min":0,"x_max":0,"o":"m 599 1294 b 449 1239 528 1294 477 1266 l 449 1190 b 538 1214 468 1202 501 1214 b 610 1166 583 1214 610 1196 b 517 1067 610 1136 582 1109 l 587 1067 b 733 1198 694 1110 733 1148 b 599 1294 733 1255 680 1294 z m 67 489 b 578 -21 67 175 304 -21 b 1093 490 890 -21 1093 203 b 854 929 1093 687 997 844 b 906 924 870 926 888 924 b 1107 1057 1025 924 1107 965 b 1005 1224 1107 1122 1062 1185 l 941 1224 b 964 1128 954 1204 964 1162 b 821 984 964 1043 919 984 b 581 1000 753 984 678 1000 b 67 489 270 1000 67 776 z m 294 502 b 572 909 294 728 376 909 b 866 477 755 909 866 713 b 587 70 866 252 785 70 b 294 502 404 70 294 267 z "},"Ợ":{"ha":1175,"x_min":0,"x_max":0,"o":"m 67 489 b 578 -21 67 175 304 -21 b 1093 490 890 -21 1093 203 b 854 929 1093 687 997 844 b 906 924 870 926 888 924 b 1107 1057 1025 924 1107 965 b 1005 1224 1107 1122 1062 1185 l 941 1224 b 964 1128 954 1204 964 1162 b 821 984 964 1043 919 984 b 581 1000 753 984 678 1000 b 67 489 270 1000 67 776 z m 294 502 b 572 909 294 728 376 909 b 866 477 755 909 866 713 b 587 70 866 252 785 70 b 294 502 404 70 294 267 z m 579 -119 b 490 -203 530 -119 490 -155 b 579 -288 490 -252 530 -288 b 667 -203 628 -288 667 -252 b 579 -119 667 -155 628 -119 z "},"Ø":{"ha":1160,"x_min":0,"x_max":0,"o":"m 67 489 b 201 135 67 342 119 222 l 115 40 l 174 -16 l 262 81 b 578 -21 350 15 460 -21 b 1093 490 890 -21 1093 203 b 958 844 1093 637 1041 758 l 1045 940 l 986 995 l 898 898 b 581 1000 810 964 699 1000 b 67 489 270 1000 67 776 z m 294 502 b 572 909 294 728 376 909 b 789 779 665 909 739 859 l 332 278 b 294 502 307 344 294 420 z m 866 477 b 587 70 866 252 785 70 b 370 200 495 70 421 120 l 827 701 b 866 477 852 636 866 559 z "},"Ǿ":{"ha":1160,"x_min":0,"x_max":0,"o":"m 564 1061 l 787 1255 l 787 1262 l 587 1262 l 483 1061 z m 67 489 b 201 135 67 342 119 222 l 115 40 l 174 -16 l 262 81 b 578 -21 350 15 460 -21 b 1093 490 890 -21 1093 203 b 958 844 1093 637 1041 758 l 1045 940 l 986 995 l 898 898 b 581 1000 810 964 699 1000 b 67 489 270 1000 67 776 z m 294 502 b 572 909 294 728 376 909 b 789 779 665 909 739 859 l 332 278 b 294 502 307 344 294 420 z m 866 477 b 587 70 866 252 785 70 b 370 200 495 70 421 120 l 827 701 b 866 477 852 636 866 559 z "},"P":{"ha":949,"x_min":0,"x_max":0,"o":"m 901 684 b 479 979 901 881 741 979 l 43 979 l 43 913 b 158 829 146 903 158 890 l 158 150 b 43 66 158 90 146 77 l 43 0 l 486 0 l 486 66 b 362 159 377 77 362 94 l 362 370 l 479 370 b 901 684 731 370 901 482 z m 684 673 b 419 448 684 529 595 456 l 362 446 l 362 903 l 419 901 b 684 673 598 894 684 813 z "},"Ṕ":{"ha":949,"x_min":0,"x_max":0,"o":"m 452 1061 l 675 1255 l 675 1262 l 476 1262 l 372 1061 z m 901 684 b 479 979 901 881 741 979 l 43 979 l 43 913 b 158 829 146 903 158 890 l 158 150 b 43 66 158 90 146 77 l 43 0 l 486 0 l 486 66 b 362 159 377 77 362 94 l 362 370 l 479 370 b 901 684 731 370 901 482 z m 684 673 b 419 448 684 529 595 456 l 362 446 l 362 903 l 419 901 b 684 673 598 894 684 813 z "},"Ṗ":{"ha":949,"x_min":0,"x_max":0,"o":"m 465 1077 b 553 1161 514 1077 553 1113 b 465 1246 553 1210 514 1246 b 376 1161 415 1246 376 1210 b 465 1077 376 1113 415 1077 z m 901 684 b 479 979 901 881 741 979 l 43 979 l 43 913 b 158 829 146 903 158 890 l 158 150 b 43 66 158 90 146 77 l 43 0 l 486 0 l 486 66 b 362 159 377 77 362 94 l 362 370 l 479 370 b 901 684 731 370 901 482 z m 684 673 b 419 448 684 529 595 456 l 362 446 l 362 903 l 419 901 b 684 673 598 894 684 813 z "},"Q":{"ha":1160,"x_min":0,"x_max":0,"o":"m 67 489 b 529 -19 67 194 277 3 l 642 -118 b 924 -254 761 -221 830 -254 b 1099 -210 989 -254 1053 -239 l 1099 -149 b 849 -52 1019 -157 946 -130 l 770 12 b 1093 490 971 83 1093 269 b 583 1000 1093 804 856 1000 b 67 489 270 1000 67 776 z m 294 502 b 572 909 294 728 376 909 b 866 477 755 909 867 713 b 588 70 865 252 784 70 b 294 502 405 70 294 267 z "},"R":{"ha":981,"x_min":0,"x_max":0,"o":"m 886 715 b 492 979 886 878 755 979 l 43 979 l 43 913 b 158 829 146 903 158 890 l 158 150 b 43 66 158 90 146 77 l 43 0 l 470 0 l 470 66 b 362 146 375 77 362 89 l 362 427 l 511 427 l 730 0 l 965 0 l 965 62 b 816 244 925 72 895 97 l 692 480 b 886 715 801 508 886 592 z m 682 699 b 450 505 682 574 597 509 l 362 502 l 362 903 l 437 901 b 682 699 601 896 682 825 z "},"Ŕ":{"ha":981,"x_min":0,"x_max":0,"o":"m 455 1061 l 678 1255 l 678 1262 l 478 1262 l 374 1061 z m 886 715 b 492 979 886 878 755 979 l 43 979 l 43 913 b 158 829 146 903 158 890 l 158 150 b 43 66 158 90 146 77 l 43 0 l 470 0 l 470 66 b 362 146 375 77 362 89 l 362 427 l 511 427 l 730 0 l 965 0 l 965 62 b 816 244 925 72 895 97 l 692 480 b 886 715 801 508 886 592 z m 682 699 b 450 505 682 574 597 509 l 362 502 l 362 903 l 437 901 b 682 699 601 896 682 825 z "},"Ȑ":{"ha":981,"x_min":0,"x_max":0,"o":"m 335 1262 l 165 1262 l 165 1255 l 351 1061 l 440 1061 z m 593 1262 l 437 1262 l 437 1255 l 551 1061 l 635 1061 z m 886 715 b 492 979 886 878 755 979 l 43 979 l 43 913 b 158 829 146 903 158 890 l 158 150 b 43 66 158 90 146 77 l 43 0 l 470 0 l 470 66 b 362 146 375 77 362 89 l 362 427 l 511 427 l 730 0 l 965 0 l 965 62 b 816 244 925 72 895 97 l 692 480 b 886 715 801 508 886 592 z m 682 699 b 450 505 682 574 597 509 l 362 502 l 362 903 l 437 901 b 682 699 601 896 682 825 z "},"Ř":{"ha":981,"x_min":0,"x_max":0,"o":"m 610 1261 l 476 1160 l 342 1261 l 260 1261 l 406 1060 l 545 1060 l 690 1261 z m 886 715 b 492 979 886 878 755 979 l 43 979 l 43 913 b 158 829 146 903 158 890 l 158 150 b 43 66 158 90 146 77 l 43 0 l 470 0 l 470 66 b 362 146 375 77 362 89 l 362 427 l 511 427 l 730 0 l 965 0 l 965 62 b 816 244 925 72 895 97 l 692 480 b 886 715 801 508 886 592 z m 682 699 b 450 505 682 574 597 509 l 362 502 l 362 903 l 437 901 b 682 699 601 896 682 825 z "},"Ȓ":{"ha":981,"x_min":0,"x_max":0,"o":"m 467 1293 b 262 1112 336 1293 262 1206 b 265 1077 262 1100 263 1088 l 335 1077 l 335 1082 b 467 1185 335 1140 384 1185 b 599 1082 550 1185 599 1140 l 599 1077 l 669 1077 b 672 1112 671 1088 672 1100 b 467 1293 672 1206 597 1293 z m 886 715 b 492 979 886 878 755 979 l 43 979 l 43 913 b 158 829 146 903 158 890 l 158 150 b 43 66 158 90 146 77 l 43 0 l 470 0 l 470 66 b 362 146 375 77 362 89 l 362 427 l 511 427 l 730 0 l 965 0 l 965 62 b 816 244 925 72 895 97 l 692 480 b 886 715 801 508 886 592 z m 682 699 b 450 505 682 574 597 509 l 362 502 l 362 903 l 437 901 b 682 699 601 896 682 825 z "},"Ṟ":{"ha":981,"x_min":0,"x_max":0,"o":"m 886 715 b 492 979 886 878 755 979 l 43 979 l 43 913 b 158 829 146 903 158 890 l 158 150 b 43 66 158 90 146 77 l 43 0 l 470 0 l 470 66 b 362 146 375 77 362 89 l 362 427 l 511 427 l 730 0 l 965 0 l 965 62 b 816 244 925 72 895 97 l 692 480 b 886 715 801 508 886 592 z m 682 699 b 450 505 682 574 597 509 l 362 502 l 362 903 l 437 901 b 682 699 601 896 682 825 z m 331 -252 l 743 -252 l 743 -154 l 331 -154 z "},"Ṙ":{"ha":981,"x_min":0,"x_max":0,"o":"m 467 1077 b 556 1161 517 1077 556 1113 b 467 1246 556 1210 517 1246 b 378 1161 418 1246 378 1210 b 467 1077 378 1113 418 1077 z m 886 715 b 492 979 886 878 755 979 l 43 979 l 43 913 b 158 829 146 903 158 890 l 158 150 b 43 66 158 90 146 77 l 43 0 l 470 0 l 470 66 b 362 146 375 77 362 89 l 362 427 l 511 427 l 730 0 l 965 0 l 965 62 b 816 244 925 72 895 97 l 692 480 b 886 715 801 508 886 592 z m 682 699 b 450 505 682 574 597 509 l 362 502 l 362 903 l 437 901 b 682 699 601 896 682 825 z "},"Ṛ":{"ha":981,"x_min":0,"x_max":0,"o":"m 886 715 b 492 979 886 878 755 979 l 43 979 l 43 913 b 158 829 146 903 158 890 l 158 150 b 43 66 158 90 146 77 l 43 0 l 470 0 l 470 66 b 362 146 375 77 362 89 l 362 427 l 511 427 l 730 0 l 965 0 l 965 62 b 816 244 925 72 895 97 l 692 480 b 886 715 801 508 886 592 z m 682 699 b 450 505 682 574 597 509 l 362 502 l 362 903 l 437 901 b 682 699 601 896 682 825 z m 536 -119 b 448 -203 487 -119 448 -155 b 536 -288 448 -252 487 -288 b 625 -203 586 -288 625 -252 b 536 -119 625 -155 586 -119 z "},"Ṝ":{"ha":981,"x_min":0,"x_max":0,"o":"m 268 1096 l 667 1096 l 667 1196 l 268 1196 z m 886 715 b 492 979 886 878 755 979 l 43 979 l 43 913 b 158 829 146 903 158 890 l 158 150 b 43 66 158 90 146 77 l 43 0 l 470 0 l 470 66 b 362 146 375 77 362 89 l 362 427 l 511 427 l 730 0 l 965 0 l 965 62 b 816 244 925 72 895 97 l 692 480 b 886 715 801 508 886 592 z m 682 699 b 450 505 682 574 597 509 l 362 502 l 362 903 l 437 901 b 682 699 601 896 682 825 z m 536 -119 b 448 -203 487 -119 448 -155 b 536 -288 448 -252 487 -288 b 625 -203 586 -288 625 -252 b 536 -119 625 -155 586 -119 z "},"Ŗ":{"ha":981,"x_min":0,"x_max":0,"o":"m 886 715 b 492 979 886 878 755 979 l 43 979 l 43 913 b 158 829 146 903 158 890 l 158 150 b 43 66 158 90 146 77 l 43 0 l 470 0 l 470 66 b 362 146 375 77 362 89 l 362 427 l 511 427 l 730 0 l 965 0 l 965 62 b 816 244 925 72 895 97 l 692 480 b 886 715 801 508 886 592 z m 682 699 b 450 505 682 574 597 509 l 362 502 l 362 903 l 437 901 b 682 699 601 896 682 825 z m 522 -333 b 704 -203 632 -333 704 -282 b 549 -73 704 -123 640 -73 b 428 -112 493 -73 447 -91 l 428 -170 b 489 -159 441 -163 465 -159 b 564 -209 531 -159 564 -177 b 484 -261 564 -243 531 -261 b 387 -239 445 -261 410 -252 l 387 -300 b 522 -333 414 -318 463 -333 z "},"S":{"ha":843,"x_min":0,"x_max":0,"o":"m 397 -21 b 780 275 611 -21 780 90 b 524 569 780 420 696 512 l 453 591 b 264 766 329 632 264 677 b 450 909 264 852 329 909 b 680 701 568 909 652 844 l 742 701 l 734 924 b 451 1000 675 968 570 1000 b 74 713 214 1000 74 883 b 334 427 74 574 165 482 l 406 404 b 590 221 531 363 590 311 b 396 70 590 133 516 70 b 127 288 267 70 161 139 l 66 288 l 74 63 b 397 -21 137 17 261 -21 z "},"Ś":{"ha":843,"x_min":0,"x_max":0,"o":"m 435 1061 l 658 1255 l 658 1262 l 458 1262 l 353 1061 z m 397 -21 b 780 275 611 -21 780 90 b 524 569 780 420 696 512 l 453 591 b 264 766 329 632 264 677 b 450 909 264 852 329 909 b 680 701 568 909 652 844 l 742 701 l 734 924 b 451 1000 675 968 570 1000 b 74 713 214 1000 74 883 b 334 427 74 574 165 482 l 406 404 b 590 221 531 363 590 311 b 396 70 590 133 516 70 b 127 288 267 70 161 139 l 66 288 l 74 63 b 397 -21 137 17 261 -21 z "},"Ṥ":{"ha":843,"x_min":0,"x_max":0,"o":"m 447 1196 b 523 1262 489 1196 523 1224 b 447 1328 523 1300 489 1328 b 370 1262 404 1328 370 1300 b 447 1196 370 1224 404 1196 z m 659 1095 l 659 1191 l 235 1097 l 235 1040 z m 397 -21 b 780 275 611 -21 780 90 b 524 569 780 420 696 512 l 453 591 b 264 766 329 632 264 677 b 450 909 264 852 329 909 b 680 701 568 909 652 844 l 742 701 l 734 924 b 451 1000 675 968 570 1000 b 74 713 214 1000 74 883 b 334 427 74 574 165 482 l 406 404 b 590 221 531 363 590 311 b 396 70 590 133 516 70 b 127 288 267 70 161 139 l 66 288 l 74 63 b 397 -21 137 17 261 -21 z "},"Ŝ":{"ha":843,"x_min":0,"x_max":0,"o":"m 321 1061 l 456 1161 l 590 1061 l 671 1061 l 526 1262 l 387 1262 l 241 1061 z m 397 -21 b 780 275 611 -21 780 90 b 524 569 780 420 696 512 l 453 591 b 264 766 329 632 264 677 b 450 909 264 852 329 909 b 680 701 568 909 652 844 l 742 701 l 734 924 b 451 1000 675 968 570 1000 b 74 713 214 1000 74 883 b 334 427 74 574 165 482 l 406 404 b 590 221 531 363 590 311 b 396 70 590 133 516 70 b 127 288 267 70 161 139 l 66 288 l 74 63 b 397 -21 137 17 261 -21 z "},"Š":{"ha":843,"x_min":0,"x_max":0,"o":"m 590 1261 l 456 1160 l 322 1261 l 240 1261 l 386 1060 l 524 1060 l 670 1261 z m 397 -21 b 780 275 611 -21 780 90 b 524 569 780 420 696 512 l 453 591 b 264 766 329 632 264 677 b 450 909 264 852 329 909 b 680 701 568 909 652 844 l 742 701 l 734 924 b 451 1000 675 968 570 1000 b 74 713 214 1000 74 883 b 334 427 74 574 165 482 l 406 404 b 590 221 531 363 590 311 b 396 70 590 133 516 70 b 127 288 267 70 161 139 l 66 288 l 74 63 b 397 -21 137 17 261 -21 z "},"Ṧ":{"ha":843,"x_min":0,"x_max":0,"o":"m 447 1211 b 523 1276 489 1211 523 1238 b 447 1343 523 1314 489 1343 b 370 1276 404 1343 370 1314 b 447 1211 370 1238 404 1211 z m 663 1200 l 447 1138 l 231 1200 l 231 1142 l 426 1044 l 470 1044 l 663 1142 z m 397 -21 b 780 275 611 -21 780 90 b 524 569 780 420 696 512 l 453 591 b 264 766 329 632 264 677 b 450 909 264 852 329 909 b 680 701 568 909 652 844 l 742 701 l 734 924 b 451 1000 675 968 570 1000 b 74 713 214 1000 74 883 b 334 427 74 574 165 482 l 406 404 b 590 221 531 363 590 311 b 396 70 590 133 516 70 b 127 288 267 70 161 139 l 66 288 l 74 63 b 397 -21 137 17 261 -21 z "},"Ṡ":{"ha":843,"x_min":0,"x_max":0,"o":"m 447 1077 b 536 1161 496 1077 536 1113 b 447 1246 536 1210 496 1246 b 358 1161 397 1246 358 1210 b 447 1077 358 1113 397 1077 z m 397 -21 b 780 275 611 -21 780 90 b 524 569 780 420 696 512 l 453 591 b 264 766 329 632 264 677 b 450 909 264 852 329 909 b 680 701 568 909 652 844 l 742 701 l 734 924 b 451 1000 675 968 570 1000 b 74 713 214 1000 74 883 b 334 427 74 574 165 482 l 406 404 b 590 221 531 363 590 311 b 396 70 590 133 516 70 b 127 288 267 70 161 139 l 66 288 l 74 63 b 397 -21 137 17 261 -21 z "},"Ṣ":{"ha":843,"x_min":0,"x_max":0,"o":"m 397 -21 b 780 275 611 -21 780 90 b 524 569 780 420 696 512 l 453 591 b 264 766 329 632 264 677 b 450 909 264 852 329 909 b 680 701 568 909 652 844 l 742 701 l 734 924 b 451 1000 675 968 570 1000 b 74 713 214 1000 74 883 b 334 427 74 574 165 482 l 406 404 b 590 221 531 363 590 311 b 396 70 590 133 516 70 b 127 288 267 70 161 139 l 66 288 l 74 63 b 397 -21 137 17 261 -21 z m 411 -119 b 322 -203 361 -119 322 -155 b 411 -288 322 -252 361 -288 b 500 -203 460 -288 500 -252 b 411 -119 500 -155 460 -119 z "},"Ṩ":{"ha":843,"x_min":0,"x_max":0,"o":"m 447 1077 b 536 1161 496 1077 536 1113 b 447 1246 536 1210 496 1246 b 358 1161 397 1246 358 1210 b 447 1077 358 1113 397 1077 z m 397 -21 b 780 275 611 -21 780 90 b 524 569 780 420 696 512 l 453 591 b 264 766 329 632 264 677 b 450 909 264 852 329 909 b 680 701 568 909 652 844 l 742 701 l 734 924 b 451 1000 675 968 570 1000 b 74 713 214 1000 74 883 b 334 427 74 574 165 482 l 406 404 b 590 221 531 363 590 311 b 396 70 590 133 516 70 b 127 288 267 70 161 139 l 66 288 l 74 63 b 397 -21 137 17 261 -21 z m 411 -119 b 322 -203 361 -119 322 -155 b 411 -288 322 -252 361 -288 b 500 -203 460 -288 500 -252 b 411 -119 500 -155 460 -119 z "},"Ș":{"ha":843,"x_min":0,"x_max":0,"o":"m 397 -21 b 780 275 611 -21 780 90 b 524 569 780 420 696 512 l 453 591 b 264 766 329 632 264 677 b 450 909 264 852 329 909 b 680 701 568 909 652 844 l 742 701 l 734 924 b 451 1000 675 968 570 1000 b 74 713 214 1000 74 883 b 334 427 74 574 165 482 l 406 404 b 590 221 531 363 590 311 b 396 70 590 133 516 70 b 127 288 267 70 161 139 l 66 288 l 74 63 b 397 -21 137 17 261 -21 z m 397 -333 b 578 -203 507 -333 578 -282 b 423 -73 578 -123 515 -73 b 302 -112 368 -73 321 -91 l 302 -170 b 363 -159 315 -163 339 -159 b 439 -209 406 -159 439 -177 b 359 -261 439 -243 406 -261 b 261 -239 319 -261 284 -252 l 261 -300 b 397 -333 288 -318 338 -333 z "},"Ş":{"ha":843,"x_min":0,"x_max":0,"o":"m 387 -333 b 568 -202 481 -333 568 -288 b 404 -73 568 -117 496 -73 l 447 -19 b 780 275 636 -3 780 105 b 524 569 780 420 696 512 l 453 591 b 264 766 329 632 264 677 b 450 909 264 852 329 909 b 680 701 568 909 652 844 l 742 701 l 734 924 b 451 1000 675 968 570 1000 b 74 713 214 1000 74 883 b 334 427 74 574 165 482 l 406 404 b 590 221 531 363 590 311 b 396 70 590 133 516 70 b 127 288 267 70 161 139 l 66 288 l 74 63 b 363 -20 132 20 241 -15 l 303 -96 l 303 -150 b 331 -147 309 -149 320 -147 b 418 -203 381 -147 418 -165 b 342 -255 418 -237 385 -255 b 243 -229 304 -255 266 -244 l 243 -294 b 387 -333 275 -317 326 -333 z "},"T":{"ha":960,"x_min":0,"x_max":0,"o":"m 918 979 l 42 979 l 35 720 l 96 720 b 341 903 124 874 167 897 l 378 903 l 378 159 b 254 66 378 94 363 77 l 254 0 l 706 0 l 706 66 b 582 159 596 77 582 94 l 582 903 l 618 903 b 864 720 793 897 836 874 l 925 720 z "},"Ṱ":{"ha":960,"x_min":0,"x_max":0,"o":"m 918 979 l 42 979 l 35 720 l 96 720 b 341 903 124 874 167 897 l 378 903 l 378 159 b 254 66 378 94 363 77 l 254 0 l 706 0 l 706 66 b 582 159 596 77 582 94 l 582 903 l 618 903 b 864 720 793 897 836 874 l 925 720 z m 342 -321 l 480 -199 l 614 -321 l 693 -321 l 543 -87 l 417 -87 l 266 -321 z "},"Ť":{"ha":960,"x_min":0,"x_max":0,"o":"m 623 1261 l 488 1160 l 355 1261 l 273 1261 l 418 1060 l 557 1060 l 703 1261 z m 918 979 l 42 979 l 35 720 l 96 720 b 341 903 124 874 167 897 l 378 903 l 378 159 b 254 66 378 94 363 77 l 254 0 l 706 0 l 706 66 b 582 159 596 77 582 94 l 582 903 l 618 903 b 864 720 793 897 836 874 l 925 720 z "},"Ṯ":{"ha":960,"x_min":0,"x_max":0,"o":"m 918 979 l 42 979 l 35 720 l 96 720 b 341 903 124 874 167 897 l 378 903 l 378 159 b 254 66 378 94 363 77 l 254 0 l 706 0 l 706 66 b 582 159 596 77 582 94 l 582 903 l 618 903 b 864 720 793 897 836 874 l 925 720 z m 274 -252 l 686 -252 l 686 -154 l 274 -154 z "},"Ṫ":{"ha":960,"x_min":0,"x_max":0,"o":"m 479 1077 b 568 1161 529 1077 568 1113 b 479 1246 568 1210 529 1246 b 391 1161 431 1246 391 1210 b 479 1077 391 1113 430 1077 z m 918 979 l 42 979 l 35 720 l 96 720 b 341 903 124 874 167 897 l 378 903 l 378 159 b 254 66 378 94 363 77 l 254 0 l 706 0 l 706 66 b 582 159 596 77 582 94 l 582 903 l 618 903 b 864 720 793 897 836 874 l 925 720 z "},"Ṭ":{"ha":960,"x_min":0,"x_max":0,"o":"m 918 979 l 42 979 l 35 720 l 96 720 b 341 903 124 874 167 897 l 378 903 l 378 159 b 254 66 378 94 363 77 l 254 0 l 706 0 l 706 66 b 582 159 596 77 582 94 l 582 903 l 618 903 b 864 720 793 897 836 874 l 925 720 z m 479 -119 b 391 -203 430 -119 391 -155 b 479 -288 391 -252 430 -288 b 568 -203 529 -288 568 -252 b 479 -119 568 -155 529 -119 z "},"Ț":{"ha":960,"x_min":0,"x_max":0,"o":"m 918 979 l 42 979 l 35 720 l 96 720 b 341 903 124 874 167 897 l 378 903 l 378 159 b 254 66 378 94 363 77 l 254 0 l 706 0 l 706 66 b 582 159 596 77 582 94 l 582 903 l 618 903 b 864 720 793 897 836 874 l 925 720 z m 466 -333 b 647 -203 576 -333 647 -282 b 492 -73 647 -123 583 -73 b 371 -112 437 -73 390 -91 l 371 -170 b 432 -159 384 -163 408 -159 b 508 -209 475 -159 508 -177 b 428 -261 508 -243 475 -261 b 330 -239 389 -261 353 -252 l 330 -300 b 466 -333 357 -318 407 -333 z "},"Ţ":{"ha":960,"x_min":0,"x_max":0,"o":"m 456 -333 b 637 -202 549 -333 637 -288 b 473 -73 637 -118 565 -73 l 531 0 l 706 0 l 706 66 b 582 159 596 77 582 94 l 582 903 l 618 903 b 864 720 793 897 836 874 l 925 720 l 918 979 l 42 979 l 35 720 l 96 720 b 341 903 124 874 167 897 l 378 903 l 378 159 b 254 66 378 94 363 77 l 254 0 l 449 0 l 372 -96 l 372 -150 b 399 -147 377 -149 389 -147 b 486 -203 450 -147 486 -165 b 410 -255 486 -237 454 -255 b 312 -229 372 -255 334 -245 l 312 -294 b 456 -333 345 -317 395 -333 z "},"Ŧ":{"ha":960,"x_min":0,"x_max":0,"o":"m 179 463 l 378 463 l 378 159 b 254 65 378 93 363 77 l 254 0 l 706 0 l 706 65 b 582 159 596 77 582 93 l 582 463 l 781 463 l 781 541 l 582 541 l 582 903 l 618 903 b 864 720 793 897 836 874 l 925 720 l 918 979 l 42 979 l 35 720 l 96 720 b 341 903 124 874 167 897 l 378 903 l 378 541 l 179 541 z "},"U":{"ha":1078,"x_min":0,"x_max":0,"o":"m 133 833 l 133 361 b 534 -21 133 108 322 -21 b 941 376 782 -21 939 132 l 945 825 b 1053 913 946 888 958 902 l 1053 979 l 730 979 l 730 913 b 844 823 832 903 844 888 l 847 393 b 594 105 848 199 751 105 b 337 378 448 105 337 199 l 337 829 b 452 913 337 890 349 903 l 452 979 l 25 979 l 25 913 b 133 833 120 903 133 890 z "},"Ú":{"ha":1078,"x_min":0,"x_max":0,"o":"m 566 1061 l 788 1255 l 788 1262 l 589 1262 l 484 1061 z m 133 833 l 133 361 b 534 -21 133 108 322 -21 b 941 376 782 -21 939 132 l 945 825 b 1053 913 946 888 958 902 l 1053 979 l 730 979 l 730 913 b 844 823 832 903 844 888 l 847 393 b 594 105 848 199 751 105 b 337 378 448 105 337 199 l 337 829 b 452 913 337 890 349 903 l 452 979 l 25 979 l 25 913 b 133 833 120 903 133 890 z "},"Ù":{"ha":1078,"x_min":0,"x_max":0,"o":"m 606 1061 l 687 1061 l 589 1262 l 381 1262 l 381 1255 z m 133 833 l 133 361 b 534 -21 133 108 322 -21 b 941 376 782 -21 939 132 l 945 825 b 1053 913 946 888 958 902 l 1053 979 l 730 979 l 730 913 b 844 823 832 903 844 888 l 847 393 b 594 105 848 199 751 105 b 337 378 448 105 337 199 l 337 829 b 452 913 337 890 349 903 l 452 979 l 25 979 l 25 913 b 133 833 120 903 133 890 z "},"Ű":{"ha":1078,"x_min":0,"x_max":0,"o":"m 473 1262 l 431 1061 l 514 1061 l 629 1255 l 629 1262 z m 730 1262 l 625 1061 l 714 1061 l 901 1255 l 901 1262 z m 133 833 l 133 361 b 534 -21 133 108 322 -21 b 941 376 782 -21 939 132 l 945 825 b 1053 913 946 888 958 902 l 1053 979 l 730 979 l 730 913 b 844 823 832 903 844 888 l 847 393 b 594 105 848 199 751 105 b 337 378 448 105 337 199 l 337 829 b 452 913 337 890 349 903 l 452 979 l 25 979 l 25 913 b 133 833 120 903 133 890 z "},"Ȕ":{"ha":1078,"x_min":0,"x_max":0,"o":"m 446 1262 l 275 1262 l 275 1255 l 462 1061 l 550 1061 z m 703 1262 l 547 1262 l 547 1255 l 661 1061 l 745 1061 z m 133 833 l 133 361 b 534 -21 133 108 322 -21 b 941 376 782 -21 939 132 l 945 825 b 1053 913 946 888 958 902 l 1053 979 l 730 979 l 730 913 b 844 823 832 903 844 888 l 847 393 b 594 105 848 199 751 105 b 337 378 448 105 337 199 l 337 829 b 452 913 337 890 349 903 l 452 979 l 25 979 l 25 913 b 133 833 120 903 133 890 z "},"Û":{"ha":1078,"x_min":0,"x_max":0,"o":"m 452 1061 l 587 1161 l 720 1061 l 802 1061 l 656 1262 l 518 1262 l 372 1061 z m 133 833 l 133 361 b 534 -21 133 108 322 -21 b 941 376 782 -21 939 132 l 945 825 b 1053 913 946 888 958 902 l 1053 979 l 730 979 l 730 913 b 844 823 832 903 844 888 l 847 393 b 594 105 848 199 751 105 b 337 378 448 105 337 199 l 337 829 b 452 913 337 890 349 903 l 452 979 l 25 979 l 25 913 b 133 833 120 903 133 890 z "},"Ṷ":{"ha":1078,"x_min":0,"x_max":0,"o":"m 133 833 l 133 361 b 534 -21 133 108 322 -21 b 941 376 782 -21 939 132 l 945 825 b 1053 913 946 888 958 902 l 1053 979 l 730 979 l 730 913 b 844 823 832 903 844 888 l 847 393 b 594 105 848 199 751 105 b 337 378 448 105 337 199 l 337 829 b 452 913 337 890 349 903 l 452 979 l 25 979 l 25 913 b 133 833 120 903 133 890 z m 425 -321 l 562 -199 l 696 -321 l 775 -321 l 625 -87 l 499 -87 l 349 -321 z "},"Ǔ":{"ha":1078,"x_min":0,"x_max":0,"o":"m 721 1261 l 586 1160 l 453 1261 l 370 1261 l 516 1060 l 654 1060 l 801 1261 z m 133 833 l 133 361 b 534 -21 133 108 322 -21 b 941 376 782 -21 939 132 l 945 825 b 1053 913 946 888 958 902 l 1053 979 l 730 979 l 730 913 b 844 823 832 903 844 888 l 847 393 b 594 105 848 199 751 105 b 337 378 448 105 337 199 l 337 829 b 452 913 337 890 349 903 l 452 979 l 25 979 l 25 913 b 133 833 120 903 133 890 z "},"Ŭ":{"ha":1078,"x_min":0,"x_max":0,"o":"m 577 1077 b 782 1258 708 1077 782 1164 b 779 1293 782 1271 781 1282 l 709 1293 l 709 1288 b 577 1185 709 1230 661 1185 b 446 1288 494 1185 446 1231 l 446 1293 l 376 1293 b 372 1258 374 1282 372 1271 b 577 1077 372 1164 447 1077 z m 133 833 l 133 361 b 534 -21 133 108 322 -21 b 941 376 782 -21 939 132 l 945 825 b 1053 913 946 888 958 902 l 1053 979 l 730 979 l 730 913 b 844 823 832 903 844 888 l 847 393 b 594 105 848 199 751 105 b 337 378 448 105 337 199 l 337 829 b 452 913 337 890 349 903 l 452 979 l 25 979 l 25 913 b 133 833 120 903 133 890 z "},"Ȗ":{"ha":1078,"x_min":0,"x_max":0,"o":"m 577 1293 b 372 1112 446 1293 372 1206 b 376 1077 372 1100 374 1088 l 446 1077 l 446 1082 b 577 1185 446 1140 494 1185 b 709 1082 660 1185 709 1140 l 709 1077 l 779 1077 b 782 1112 781 1088 782 1100 b 577 1293 782 1206 708 1293 z m 133 833 l 133 361 b 534 -21 133 108 322 -21 b 941 376 782 -21 939 132 l 945 825 b 1053 913 946 888 958 902 l 1053 979 l 730 979 l 730 913 b 844 823 832 903 844 888 l 847 393 b 594 105 848 199 751 105 b 337 378 448 105 337 199 l 337 829 b 452 913 337 890 349 903 l 452 979 l 25 979 l 25 913 b 133 833 120 903 133 890 z "},"Ü":{"ha":1078,"x_min":0,"x_max":0,"o":"m 454 1079 b 541 1162 503 1079 541 1114 b 454 1246 541 1211 503 1246 b 369 1162 407 1246 369 1211 b 454 1079 369 1114 407 1079 z m 701 1079 b 787 1162 749 1079 787 1114 b 701 1246 787 1211 749 1246 b 615 1162 653 1246 615 1211 b 701 1079 615 1114 653 1079 z m 133 833 l 133 361 b 534 -21 133 108 322 -21 b 941 376 782 -21 939 132 l 945 825 b 1053 913 946 888 958 902 l 1053 979 l 730 979 l 730 913 b 844 823 832 903 844 888 l 847 393 b 594 105 848 199 751 105 b 337 378 448 105 337 199 l 337 829 b 452 913 337 890 349 903 l 452 979 l 25 979 l 25 913 b 133 833 120 903 133 890 z "},"Ǘ":{"ha":1078,"x_min":0,"x_max":0,"o":"m 789 1261 l 789 1358 l 366 1263 l 366 1207 z m 465 1050 b 534 1110 504 1050 534 1076 b 465 1170 534 1144 504 1170 l 457 1170 b 387 1110 418 1170 387 1144 b 457 1050 387 1076 418 1050 z m 698 1050 b 767 1110 736 1050 767 1076 b 698 1170 767 1144 736 1170 l 689 1170 b 620 1110 650 1170 620 1144 b 689 1050 620 1076 650 1050 z m 133 833 l 133 361 b 534 -21 133 108 322 -21 b 941 376 782 -21 939 132 l 945 825 b 1053 913 946 888 958 902 l 1053 979 l 730 979 l 730 913 b 844 823 832 903 844 888 l 847 393 b 594 105 848 199 751 105 b 337 378 448 105 337 199 l 337 829 b 452 913 337 890 349 903 l 452 979 l 25 979 l 25 913 b 133 833 120 903 133 890 z "},"Ǜ":{"ha":1078,"x_min":0,"x_max":0,"o":"m 366 1261 l 789 1207 l 789 1263 l 366 1358 z m 465 1050 b 534 1110 504 1050 534 1076 b 465 1170 534 1144 504 1170 l 457 1170 b 387 1110 418 1170 387 1144 b 457 1050 387 1076 418 1050 z m 698 1050 b 767 1110 736 1050 767 1076 b 698 1170 767 1144 736 1170 l 689 1170 b 620 1110 650 1170 620 1144 b 689 1050 620 1076 650 1050 z m 133 833 l 133 361 b 534 -21 133 108 322 -21 b 941 376 782 -21 939 132 l 945 825 b 1053 913 946 888 958 902 l 1053 979 l 730 979 l 730 913 b 844 823 832 903 844 888 l 847 393 b 594 105 848 199 751 105 b 337 378 448 105 337 199 l 337 829 b 452 913 337 890 349 903 l 452 979 l 25 979 l 25 913 b 133 833 120 903 133 890 z "},"Ǚ":{"ha":1078,"x_min":0,"x_max":0,"o":"m 789 1358 l 577 1298 l 366 1358 l 366 1301 l 556 1207 l 599 1207 l 788 1301 z m 465 1050 b 534 1110 504 1050 534 1076 b 465 1170 534 1144 504 1170 l 457 1170 b 387 1110 418 1170 387 1144 b 457 1050 387 1076 418 1050 z m 698 1050 b 767 1110 736 1050 767 1076 b 698 1170 767 1144 736 1170 l 689 1170 b 620 1110 650 1170 620 1144 b 689 1050 620 1076 650 1050 z m 133 833 l 133 361 b 534 -21 133 108 322 -21 b 941 376 782 -21 939 132 l 945 825 b 1053 913 946 888 958 902 l 1053 979 l 730 979 l 730 913 b 844 823 832 903 844 888 l 847 393 b 594 105 848 199 751 105 b 337 378 448 105 337 199 l 337 829 b 452 913 337 890 349 903 l 452 979 l 25 979 l 25 913 b 133 833 120 903 133 890 z "},"Ǖ":{"ha":1078,"x_min":0,"x_max":0,"o":"m 366 1244 l 789 1244 l 789 1320 l 366 1320 z m 465 1050 b 534 1110 504 1050 534 1076 b 465 1170 534 1144 504 1170 l 457 1170 b 387 1110 418 1170 387 1144 b 457 1050 387 1076 418 1050 z m 698 1050 b 767 1110 736 1050 767 1076 b 698 1170 767 1144 736 1170 l 689 1170 b 620 1110 650 1170 620 1144 b 689 1050 620 1076 650 1050 z m 133 833 l 133 361 b 534 -21 133 108 322 -21 b 941 376 782 -21 939 132 l 945 825 b 1053 913 946 888 958 902 l 1053 979 l 730 979 l 730 913 b 844 823 832 903 844 888 l 847 393 b 594 105 848 199 751 105 b 337 378 448 105 337 199 l 337 829 b 452 913 337 890 349 903 l 452 979 l 25 979 l 25 913 b 133 833 120 903 133 890 z "},"Ṳ":{"ha":1078,"x_min":0,"x_max":0,"o":"m 133 833 l 133 361 b 534 -21 133 108 322 -21 b 941 376 782 -21 939 132 l 945 825 b 1053 913 946 888 958 902 l 1053 979 l 730 979 l 730 913 b 844 823 832 903 844 888 l 847 393 b 594 105 848 199 751 105 b 337 378 448 105 337 199 l 337 829 b 452 913 337 890 349 903 l 452 979 l 25 979 l 25 913 b 133 833 120 903 133 890 z m 407 -288 b 498 -203 457 -288 498 -252 b 407 -119 498 -155 457 -119 b 315 -203 356 -119 315 -155 b 407 -288 315 -252 356 -288 z m 717 -288 b 808 -203 768 -288 808 -252 b 717 -119 808 -155 768 -119 b 626 -203 667 -119 626 -155 b 717 -288 626 -252 666 -288 z "},"Ũ":{"ha":1078,"x_min":0,"x_max":0,"o":"m 665 1063 b 792 1261 735 1063 792 1119 l 718 1261 b 675 1177 715 1199 703 1177 b 619 1201 656 1177 640 1186 l 599 1217 b 491 1259 563 1242 532 1259 b 363 1061 420 1259 363 1203 l 438 1061 b 481 1145 439 1123 453 1145 b 536 1120 500 1145 515 1136 l 557 1105 b 665 1063 592 1080 623 1063 z m 133 833 l 133 361 b 534 -21 133 108 322 -21 b 941 376 782 -21 939 132 l 945 825 b 1053 913 946 888 958 902 l 1053 979 l 730 979 l 730 913 b 844 823 832 903 844 888 l 847 393 b 594 105 848 199 751 105 b 337 378 448 105 337 199 l 337 829 b 452 913 337 890 349 903 l 452 979 l 25 979 l 25 913 b 133 833 120 903 133 890 z "},"Ṹ":{"ha":1078,"x_min":0,"x_max":0,"o":"m 789 1261 l 789 1358 l 366 1263 l 366 1207 z m 665 1050 b 789 1175 736 1050 789 1092 l 715 1175 b 669 1133 715 1145 696 1133 b 607 1145 651 1133 633 1137 l 585 1153 b 490 1171 553 1164 524 1171 b 366 1046 419 1171 366 1128 l 440 1046 b 486 1088 440 1076 458 1088 b 548 1075 504 1088 522 1084 l 570 1068 b 665 1050 602 1058 631 1050 z m 133 833 l 133 361 b 534 -21 133 108 322 -21 b 941 376 782 -21 939 132 l 945 825 b 1053 913 946 888 958 902 l 1053 979 l 730 979 l 730 913 b 844 823 832 903 844 888 l 847 393 b 594 105 848 199 751 105 b 337 378 448 105 337 199 l 337 829 b 452 913 337 890 349 903 l 452 979 l 25 979 l 25 913 b 133 833 120 903 133 890 z "},"Ṵ":{"ha":1078,"x_min":0,"x_max":0,"o":"m 133 833 l 133 361 b 534 -21 133 108 322 -21 b 941 376 782 -21 939 132 l 945 825 b 1053 913 946 888 958 902 l 1053 979 l 730 979 l 730 913 b 844 823 832 903 844 888 l 847 393 b 594 105 848 199 751 105 b 337 378 448 105 337 199 l 337 829 b 452 913 337 890 349 903 l 452 979 l 25 979 l 25 913 b 133 833 120 903 133 890 z m 646 -297 b 768 -108 713 -297 768 -244 l 698 -108 b 656 -190 696 -168 683 -190 b 602 -166 638 -190 622 -180 l 583 -151 b 478 -111 549 -127 519 -111 b 356 -300 411 -111 356 -163 l 426 -300 b 467 -218 427 -239 441 -218 b 522 -241 486 -218 502 -227 l 541 -256 b 646 -297 575 -281 605 -297 z "},"Ū":{"ha":1078,"x_min":0,"x_max":0,"o":"m 378 1096 l 777 1096 l 777 1196 l 378 1196 z m 133 833 l 133 361 b 534 -21 133 108 322 -21 b 941 376 782 -21 939 132 l 945 825 b 1053 913 946 888 958 902 l 1053 979 l 730 979 l 730 913 b 844 823 832 903 844 888 l 847 393 b 594 105 848 199 751 105 b 337 378 448 105 337 199 l 337 829 b 452 913 337 890 349 903 l 452 979 l 25 979 l 25 913 b 133 833 120 903 133 890 z "},"Ṻ":{"ha":1078,"x_min":0,"x_max":0,"o":"m 465 1223 b 534 1282 504 1223 534 1248 b 465 1342 534 1316 504 1342 l 457 1342 b 387 1282 418 1342 387 1316 b 457 1223 387 1248 418 1223 z m 698 1223 b 767 1282 736 1223 767 1248 b 698 1342 767 1316 736 1342 l 689 1342 b 620 1282 650 1342 620 1316 b 689 1223 620 1248 650 1223 z m 381 1072 l 774 1072 l 774 1149 l 381 1149 z m 133 833 l 133 361 b 534 -21 133 108 322 -21 b 941 376 782 -21 939 132 l 945 825 b 1053 913 946 888 958 902 l 1053 979 l 730 979 l 730 913 b 844 823 832 903 844 888 l 847 393 b 594 105 848 199 751 105 b 337 378 448 105 337 199 l 337 829 b 452 913 337 890 349 903 l 452 979 l 25 979 l 25 913 b 133 833 120 903 133 890 z "},"Ủ":{"ha":1078,"x_min":0,"x_max":0,"o":"m 597 1294 b 447 1239 526 1294 475 1266 l 447 1190 b 536 1214 465 1202 499 1214 b 608 1166 581 1214 608 1196 b 515 1067 608 1136 580 1109 l 584 1067 b 731 1198 692 1110 731 1148 b 597 1294 731 1255 678 1294 z m 133 833 l 133 361 b 534 -21 133 108 322 -21 b 941 376 782 -21 939 132 l 945 825 b 1053 913 946 888 958 902 l 1053 979 l 730 979 l 730 913 b 844 823 832 903 844 888 l 847 393 b 594 105 848 199 751 105 b 337 378 448 105 337 199 l 337 829 b 452 913 337 890 349 903 l 452 979 l 25 979 l 25 913 b 133 833 120 903 133 890 z "},"Ů":{"ha":1078,"x_min":0,"x_max":0,"o":"m 395 1194 b 577 1057 395 1113 474 1057 b 760 1194 681 1057 760 1113 b 577 1331 760 1274 681 1331 b 395 1194 474 1331 395 1274 z m 510 1194 b 577 1266 510 1237 539 1266 b 644 1194 615 1266 644 1237 b 577 1121 644 1150 615 1121 b 510 1194 539 1121 510 1150 z m 133 833 l 133 361 b 534 -21 133 108 322 -21 b 941 376 782 -21 939 132 l 945 825 b 1053 913 946 888 958 902 l 1053 979 l 730 979 l 730 913 b 844 823 832 903 844 888 l 847 393 b 594 105 848 199 751 105 b 337 378 448 105 337 199 l 337 829 b 452 913 337 890 349 903 l 452 979 l 25 979 l 25 913 b 133 833 120 903 133 890 z "},"Ụ":{"ha":1078,"x_min":0,"x_max":0,"o":"m 133 833 l 133 361 b 534 -21 133 108 322 -21 b 941 376 782 -21 939 132 l 945 825 b 1053 913 946 888 958 902 l 1053 979 l 730 979 l 730 913 b 844 823 832 903 844 888 l 847 393 b 594 105 848 199 751 105 b 337 378 448 105 337 199 l 337 829 b 452 913 337 890 349 903 l 452 979 l 25 979 l 25 913 b 133 833 120 903 133 890 z m 562 -119 b 473 -203 513 -119 473 -155 b 562 -288 473 -252 513 -288 b 650 -203 611 -288 650 -252 b 562 -119 650 -155 611 -119 z "},"Ų":{"ha":1078,"x_min":0,"x_max":0,"o":"m 576 -333 b 717 -281 637 -333 690 -312 l 717 -217 b 664 -233 706 -227 686 -233 b 577 -116 616 -233 577 -186 b 604 -17 577 -79 587 -42 b 941 376 812 9 940 155 l 945 825 b 1053 913 945 888 958 902 l 1053 979 l 730 979 l 730 913 b 844 823 832 903 844 888 l 847 393 b 594 105 848 199 751 105 b 337 378 448 105 337 199 l 337 829 b 452 913 337 890 349 903 l 452 979 l 25 979 l 25 913 b 133 833 120 903 133 890 l 133 361 b 522 -21 133 113 315 -16 b 425 -196 465 -70 425 -134 b 576 -333 425 -281 492 -333 z "},"Ư":{"ha":1154,"x_min":0,"x_max":0,"o":"m 132 361 b 534 -21 132 108 322 -21 b 941 376 782 -21 939 132 l 948 934 b 972 932 956 933 964 932 b 1141 1059 1082 932 1141 980 b 1045 1224 1141 1124 1099 1186 l 980 1224 b 1004 1127 994 1204 1004 1164 b 823 979 1004 1046 954 979 l 727 979 l 727 913 b 844 822 832 900 844 886 l 847 393 b 593 105 848 199 751 105 b 336 378 447 105 336 199 l 336 822 b 453 913 336 886 351 900 l 453 979 l 28 979 l 28 913 b 132 824 119 900 132 886 z "},"Ứ":{"ha":1154,"x_min":0,"x_max":0,"o":"m 579 1061 l 802 1255 l 802 1262 l 603 1262 l 498 1061 z m 132 361 b 534 -21 132 108 322 -21 b 941 376 782 -21 939 132 l 948 934 b 972 932 956 933 964 932 b 1141 1059 1082 932 1141 980 b 1045 1224 1141 1124 1099 1186 l 980 1224 b 1004 1127 994 1204 1004 1164 b 823 979 1004 1046 954 979 l 727 979 l 727 913 b 844 822 832 900 844 886 l 847 393 b 593 105 848 199 751 105 b 336 378 447 105 336 199 l 336 822 b 453 913 336 886 351 900 l 453 979 l 28 979 l 28 913 b 132 824 119 900 132 886 z "},"Ừ":{"ha":1154,"x_min":0,"x_max":0,"o":"m 620 1061 l 701 1061 l 603 1262 l 395 1262 l 395 1255 z m 132 361 b 534 -21 132 108 322 -21 b 941 376 782 -21 939 132 l 948 934 b 972 932 956 933 964 932 b 1141 1059 1082 932 1141 980 b 1045 1224 1141 1124 1099 1186 l 980 1224 b 1004 1127 994 1204 1004 1164 b 823 979 1004 1046 954 979 l 727 979 l 727 913 b 844 822 832 900 844 886 l 847 393 b 593 105 848 199 751 105 b 336 378 447 105 336 199 l 336 822 b 453 913 336 886 351 900 l 453 979 l 28 979 l 28 913 b 132 824 119 900 132 886 z "},"Ữ":{"ha":1154,"x_min":0,"x_max":0,"o":"m 678 1063 b 806 1261 749 1063 806 1119 l 732 1261 b 688 1177 730 1199 716 1177 b 633 1201 670 1177 654 1186 l 613 1217 b 505 1259 577 1242 547 1259 b 378 1061 435 1259 378 1203 l 452 1061 b 495 1145 454 1123 467 1145 b 550 1120 513 1145 530 1136 l 570 1105 b 678 1063 606 1080 637 1063 z m 132 361 b 534 -21 132 108 322 -21 b 941 376 782 -21 939 132 l 948 934 b 972 932 956 933 964 932 b 1141 1059 1082 932 1141 980 b 1045 1224 1141 1124 1099 1186 l 980 1224 b 1004 1127 994 1204 1004 1164 b 823 979 1004 1046 954 979 l 727 979 l 727 913 b 844 822 832 900 844 886 l 847 393 b 593 105 848 199 751 105 b 336 378 447 105 336 199 l 336 822 b 453 913 336 886 351 900 l 453 979 l 28 979 l 28 913 b 132 824 119 900 132 886 z "},"Ử":{"ha":1154,"x_min":0,"x_max":0,"o":"m 611 1294 b 461 1239 541 1294 488 1266 l 461 1190 b 550 1214 479 1202 513 1214 b 622 1166 595 1214 622 1196 b 530 1067 622 1136 593 1109 l 598 1067 b 745 1198 706 1110 745 1148 b 611 1294 745 1255 692 1294 z m 132 361 b 534 -21 132 108 322 -21 b 941 376 782 -21 939 132 l 948 934 b 972 932 956 933 964 932 b 1141 1059 1082 932 1141 980 b 1045 1224 1141 1124 1099 1186 l 980 1224 b 1004 1127 994 1204 1004 1164 b 823 979 1004 1046 954 979 l 727 979 l 727 913 b 844 822 832 900 844 886 l 847 393 b 593 105 848 199 751 105 b 336 378 447 105 336 199 l 336 822 b 453 913 336 886 351 900 l 453 979 l 28 979 l 28 913 b 132 824 119 900 132 886 z "},"Ự":{"ha":1154,"x_min":0,"x_max":0,"o":"m 132 361 b 534 -21 132 108 322 -21 b 941 376 782 -21 939 132 l 948 934 b 972 932 956 933 964 932 b 1141 1059 1082 932 1141 980 b 1045 1224 1141 1124 1099 1186 l 980 1224 b 1004 1127 994 1204 1004 1164 b 823 979 1004 1046 954 979 l 727 979 l 727 913 b 844 822 832 900 844 886 l 847 393 b 593 105 848 199 751 105 b 336 378 447 105 336 199 l 336 822 b 453 913 336 886 351 900 l 453 979 l 28 979 l 28 913 b 132 824 119 900 132 886 z m 566 -119 b 477 -203 516 -119 477 -155 b 566 -288 477 -252 516 -288 b 654 -203 615 -288 654 -252 b 566 -119 654 -155 615 -119 z "},"V":{"ha":1014,"x_min":0,"x_max":0,"o":"m 138 781 l 425 0 l 588 0 l 874 778 b 1019 913 915 886 931 903 l 1019 979 l 687 979 l 687 913 b 772 780 794 899 807 881 l 564 167 l 352 781 b 439 913 317 881 330 899 l 439 979 l -5 979 l -5 913 b 138 781 80 903 99 886 z "},"Ⅴ":{"ha":1014,"x_min":0,"x_max":0,"o":"m 138 781 l 425 0 l 588 0 l 874 778 b 1019 913 915 886 931 903 l 1019 979 l 687 979 l 687 913 b 772 780 794 899 807 881 l 564 167 l 352 781 b 439 913 317 881 330 899 l 439 979 l -5 979 l -5 913 b 138 781 80 903 99 886 z "},"Ṽ":{"ha":1014,"x_min":0,"x_max":0,"o":"m 635 1063 b 763 1261 705 1063 763 1119 l 688 1261 b 646 1177 686 1199 673 1177 b 590 1201 627 1177 610 1186 l 570 1217 b 462 1259 534 1242 503 1259 b 334 1061 391 1259 334 1203 l 408 1061 b 452 1145 410 1123 424 1145 b 507 1120 470 1145 486 1136 l 527 1105 b 635 1063 563 1080 593 1063 z m 138 781 l 425 0 l 588 0 l 874 778 b 1019 913 915 886 931 903 l 1019 979 l 687 979 l 687 913 b 772 780 794 899 807 881 l 564 167 l 352 781 b 439 913 317 881 330 899 l 439 979 l -5 979 l -5 913 b 138 781 80 903 99 886 z "},"Ṿ":{"ha":1014,"x_min":0,"x_max":0,"o":"m 138 781 l 425 0 l 588 0 l 874 778 b 1019 913 915 886 931 903 l 1019 979 l 687 979 l 687 913 b 772 780 794 899 807 881 l 564 167 l 352 781 b 439 913 317 881 330 899 l 439 979 l -5 979 l -5 913 b 138 781 80 903 99 886 z m 511 -119 b 423 -203 463 -119 423 -155 b 511 -288 423 -252 463 -288 b 600 -203 561 -288 600 -252 b 511 -119 600 -155 561 -119 z "},"W":{"ha":1537,"x_min":0,"x_max":0,"o":"m 136 781 l 384 0 l 550 0 l 771 709 l 983 0 l 1152 0 l 1399 779 b 1541 913 1434 888 1453 903 l 1541 979 l 1211 979 l 1211 913 b 1296 783 1316 900 1324 883 l 1124 178 l 948 781 b 1034 913 919 882 927 899 l 1034 979 l 610 979 l 610 913 b 694 783 715 900 723 883 l 523 177 l 347 781 b 432 913 318 882 326 899 l 432 979 l -5 979 l -5 913 b 136 781 79 903 102 888 z "},"Ẃ":{"ha":1537,"x_min":0,"x_max":0,"o":"m 812 1061 l 1036 1255 l 1036 1262 l 836 1262 l 732 1061 z m 136 781 l 384 0 l 550 0 l 771 709 l 983 0 l 1152 0 l 1399 779 b 1541 913 1434 888 1453 903 l 1541 979 l 1211 979 l 1211 913 b 1296 783 1316 900 1324 883 l 1124 178 l 948 781 b 1034 913 919 882 927 899 l 1034 979 l 610 979 l 610 913 b 694 783 715 900 723 883 l 523 177 l 347 781 b 432 913 318 882 326 899 l 432 979 l -5 979 l -5 913 b 136 781 79 903 102 888 z "},"Ẁ":{"ha":1537,"x_min":0,"x_max":0,"o":"m 853 1061 l 935 1061 l 836 1262 l 628 1262 l 628 1255 z m 136 781 l 384 0 l 550 0 l 771 709 l 983 0 l 1152 0 l 1399 779 b 1541 913 1434 888 1453 903 l 1541 979 l 1211 979 l 1211 913 b 1296 783 1316 900 1324 883 l 1124 178 l 948 781 b 1034 913 919 882 927 899 l 1034 979 l 610 979 l 610 913 b 694 783 715 900 723 883 l 523 177 l 347 781 b 432 913 318 882 326 899 l 432 979 l -5 979 l -5 913 b 136 781 79 903 102 888 z "},"Ŵ":{"ha":1537,"x_min":0,"x_max":0,"o":"m 699 1061 l 834 1161 l 968 1061 l 1049 1061 l 903 1262 l 765 1262 l 619 1061 z m 136 781 l 384 0 l 550 0 l 771 709 l 983 0 l 1152 0 l 1399 779 b 1541 913 1434 888 1453 903 l 1541 979 l 1211 979 l 1211 913 b 1296 783 1316 900 1324 883 l 1124 178 l 948 781 b 1034 913 919 882 927 899 l 1034 979 l 610 979 l 610 913 b 694 783 715 900 723 883 l 523 177 l 347 781 b 432 913 318 882 326 899 l 432 979 l -5 979 l -5 913 b 136 781 79 903 102 888 z "},"Ẅ":{"ha":1537,"x_min":0,"x_max":0,"o":"m 702 1079 b 787 1162 749 1079 787 1114 b 702 1246 787 1211 749 1246 b 616 1162 654 1246 616 1211 b 702 1079 616 1114 654 1079 z m 948 1079 b 1034 1162 996 1079 1034 1114 b 948 1246 1034 1211 996 1246 b 862 1162 901 1246 862 1211 b 948 1079 862 1114 900 1079 z m 136 781 l 384 0 l 550 0 l 771 709 l 983 0 l 1152 0 l 1399 779 b 1541 913 1434 888 1453 903 l 1541 979 l 1211 979 l 1211 913 b 1296 783 1316 900 1324 883 l 1124 178 l 948 781 b 1034 913 919 882 927 899 l 1034 979 l 610 979 l 610 913 b 694 783 715 900 723 883 l 523 177 l 347 781 b 432 913 318 882 326 899 l 432 979 l -5 979 l -5 913 b 136 781 79 903 102 888 z "},"Ẇ":{"ha":1537,"x_min":0,"x_max":0,"o":"m 825 1077 b 913 1161 874 1077 913 1113 b 825 1246 913 1210 874 1246 b 736 1161 775 1246 736 1210 b 825 1077 736 1113 775 1077 z m 136 781 l 384 0 l 550 0 l 771 709 l 983 0 l 1152 0 l 1399 779 b 1541 913 1434 888 1453 903 l 1541 979 l 1211 979 l 1211 913 b 1296 783 1316 900 1324 883 l 1124 178 l 948 781 b 1034 913 919 882 927 899 l 1034 979 l 610 979 l 610 913 b 694 783 715 900 723 883 l 523 177 l 347 781 b 432 913 318 882 326 899 l 432 979 l -5 979 l -5 913 b 136 781 79 903 102 888 z "},"Ẉ":{"ha":1537,"x_min":0,"x_max":0,"o":"m 136 781 l 384 0 l 550 0 l 771 709 l 983 0 l 1152 0 l 1399 779 b 1541 913 1434 888 1453 903 l 1541 979 l 1211 979 l 1211 913 b 1296 783 1316 900 1324 883 l 1124 178 l 948 781 b 1034 913 919 882 927 899 l 1034 979 l 610 979 l 610 913 b 694 783 715 900 723 883 l 523 177 l 347 781 b 432 913 318 882 326 899 l 432 979 l -5 979 l -5 913 b 136 781 79 903 102 888 z m 770 -119 b 681 -203 720 -119 681 -155 b 770 -288 681 -252 720 -288 b 859 -203 819 -288 859 -252 b 770 -119 859 -155 819 -119 z "},"X":{"ha":985,"x_min":0,"x_max":0,"o":"m 193 202 b 1 66 116 94 92 75 l 1 0 l 345 0 l 345 66 b 289 187 237 80 232 100 l 433 407 l 583 187 b 526 66 640 102 634 80 l 526 0 l 984 0 l 984 66 b 828 174 909 81 880 98 l 600 511 l 789 782 b 977 913 861 886 888 904 l 977 979 l 634 979 l 634 913 b 690 792 743 899 747 879 l 553 580 l 410 792 b 466 913 352 878 358 899 l 466 979 l 8 979 l 8 913 b 164 806 85 899 112 882 l 387 476 z "},"Ⅹ":{"ha":985,"x_min":0,"x_max":0,"o":"m 193 202 b 1 66 116 94 92 75 l 1 0 l 345 0 l 345 66 b 289 187 237 80 232 100 l 433 407 l 583 187 b 526 66 640 102 634 80 l 526 0 l 984 0 l 984 66 b 828 174 909 81 880 98 l 600 511 l 789 782 b 977 913 861 886 888 904 l 977 979 l 634 979 l 634 913 b 690 792 743 899 747 879 l 553 580 l 410 792 b 466 913 352 878 358 899 l 466 979 l 8 979 l 8 913 b 164 806 85 899 112 882 l 387 476 z "},"Ẍ":{"ha":985,"x_min":0,"x_max":0,"o":"m 422 1079 b 509 1162 471 1079 509 1114 b 422 1246 509 1211 471 1246 b 336 1162 375 1246 336 1211 b 422 1079 336 1114 375 1079 z m 669 1079 b 755 1162 717 1079 755 1114 b 669 1246 755 1211 717 1246 b 583 1162 621 1246 583 1211 b 669 1079 583 1114 621 1079 z m 193 202 b 1 66 116 94 92 75 l 1 0 l 345 0 l 345 66 b 289 187 237 80 232 100 l 433 407 l 583 187 b 526 66 640 102 634 80 l 526 0 l 984 0 l 984 66 b 828 174 909 81 880 98 l 600 511 l 789 782 b 977 913 861 886 888 904 l 977 979 l 634 979 l 634 913 b 690 792 743 899 747 879 l 553 580 l 410 792 b 466 913 352 878 358 899 l 466 979 l 8 979 l 8 913 b 164 806 85 899 112 882 l 387 476 z "},"Ẋ":{"ha":985,"x_min":0,"x_max":0,"o":"m 545 1077 b 634 1161 595 1077 634 1113 b 545 1246 634 1210 595 1246 b 456 1161 496 1246 456 1210 b 545 1077 456 1113 496 1077 z m 193 202 b 1 66 116 94 92 75 l 1 0 l 345 0 l 345 66 b 289 187 237 80 232 100 l 433 407 l 583 187 b 526 66 640 102 634 80 l 526 0 l 984 0 l 984 66 b 828 174 909 81 880 98 l 600 511 l 789 782 b 977 913 861 886 888 904 l 977 979 l 634 979 l 634 913 b 690 792 743 899 747 879 l 553 580 l 410 792 b 466 913 352 878 358 899 l 466 979 l 8 979 l 8 913 b 164 806 85 899 112 882 l 387 476 z "},"Y":{"ha":968,"x_min":0,"x_max":0,"o":"m 157 788 l 384 418 l 384 159 b 260 66 384 94 369 77 l 260 0 l 711 0 l 711 66 b 588 159 602 77 588 94 l 588 427 l 810 788 b 972 913 871 886 892 903 l 972 979 l 650 979 l 650 913 b 709 789 756 902 760 880 l 547 503 l 378 789 b 437 913 326 879 332 902 l 437 979 l -5 979 l -5 913 b 157 788 76 903 97 884 z "},"Ý":{"ha":968,"x_min":0,"x_max":0,"o":"m 522 1061 l 744 1255 l 744 1262 l 545 1262 l 440 1061 z m 157 788 l 384 418 l 384 159 b 260 66 384 94 369 77 l 260 0 l 711 0 l 711 66 b 588 159 602 77 588 94 l 588 427 l 810 788 b 972 913 871 886 892 903 l 972 979 l 650 979 l 650 913 b 709 789 756 902 760 880 l 547 503 l 378 789 b 437 913 326 879 332 902 l 437 979 l -5 979 l -5 913 b 157 788 76 903 97 884 z "},"Ỳ":{"ha":968,"x_min":0,"x_max":0,"o":"m 562 1061 l 643 1061 l 545 1262 l 337 1262 l 337 1255 z m 157 788 l 384 418 l 384 159 b 260 66 384 94 369 77 l 260 0 l 711 0 l 711 66 b 588 159 602 77 588 94 l 588 427 l 810 788 b 972 913 871 886 892 903 l 972 979 l 650 979 l 650 913 b 709 789 756 902 760 880 l 547 503 l 378 789 b 437 913 326 879 332 902 l 437 979 l -5 979 l -5 913 b 157 788 76 903 97 884 z "},"Ŷ":{"ha":968,"x_min":0,"x_max":0,"o":"m 408 1061 l 543 1161 l 676 1061 l 758 1061 l 612 1262 l 474 1262 l 328 1061 z m 157 788 l 384 418 l 384 159 b 260 66 384 94 369 77 l 260 0 l 711 0 l 711 66 b 588 159 602 77 588 94 l 588 427 l 810 788 b 972 913 871 886 892 903 l 972 979 l 650 979 l 650 913 b 709 789 756 902 760 880 l 547 503 l 378 789 b 437 913 326 879 332 902 l 437 979 l -5 979 l -5 913 b 157 788 76 903 97 884 z "},"Ÿ":{"ha":968,"x_min":0,"x_max":0,"o":"m 410 1079 b 496 1162 458 1079 496 1114 b 410 1246 496 1211 458 1246 b 325 1162 363 1246 325 1211 b 410 1079 325 1114 363 1079 z m 656 1079 b 743 1162 705 1079 743 1114 b 656 1246 743 1211 705 1246 b 571 1162 609 1246 571 1211 b 656 1079 571 1114 609 1079 z m 157 788 l 384 418 l 384 159 b 260 66 384 94 369 77 l 260 0 l 711 0 l 711 66 b 588 159 602 77 588 94 l 588 427 l 810 788 b 972 913 871 886 892 903 l 972 979 l 650 979 l 650 913 b 709 789 756 902 760 880 l 547 503 l 378 789 b 437 913 326 879 332 902 l 437 979 l -5 979 l -5 913 b 157 788 76 903 97 884 z "},"Ỹ":{"ha":968,"x_min":0,"x_max":0,"o":"m 621 1063 b 748 1261 691 1063 748 1119 l 673 1261 b 631 1177 671 1199 659 1177 b 575 1201 612 1177 595 1186 l 555 1217 b 447 1259 519 1242 488 1259 b 319 1061 376 1259 319 1203 l 394 1061 b 437 1145 395 1123 409 1145 b 492 1120 456 1145 471 1136 l 513 1105 b 621 1063 548 1080 578 1063 z m 157 788 l 384 418 l 384 159 b 260 66 384 94 369 77 l 260 0 l 711 0 l 711 66 b 588 159 602 77 588 94 l 588 427 l 810 788 b 972 913 871 886 892 903 l 972 979 l 650 979 l 650 913 b 709 789 756 902 760 880 l 547 503 l 378 789 b 437 913 326 879 332 902 l 437 979 l -5 979 l -5 913 b 157 788 76 903 97 884 z "},"Ȳ":{"ha":968,"x_min":0,"x_max":0,"o":"m 334 1096 l 732 1096 l 732 1196 l 334 1196 z m 157 788 l 384 418 l 384 159 b 260 66 384 94 369 77 l 260 0 l 711 0 l 711 66 b 588 159 602 77 588 94 l 588 427 l 810 788 b 972 913 871 886 892 903 l 972 979 l 650 979 l 650 913 b 709 789 756 902 760 880 l 547 503 l 378 789 b 437 913 326 879 332 902 l 437 979 l -5 979 l -5 913 b 157 788 76 903 97 884 z "},"Ỷ":{"ha":968,"x_min":0,"x_max":0,"o":"m 553 1294 b 403 1239 482 1294 431 1266 l 403 1190 b 492 1214 421 1202 455 1214 b 564 1166 537 1214 564 1196 b 471 1067 564 1136 536 1109 l 540 1067 b 687 1198 648 1110 687 1148 b 553 1294 687 1255 634 1294 z m 157 788 l 384 418 l 384 159 b 260 66 384 94 369 77 l 260 0 l 711 0 l 711 66 b 588 159 602 77 588 94 l 588 427 l 810 788 b 972 913 871 886 892 903 l 972 979 l 650 979 l 650 913 b 709 789 756 902 760 880 l 547 503 l 378 789 b 437 913 326 879 332 902 l 437 979 l -5 979 l -5 913 b 157 788 76 903 97 884 z "},"Ẏ":{"ha":968,"x_min":0,"x_max":0,"o":"m 533 1077 b 622 1161 583 1077 622 1113 b 533 1246 622 1210 583 1246 b 444 1161 484 1246 444 1210 b 533 1077 444 1113 484 1077 z m 157 788 l 384 418 l 384 159 b 260 66 384 94 369 77 l 260 0 l 711 0 l 711 66 b 588 159 602 77 588 94 l 588 427 l 810 788 b 972 913 871 886 892 903 l 972 979 l 650 979 l 650 913 b 709 789 756 902 760 880 l 547 503 l 378 789 b 437 913 326 879 332 902 l 437 979 l -5 979 l -5 913 b 157 788 76 903 97 884 z "},"Ỵ":{"ha":968,"x_min":0,"x_max":0,"o":"m 157 788 l 384 418 l 384 159 b 260 66 384 94 369 77 l 260 0 l 711 0 l 711 66 b 588 159 602 77 588 94 l 588 427 l 810 788 b 972 913 871 886 892 903 l 972 979 l 650 979 l 650 913 b 709 789 756 902 760 880 l 547 503 l 378 789 b 437 913 326 879 332 902 l 437 979 l -5 979 l -5 913 b 157 788 76 903 97 884 z m 492 -119 b 404 -203 443 -119 404 -155 b 492 -288 404 -252 443 -288 b 581 -203 541 -288 581 -252 b 492 -119 581 -155 541 -119 z "},"Z":{"ha":887,"x_min":0,"x_max":0,"o":"m 825 0 l 835 292 l 773 292 b 501 83 735 106 681 90 l 288 76 l 827 918 l 827 979 l 68 979 l 62 720 l 123 720 b 352 897 154 865 187 891 l 593 903 l 54 62 l 54 0 z "},"Ź":{"ha":887,"x_min":0,"x_max":0,"o":"m 435 1061 l 658 1255 l 658 1262 l 458 1262 l 354 1061 z m 825 0 l 835 292 l 773 292 b 501 83 735 106 681 90 l 288 76 l 827 918 l 827 979 l 68 979 l 62 720 l 123 720 b 352 897 154 865 187 891 l 593 903 l 54 62 l 54 0 z "},"Ẑ":{"ha":887,"x_min":0,"x_max":0,"o":"m 321 1061 l 457 1161 l 590 1061 l 672 1061 l 526 1262 l 388 1262 l 242 1061 z m 825 0 l 835 292 l 773 292 b 501 83 735 106 681 90 l 288 76 l 827 918 l 827 979 l 68 979 l 62 720 l 123 720 b 352 897 154 865 187 891 l 593 903 l 54 62 l 54 0 z "},"Ž":{"ha":887,"x_min":0,"x_max":0,"o":"m 591 1261 l 456 1160 l 323 1261 l 240 1261 l 387 1060 l 525 1060 l 671 1261 z m 825 0 l 835 292 l 773 292 b 501 83 735 106 681 90 l 288 76 l 827 918 l 827 979 l 68 979 l 62 720 l 123 720 b 352 897 154 865 187 891 l 593 903 l 54 62 l 54 0 z "},"Ẕ":{"ha":887,"x_min":0,"x_max":0,"o":"m 825 0 l 835 292 l 773 292 b 501 83 735 106 681 90 l 288 76 l 827 918 l 827 979 l 68 979 l 62 720 l 123 720 b 352 897 154 865 187 891 l 593 903 l 54 62 l 54 0 z m 240 -252 l 652 -252 l 652 -154 l 240 -154 z "},"Ż":{"ha":887,"x_min":0,"x_max":0,"o":"m 448 1077 b 536 1161 496 1077 536 1113 b 448 1246 536 1210 496 1246 b 359 1161 398 1246 359 1210 b 448 1077 359 1113 398 1077 z m 825 0 l 835 292 l 773 292 b 501 83 735 106 681 90 l 288 76 l 827 918 l 827 979 l 68 979 l 62 720 l 123 720 b 352 897 154 865 187 891 l 593 903 l 54 62 l 54 0 z "},"Ẓ":{"ha":887,"x_min":0,"x_max":0,"o":"m 825 0 l 835 292 l 773 292 b 501 83 735 106 681 90 l 288 76 l 827 918 l 827 979 l 68 979 l 62 720 l 123 720 b 352 897 154 865 187 891 l 593 903 l 54 62 l 54 0 z m 446 -119 b 357 -203 397 -119 357 -155 b 446 -288 357 -252 397 -288 b 535 -203 495 -288 535 -252 b 446 -119 535 -155 496 -119 z "},"Æ":{"ha":1360,"x_min":0,"x_max":0,"o":"m 1267 979 l 542 979 l 153 199 b -11 66 100 91 73 75 l -11 0 l 326 0 l 326 66 b 260 201 229 79 215 106 l 345 376 l 659 376 l 661 146 b 554 66 662 87 650 76 l 554 0 l 1303 0 l 1311 292 l 1249 292 b 996 82 1215 106 1176 90 l 854 76 l 850 463 l 984 463 b 1069 328 1031 463 1048 444 l 1127 328 l 1123 673 l 1065 673 b 982 538 1044 556 1029 538 l 848 538 l 844 903 l 980 898 b 1215 720 1135 891 1178 867 l 1277 720 z m 597 903 l 652 903 l 658 457 l 383 457 z "},"Ǽ":{"ha":1360,"x_min":0,"x_max":0,"o":"m 854 1061 l 1078 1255 l 1078 1262 l 878 1262 l 774 1061 z m 1267 979 l 542 979 l 153 199 b -11 66 100 91 73 75 l -11 0 l 326 0 l 326 66 b 260 201 229 79 215 106 l 345 376 l 659 376 l 661 146 b 554 66 662 87 650 76 l 554 0 l 1303 0 l 1311 292 l 1249 292 b 996 82 1215 106 1176 90 l 854 76 l 850 463 l 984 463 b 1069 328 1031 463 1048 444 l 1127 328 l 1123 673 l 1065 673 b 982 538 1044 556 1029 538 l 848 538 l 844 903 l 980 898 b 1215 720 1135 891 1178 867 l 1277 720 z m 597 903 l 652 903 l 658 457 l 383 457 z "},"Ǣ":{"ha":1360,"x_min":0,"x_max":0,"o":"m 667 1096 l 1066 1096 l 1066 1196 l 667 1196 z m 1267 979 l 542 979 l 153 199 b -11 66 100 91 73 75 l -11 0 l 326 0 l 326 66 b 260 201 229 79 215 106 l 345 376 l 659 376 l 661 146 b 554 66 662 87 650 76 l 554 0 l 1303 0 l 1311 292 l 1249 292 b 996 82 1215 106 1176 90 l 854 76 l 850 463 l 984 463 b 1069 328 1031 463 1048 444 l 1127 328 l 1123 673 l 1065 673 b 982 538 1044 556 1029 538 l 848 538 l 844 903 l 980 898 b 1215 720 1135 891 1178 867 l 1277 720 z m 597 903 l 652 903 l 658 457 l 383 457 z "},"Œ":{"ha":1457,"x_min":0,"x_max":0,"o":"m 67 484 b 579 -21 67 208 275 -21 b 855 0 690 -21 755 0 l 1398 0 l 1407 292 l 1345 292 b 1090 81 1308 106 1270 87 l 918 76 l 918 463 l 1084 463 b 1168 328 1131 463 1148 444 l 1225 328 l 1225 673 l 1168 673 b 1084 538 1145 556 1130 538 l 918 538 l 918 903 l 1086 899 b 1318 720 1240 893 1283 866 l 1379 720 l 1373 979 l 859 979 b 595 1000 758 979 706 1000 b 67 484 275 1000 67 780 z m 288 490 b 617 911 288 726 410 911 b 714 895 654 911 687 906 l 714 83 b 608 68 684 73 646 68 b 288 490 406 68 288 252 z "},"Ə":{"ha":1035,"x_min":0,"x_max":0,"o":"m 484 -21 b 968 485 769 -21 968 172 b 460 1000 968 817 764 1000 b 112 926 304 1000 174 966 l 104 694 l 166 694 b 437 909 203 844 294 909 b 745 488 635 909 743 760 l 68 488 b 60 408 63 465 60 437 b 484 -21 60 161 197 -21 z m 258 394 b 259 410 258 399 258 405 l 743 410 b 488 70 728 190 638 70 b 258 394 324 70 258 208 z "},"ẞ":{"ha":1059,"x_min":0,"x_max":0,"o":"m 362 0 l 362 903 l 498 899 b 762 722 684 892 762 821 b 603 566 762 635 703 580 l 603 446 b 819 216 735 414 819 334 b 690 69 819 119 765 69 b 521 260 604 69 541 139 l 460 260 l 460 43 b 696 -20 503 9 591 -20 b 1000 254 843 -20 1000 66 b 784 565 1000 405 913 519 b 959 746 882 579 959 648 b 559 979 959 886 838 979 l 43 979 l 43 913 b 158 829 146 903 158 890 l 158 150 b 43 66 158 90 146 77 l 43 0 z "},"Þ":{"ha":943,"x_min":0,"x_max":0,"o":"m 895 501 b 481 768 895 686 730 768 l 362 768 l 362 821 b 486 913 362 886 377 902 l 486 979 l 43 979 l 43 913 b 158 830 146 903 158 890 l 158 149 b 43 66 158 90 146 77 l 43 0 l 486 0 l 486 66 b 362 159 377 77 362 94 l 362 219 l 481 219 b 895 501 724 220 895 315 z m 678 489 b 420 296 678 361 587 302 l 362 295 l 362 692 l 420 690 b 678 489 588 686 678 616 z "},"Ĳ":{"ha":1042,"x_min":0,"x_max":0,"o":"m 362 150 l 362 829 b 477 913 362 890 374 903 l 477 979 l 43 979 l 43 913 b 158 829 146 903 158 890 l 158 150 b 43 66 158 90 146 77 l 43 0 l 477 0 l 477 66 b 362 150 374 77 362 90 z m 883 190 l 883 829 b 998 913 883 890 895 903 l 998 979 l 564 979 l 564 913 b 679 829 667 903 679 890 l 679 174 b 496 -233 679 -37 631 -133 l 529 -287 b 883 190 782 -155 883 -58 z "},"Ǳ":{"ha":1984,"x_min":0,"x_max":0,"o":"m 1039 504 b 484 979 1039 806 806 979 l 43 979 l 43 913 b 158 829 146 903 158 890 l 158 150 b 43 66 158 90 146 77 l 43 0 l 492 0 b 1039 504 787 0 1039 198 z m 1923 0 l 1932 292 l 1871 292 b 1599 83 1833 106 1779 90 l 1385 76 l 1925 918 l 1925 979 l 1166 979 l 1159 720 l 1221 720 b 1450 897 1252 865 1285 891 l 1690 903 l 1152 62 l 1152 0 z m 814 492 b 449 79 814 240 670 85 l 362 76 l 362 903 l 449 901 b 814 492 671 893 814 736 z "},"Ǆ":{"ha":1984,"x_min":0,"x_max":0,"o":"m 1689 1261 l 1554 1160 l 1421 1261 l 1338 1261 l 1484 1060 l 1622 1060 l 1768 1261 z m 1039 504 b 484 979 1039 806 806 979 l 43 979 l 43 913 b 158 829 146 903 158 890 l 158 150 b 43 66 158 90 146 77 l 43 0 l 492 0 b 1039 504 787 0 1039 198 z m 1923 0 l 1932 292 l 1871 292 b 1599 83 1833 106 1779 90 l 1385 76 l 1925 918 l 1925 979 l 1166 979 l 1159 720 l 1221 720 b 1450 897 1252 865 1285 891 l 1690 903 l 1152 62 l 1152 0 z m 814 492 b 449 79 814 240 670 85 l 362 76 l 362 903 l 449 901 b 814 492 671 893 814 736 z "},"Ǌ":{"ha":1609,"x_min":0,"x_max":0,"o":"m 358 979 l 29 979 l 29 913 b 137 814 125 901 137 886 l 134 156 b 26 66 134 92 123 79 l 26 0 l 350 0 l 350 66 b 236 157 250 77 237 90 l 223 802 l 728 0 l 949 0 l 954 823 b 1062 913 955 888 966 901 l 1062 979 l 739 979 l 739 913 b 852 822 840 903 852 890 l 865 175 z m 1451 190 l 1451 829 b 1566 913 1451 890 1463 903 l 1566 979 l 1133 979 l 1133 913 b 1247 829 1236 903 1247 890 l 1247 174 b 1064 -233 1247 -37 1200 -133 l 1097 -287 b 1451 190 1350 -155 1451 -58 z "},"Ǉ":{"ha":1362,"x_min":0,"x_max":0,"o":"m 798 0 l 808 318 l 746 318 b 500 80 699 113 646 85 l 362 76 l 362 825 b 486 913 362 888 377 902 l 486 979 l 43 979 l 43 913 b 158 829 146 903 158 890 l 158 150 b 43 66 158 90 146 77 l 43 0 z m 1204 190 l 1204 829 b 1319 913 1204 890 1216 903 l 1319 979 l 886 979 l 886 913 b 1000 829 989 903 1000 890 l 1000 174 b 817 -233 1000 -37 953 -133 l 850 -287 b 1204 190 1103 -155 1204 -58 z "},"ǲ":{"ha":1787,"x_min":0,"x_max":0,"o":"m 1039 504 b 484 979 1039 806 806 979 l 43 979 l 43 913 b 158 829 146 903 158 890 l 158 150 b 43 66 158 90 146 77 l 43 0 l 492 0 b 1039 504 787 0 1039 198 z m 814 492 b 449 79 814 240 670 85 l 362 76 l 362 903 l 449 901 b 814 492 671 893 814 736 z m 1153 690 l 1148 473 l 1209 473 b 1373 611 1243 589 1270 608 l 1514 616 l 1143 59 l 1143 0 l 1736 0 l 1741 228 l 1679 228 b 1525 79 1651 101 1615 81 l 1361 73 l 1735 631 l 1735 690 z "},"ǅ":{"ha":1787,"x_min":0,"x_max":0,"o":"m 1598 1054 l 1451 919 l 1306 1054 l 1221 1054 l 1383 794 l 1518 794 l 1681 1054 z m 1039 504 b 484 979 1039 806 806 979 l 43 979 l 43 913 b 158 829 146 903 158 890 l 158 150 b 43 66 158 90 146 77 l 43 0 l 492 0 b 1039 504 787 0 1039 198 z m 814 492 b 449 79 814 240 670 85 l 362 76 l 362 903 l 449 901 b 814 492 671 893 814 736 z m 1153 690 l 1148 473 l 1209 473 b 1373 611 1243 589 1270 608 l 1514 616 l 1143 59 l 1143 0 l 1736 0 l 1741 228 l 1679 228 b 1525 79 1651 101 1615 81 l 1361 73 l 1735 631 l 1735 690 z "},"ǋ":{"ha":1527,"x_min":0,"x_max":0,"o":"m 1298 819 b 1407 924 1359 819 1407 863 b 1298 1028 1407 984 1359 1028 b 1189 924 1238 1028 1189 984 b 1298 819 1189 863 1238 819 z m 358 979 l 29 979 l 29 913 b 137 814 125 901 137 886 l 134 156 b 26 66 134 92 123 79 l 26 0 l 350 0 l 350 66 b 236 157 250 77 237 90 l 223 802 l 728 0 l 949 0 l 954 823 b 1062 913 955 888 966 901 l 1062 979 l 739 979 l 739 913 b 852 822 840 903 852 890 l 865 175 z m 1409 699 l 1124 664 l 1124 604 l 1175 591 b 1220 533 1214 581 1220 571 l 1220 109 b 1088 -273 1220 -81 1198 -178 l 1126 -327 l 1174 -295 b 1409 131 1356 -172 1409 -67 z "},"ǈ":{"ha":1280,"x_min":0,"x_max":0,"o":"m 1051 819 b 1161 924 1112 819 1161 863 b 1051 1028 1161 984 1112 1028 b 942 924 991 1028 942 984 b 1051 819 942 863 991 819 z m 798 0 l 808 318 l 746 318 b 500 80 699 113 646 85 l 362 76 l 362 825 b 486 913 362 888 377 902 l 486 979 l 43 979 l 43 913 b 158 829 146 903 158 890 l 158 150 b 43 66 158 90 146 77 l 43 0 z m 1162 699 l 877 664 l 877 604 l 928 591 b 973 533 967 581 973 571 l 973 109 b 842 -273 973 -81 951 -178 l 879 -327 l 927 -295 b 1162 131 1109 -172 1162 -67 z "},"Α":{"ha":1014,"x_min":0,"x_max":0,"o":"m 876 198 l 589 979 l 426 979 l 140 201 b -5 66 100 93 83 77 l -5 0 l 327 0 l 327 66 b 241 199 220 80 208 98 l 284 323 l 621 323 l 664 199 b 578 66 699 98 685 80 l 578 0 l 1019 0 l 1019 66 b 876 198 935 77 915 93 z m 311 404 l 452 814 l 593 404 z "},"Β":{"ha":990,"x_min":0,"x_max":0,"o":"m 932 288 b 644 535 932 436 815 519 b 881 742 778 551 881 622 b 509 979 881 889 749 979 l 43 979 l 43 913 b 158 829 146 903 158 890 l 158 150 b 43 66 158 90 146 77 l 43 0 l 509 0 b 932 288 745 0 932 102 z m 673 719 b 467 549 673 614 602 549 l 362 549 l 362 903 l 448 901 b 673 719 605 896 673 829 z m 715 275 b 448 79 715 142 610 83 l 362 76 l 362 473 l 467 473 b 715 275 627 473 715 404 z "},"Γ":{"ha":833,"x_min":0,"x_max":0,"o":"m 43 0 l 486 0 l 486 66 b 362 159 377 77 362 94 l 362 903 l 500 899 b 736 722 654 895 702 867 l 798 722 l 791 979 l 43 979 l 43 913 b 158 829 146 903 158 890 l 158 150 b 43 66 158 90 146 77 z "},"Δ":{"ha":937,"x_min":0,"x_max":0,"o":"m 28 0 l 909 0 l 909 102 l 553 979 l 385 979 l 28 103 z m 146 140 l 413 829 l 679 140 z "},"Ε":{"ha":912,"x_min":0,"x_max":0,"o":"m 822 979 l 43 979 l 43 913 b 158 829 146 903 158 890 l 158 150 b 43 66 158 90 146 77 l 43 0 l 852 0 l 861 292 l 800 292 b 540 82 762 106 723 88 l 362 76 l 362 463 l 530 463 b 614 328 578 463 594 444 l 673 328 l 673 673 l 614 673 b 530 538 591 556 576 538 l 362 538 l 362 903 l 534 898 b 768 720 690 893 732 866 l 829 720 z "},"Ζ":{"ha":887,"x_min":0,"x_max":0,"o":"m 825 0 l 835 292 l 773 292 b 501 83 735 106 681 90 l 288 76 l 827 918 l 827 979 l 68 979 l 62 720 l 123 720 b 352 897 154 865 187 891 l 593 903 l 54 62 l 54 0 z "},"Η":{"ha":1164,"x_min":0,"x_max":0,"o":"m 362 146 l 362 460 l 802 460 l 802 146 b 695 66 802 87 791 76 l 695 0 l 1121 0 l 1121 66 b 1006 150 1020 76 1006 89 l 1006 829 b 1121 913 1006 890 1020 903 l 1121 979 l 695 979 l 695 913 b 802 833 791 903 802 892 l 802 541 l 362 541 l 362 832 b 470 913 362 890 375 902 l 470 979 l 43 979 l 43 913 b 158 829 146 903 158 890 l 158 150 b 43 66 158 90 146 77 l 43 0 l 470 0 l 470 66 b 362 146 375 77 362 89 z "},"Θ":{"ha":1164,"x_min":0,"x_max":0,"o":"m 579 -21 b 1097 490 893 -21 1097 203 b 585 1000 1097 804 859 1000 b 66 489 271 1000 66 776 b 579 -21 66 175 305 -21 z m 591 64 b 281 502 397 64 281 260 b 574 916 281 735 368 916 b 884 477 768 916 884 720 b 591 64 884 243 796 64 z m 383 309 l 435 309 b 522 437 458 417 467 437 l 638 437 b 724 309 694 437 703 417 l 777 309 l 777 654 l 724 654 b 638 524 703 545 694 524 l 522 524 b 435 654 467 524 458 545 l 383 654 z "},"Ι":{"ha":521,"x_min":0,"x_max":0,"o":"m 362 150 l 362 829 b 477 913 362 890 374 903 l 477 979 l 43 979 l 43 913 b 158 829 146 903 158 890 l 158 150 b 43 66 158 90 146 77 l 43 0 l 477 0 l 477 66 b 362 150 374 77 362 90 z "},"Κ":{"ha":996,"x_min":0,"x_max":0,"o":"m 362 146 l 362 465 l 468 465 l 751 0 l 1001 0 l 1001 62 b 827 256 950 77 918 109 l 612 602 b 750 755 654 651 699 701 b 983 913 853 867 901 901 l 983 979 l 621 979 l 621 913 b 671 795 726 905 739 879 l 465 543 l 362 543 l 362 832 b 470 913 362 890 375 902 l 470 979 l 43 979 l 43 913 b 158 829 146 903 158 890 l 158 150 b 43 66 158 90 146 77 l 43 0 l 470 0 l 470 66 b 362 146 375 77 362 89 z "},"Λ":{"ha":1015,"x_min":0,"x_max":0,"o":"m 3 0 l 334 0 l 334 66 b 245 191 224 79 218 104 l 452 811 l 662 182 b 570 66 692 92 662 79 l 570 0 l 1013 0 l 1013 66 b 872 193 935 75 909 89 l 593 979 l 424 979 l 140 183 b 3 66 106 92 83 75 z "},"Μ":{"ha":1309,"x_min":0,"x_max":0,"o":"m 390 979 l 45 979 l 45 913 b 153 814 140 903 155 886 l 138 156 b 31 66 136 90 125 77 l 31 0 l 348 0 l 348 66 b 239 158 251 77 240 91 l 239 831 l 545 0 l 657 0 l 743 249 l 948 827 l 962 146 b 855 66 964 87 951 76 l 855 0 l 1279 0 l 1279 66 b 1164 150 1177 76 1165 89 l 1149 829 b 1264 913 1148 890 1162 903 l 1264 979 l 909 980 l 661 223 z "},"Ν":{"ha":1088,"x_min":0,"x_max":0,"o":"m 358 979 l 29 979 l 29 913 b 137 814 125 901 137 886 l 134 156 b 26 66 134 92 123 79 l 26 0 l 350 0 l 350 66 b 236 157 250 77 237 90 l 223 802 l 728 0 l 949 0 l 954 823 b 1062 913 955 888 966 901 l 1062 979 l 739 979 l 739 913 b 852 822 840 903 852 890 l 865 175 z "},"Ξ":{"ha":937,"x_min":0,"x_max":0,"o":"m 52 685 l 113 685 b 345 840 144 817 191 840 l 593 840 b 824 685 747 840 793 817 l 886 685 l 875 979 l 62 979 z m 218 328 l 275 328 b 393 453 294 428 319 453 l 544 453 b 663 328 618 453 644 428 l 720 328 l 720 659 l 663 659 b 544 534 644 559 618 534 l 393 534 b 275 659 319 534 294 559 l 218 659 z m 60 0 l 878 0 l 890 322 l 829 322 b 570 140 795 157 752 140 l 368 140 b 109 322 186 140 142 157 l 47 322 z "},"Ο":{"ha":1160,"x_min":0,"x_max":0,"o":"m 67 489 b 578 -21 67 175 304 -21 b 1093 490 890 -21 1093 203 b 581 1000 1093 804 855 1000 b 67 489 270 1000 67 776 z m 294 502 b 572 909 294 728 376 909 b 866 477 755 909 866 713 b 587 70 866 252 785 70 b 294 502 404 70 294 267 z "},"Π":{"ha":1137,"x_min":0,"x_max":0,"o":"m 43 0 l 470 0 l 470 66 b 362 146 375 77 362 89 l 362 899 l 775 899 l 775 146 b 668 66 775 89 762 77 l 668 0 l 1094 0 l 1094 66 b 979 150 991 77 979 90 l 979 829 b 1094 913 979 890 991 903 l 1094 979 l 43 979 l 43 913 b 158 829 146 903 158 890 l 158 150 b 43 66 158 90 146 77 z "},"Ρ":{"ha":952,"x_min":0,"x_max":0,"o":"m 901 684 b 479 979 901 881 741 979 l 43 979 l 43 913 b 158 829 146 903 158 890 l 158 150 b 43 66 158 90 146 77 l 43 0 l 486 0 l 486 66 b 362 159 377 77 362 94 l 362 370 l 479 370 b 901 684 731 370 901 482 z m 684 673 b 419 448 684 529 595 456 l 362 446 l 362 903 l 419 901 b 684 673 598 894 684 813 z "},"Σ":{"ha":905,"x_min":0,"x_max":0,"o":"m 52 0 l 827 0 l 836 329 l 767 329 b 510 140 734 161 691 140 l 188 140 l 551 521 l 551 545 l 296 905 l 522 898 b 747 722 679 892 712 859 l 810 722 l 803 979 l 52 979 l 52 918 l 373 464 l 52 100 z "},"Τ":{"ha":960,"x_min":0,"x_max":0,"o":"m 918 979 l 42 979 l 35 720 l 96 720 b 341 903 124 874 167 897 l 378 903 l 378 159 b 254 66 378 94 363 77 l 254 0 l 706 0 l 706 66 b 582 159 596 77 582 94 l 582 903 l 618 903 b 864 720 793 897 836 874 l 925 720 z "},"Υ":{"ha":968,"x_min":0,"x_max":0,"o":"m 157 788 l 384 418 l 384 159 b 260 66 384 94 369 77 l 260 0 l 711 0 l 711 66 b 588 159 602 77 588 94 l 588 427 l 810 788 b 972 913 871 886 892 903 l 972 979 l 650 979 l 650 913 b 709 789 756 902 760 880 l 547 503 l 378 789 b 437 913 326 879 332 902 l 437 979 l -5 979 l -5 913 b 157 788 76 903 97 884 z "},"Φ":{"ha":1276,"x_min":0,"x_max":0,"o":"m 418 0 l 856 0 l 856 66 b 732 149 752 77 734 92 b 1217 490 1024 158 1217 277 b 732 829 1217 707 1026 820 b 856 913 733 888 751 903 l 856 979 l 418 979 l 418 913 b 542 829 522 903 541 888 b 57 487 258 819 57 703 b 541 149 57 272 239 157 b 418 66 540 92 521 77 z m 1009 488 b 732 229 1009 332 902 241 l 732 749 b 1009 488 909 738 1009 646 z m 264 492 b 542 749 264 644 368 737 l 542 229 b 264 492 368 241 264 331 z "},"Χ":{"ha":985,"x_min":0,"x_max":0,"o":"m 193 202 b 1 66 116 94 92 75 l 1 0 l 345 0 l 345 66 b 289 187 237 80 232 100 l 433 407 l 583 187 b 526 66 640 102 634 80 l 526 0 l 984 0 l 984 66 b 828 174 909 81 880 98 l 600 511 l 789 782 b 977 913 861 886 888 904 l 977 979 l 634 979 l 634 913 b 690 792 743 899 747 879 l 553 580 l 410 792 b 466 913 352 878 358 899 l 466 979 l 8 979 l 8 913 b 164 806 85 899 112 882 l 387 476 z "},"Ψ":{"ha":1231,"x_min":0,"x_max":0,"o":"m 396 0 l 836 0 l 836 66 b 711 159 726 77 711 94 l 711 330 b 1083 657 933 341 1049 433 l 1105 800 b 1204 905 1117 882 1139 903 l 1204 971 b 1106 979 1184 975 1145 979 b 926 804 1000 979 948 939 l 903 654 b 711 412 879 501 831 428 l 711 832 b 819 913 711 891 724 903 l 819 979 l 412 979 l 412 913 b 519 832 507 903 519 891 l 519 412 b 328 654 399 428 351 502 l 304 804 b 125 979 283 939 231 979 b 26 971 85 979 46 975 l 26 905 b 126 800 93 903 114 882 l 148 657 b 519 330 182 433 298 341 l 519 159 b 396 66 519 94 505 77 z "},"Ω":{"ha":1074,"x_min":0,"x_max":0,"o":"m 54 0 l 472 0 l 472 243 b 248 583 323 287 248 401 b 532 910 248 790 363 910 b 827 574 707 910 827 785 b 604 242 827 393 739 281 l 604 0 l 1021 0 l 1055 256 l 1002 256 b 680 115 958 147 886 115 l 680 195 b 1036 581 878 224 1036 353 b 538 1000 1036 822 835 1000 b 39 570 232 1000 39 817 b 395 195 39 351 196 223 l 395 115 b 72 256 195 115 121 144 l 20 256 z "},"Ω":{"ha":1074,"x_min":0,"x_max":0,"o":"m 54 0 l 472 0 l 472 243 b 248 583 323 287 248 401 b 532 910 248 790 363 910 b 827 574 707 910 827 785 b 604 242 827 393 739 281 l 604 0 l 1021 0 l 1055 256 l 1002 256 b 680 115 958 147 886 115 l 680 195 b 1036 581 878 224 1036 353 b 538 1000 1036 822 835 1000 b 39 570 232 1000 39 817 b 395 195 39 351 196 223 l 395 115 b 72 256 195 115 121 144 l 20 256 z "},"Ά":{"ha":1019,"x_min":0,"x_max":0,"o":"m 876 198 l 589 979 l 426 979 l 140 201 b -5 66 100 93 83 77 l -5 0 l 327 0 l 327 66 b 241 199 220 80 208 98 l 284 323 l 621 323 l 664 199 b 578 66 699 98 685 80 l 578 0 l 1019 0 l 1019 66 b 876 198 935 77 915 93 z m 87 719 l 173 719 l 309 970 l 309 979 l 127 979 z m 311 404 l 452 814 l 593 404 z "},"Έ":{"ha":1147,"x_min":0,"x_max":0,"o":"m 1057 979 l 279 979 l 279 913 b 394 829 382 903 394 890 l 394 150 b 279 66 394 90 382 77 l 279 0 l 1088 0 l 1097 292 l 1036 292 b 776 82 998 106 959 88 l 598 76 l 598 463 l 766 463 b 850 328 813 463 830 444 l 908 328 l 908 673 l 850 673 b 766 538 827 556 812 538 l 598 538 l 598 903 l 770 898 b 1003 720 925 893 968 866 l 1065 720 z m 0 719 l 85 719 l 222 970 l 222 979 l 40 979 z "},"Ή":{"ha":1400,"x_min":0,"x_max":0,"o":"m 598 146 l 598 460 l 1038 460 l 1038 146 b 930 66 1038 87 1027 76 l 930 0 l 1357 0 l 1357 66 b 1242 150 1255 76 1242 89 l 1242 829 b 1357 913 1242 890 1255 903 l 1357 979 l 930 979 l 930 913 b 1038 833 1027 903 1038 892 l 1038 541 l 598 541 l 598 832 b 706 913 598 890 611 902 l 706 979 l 279 979 l 279 913 b 394 829 382 903 394 890 l 394 150 b 279 66 394 90 382 77 l 279 0 l 706 0 l 706 66 b 598 146 610 77 598 89 z m 0 719 l 85 719 l 222 970 l 222 979 l 40 979 z "},"Ί":{"ha":753,"x_min":0,"x_max":0,"o":"m 595 150 l 595 829 b 709 913 595 890 606 903 l 709 979 l 276 979 l 276 913 b 391 829 379 903 391 890 l 391 150 b 276 66 391 90 379 77 l 276 0 l 709 0 l 709 66 b 595 150 606 77 595 90 z m -3 719 l 82 719 l 219 970 l 219 979 l 37 979 z "},"Ό":{"ha":1245,"x_min":0,"x_max":0,"o":"m 153 489 b 664 -21 153 175 390 -21 b 1178 490 976 -21 1178 203 b 667 1000 1178 804 941 1000 b 153 489 355 1000 153 776 z m -3 719 l 82 719 l 219 970 l 219 979 l 37 979 z m 379 502 b 658 909 379 728 461 909 b 951 477 841 909 951 713 b 673 70 951 252 870 70 b 379 502 490 70 379 267 z "},"Ύ":{"ha":1227,"x_min":0,"x_max":0,"o":"m 416 788 l 644 418 l 644 159 b 519 66 644 94 629 77 l 519 0 l 971 0 l 971 66 b 848 159 862 77 848 94 l 848 427 l 1069 788 b 1232 913 1131 886 1152 903 l 1232 979 l 909 979 l 909 913 b 969 789 1016 902 1020 880 l 806 503 l 638 789 b 697 913 585 879 591 902 l 697 979 l 255 979 l 255 913 b 416 788 336 903 357 884 z m -3 719 l 82 719 l 219 970 l 219 979 l 37 979 z "},"Ώ":{"ha":1208,"x_min":0,"x_max":0,"o":"m 187 0 l 605 0 l 605 243 b 380 583 457 287 380 401 b 666 910 380 790 496 910 b 961 574 840 910 961 785 b 736 242 961 393 871 281 l 736 0 l 1154 0 l 1187 256 l 1135 256 b 813 115 1091 147 1019 115 l 813 195 b 1168 581 1011 224 1168 353 b 671 1000 1168 822 968 1000 b 172 570 365 1000 172 817 b 528 195 172 351 329 223 l 528 115 b 205 256 328 115 254 144 l 153 256 z m -3 719 l 82 719 l 219 970 l 219 979 l 37 979 z "},"Ϊ":{"ha":521,"x_min":0,"x_max":0,"o":"m 138 1079 b 223 1162 185 1079 223 1114 b 138 1246 223 1211 185 1246 b 52 1162 90 1246 52 1211 b 138 1079 52 1114 90 1079 z m 384 1079 b 469 1162 431 1079 469 1114 b 384 1246 469 1211 431 1246 b 298 1162 336 1246 298 1211 b 384 1079 298 1114 336 1079 z m 362 150 l 362 829 b 477 913 362 890 374 903 l 477 979 l 43 979 l 43 913 b 158 829 146 903 158 890 l 158 150 b 43 66 158 90 146 77 l 43 0 l 477 0 l 477 66 b 362 150 374 77 362 90 z "},"Ϋ":{"ha":968,"x_min":0,"x_max":0,"o":"m 410 1079 b 496 1162 458 1079 496 1114 b 410 1246 496 1211 458 1246 b 325 1162 363 1246 325 1211 b 410 1079 325 1114 363 1079 z m 656 1079 b 743 1162 705 1079 743 1114 b 656 1246 743 1211 705 1246 b 571 1162 609 1246 571 1211 b 656 1079 571 1114 609 1079 z m 157 788 l 384 418 l 384 159 b 260 66 384 94 369 77 l 260 0 l 711 0 l 711 66 b 588 159 602 77 588 94 l 588 427 l 810 788 b 972 913 871 886 892 903 l 972 979 l 650 979 l 650 913 b 709 789 756 902 760 880 l 547 503 l 378 789 b 437 913 326 879 332 902 l 437 979 l -5 979 l -5 913 b 157 788 76 903 97 884 z "},"А":{"ha":1014,"x_min":0,"x_max":0,"o":"m 876 198 l 589 979 l 426 979 l 140 201 b -5 66 100 93 83 77 l -5 0 l 327 0 l 327 66 b 241 199 220 80 208 98 l 284 323 l 621 323 l 664 199 b 578 66 699 98 685 80 l 578 0 l 1019 0 l 1019 66 b 876 198 935 77 915 93 z m 311 404 l 452 814 l 593 404 z "},"Ӑ":{"ha":1019,"x_min":0,"x_max":0,"o":"m 508 1075 b 736 1236 645 1075 736 1143 b 656 1322 736 1290 704 1322 b 578 1247 610 1322 578 1289 b 620 1181 578 1217 595 1192 b 507 1149 591 1160 552 1149 b 395 1181 463 1149 423 1160 b 437 1247 420 1192 437 1217 b 359 1322 437 1289 406 1322 b 279 1236 311 1322 279 1290 b 508 1075 279 1143 371 1075 z m 876 198 l 589 979 l 426 979 l 140 201 b -5 66 100 93 83 77 l -5 0 l 327 0 l 327 66 b 241 199 220 80 208 98 l 284 323 l 621 323 l 664 199 b 578 66 699 98 685 80 l 578 0 l 1019 0 l 1019 66 b 876 198 935 77 915 93 z m 311 404 l 452 814 l 593 404 z "},"Б":{"ha":949,"x_min":0,"x_max":0,"o":"m 897 287 b 501 566 897 456 762 566 l 362 566 l 362 903 l 520 898 b 755 722 676 892 720 867 l 816 722 l 809 979 l 43 979 l 43 913 b 158 829 146 903 158 890 l 158 150 b 43 66 158 90 146 77 l 43 0 l 503 0 b 897 287 750 0 897 115 z m 680 283 b 435 80 680 153 598 85 l 362 78 l 362 485 l 435 482 b 680 283 595 477 680 406 z "},"В":{"ha":990,"x_min":0,"x_max":0,"o":"m 932 288 b 644 535 932 436 815 519 b 881 742 778 551 881 622 b 509 979 881 889 749 979 l 43 979 l 43 913 b 158 829 146 903 158 890 l 158 150 b 43 66 158 90 146 77 l 43 0 l 509 0 b 932 288 745 0 932 102 z m 673 719 b 467 549 673 614 602 549 l 362 549 l 362 903 l 448 901 b 673 719 605 896 673 829 z m 715 275 b 448 79 715 142 610 83 l 362 76 l 362 473 l 467 473 b 715 275 627 473 715 404 z "},"Г":{"ha":837,"x_min":0,"x_max":0,"o":"m 791 979 l 43 979 l 43 913 b 158 829 146 903 158 890 l 158 150 b 43 66 158 90 146 77 l 43 0 l 486 0 l 486 66 b 362 159 377 77 362 94 l 362 903 l 500 899 b 736 722 654 895 702 867 l 798 722 z "},"Ґ":{"ha":780,"x_min":0,"x_max":0,"o":"m 43 979 l 43 913 b 158 829 146 903 158 890 l 158 150 b 43 66 158 90 146 77 l 43 0 l 486 0 l 486 66 b 362 159 377 77 362 94 l 362 899 l 755 899 l 761 1185 l 691 1185 b 490 979 634 994 610 979 z "},"Ѓ":{"ha":837,"x_min":0,"x_max":0,"o":"m 422 1061 l 646 1255 l 646 1262 l 446 1262 l 342 1061 z m 791 979 l 43 979 l 43 913 b 158 829 146 903 158 890 l 158 150 b 43 66 158 90 146 77 l 43 0 l 486 0 l 486 66 b 362 159 377 77 362 94 l 362 903 l 500 899 b 736 722 654 895 702 867 l 798 722 z "},"Д":{"ha":1065,"x_min":0,"x_max":0,"o":"m 1023 81 l 887 81 l 887 821 b 1010 913 887 886 901 902 l 1010 979 l 131 979 l 131 913 b 256 804 243 901 260 891 l 249 600 b 125 81 237 349 207 180 l 22 81 l 16 -206 l 85 -206 b 360 0 126 -24 193 0 l 687 0 b 959 -206 863 0 920 -35 l 1028 -206 z m 683 81 l 243 81 b 347 600 307 183 336 338 l 359 899 l 683 899 z "},"Е":{"ha":912,"x_min":0,"x_max":0,"o":"m 822 979 l 43 979 l 43 913 b 158 829 146 903 158 890 l 158 150 b 43 66 158 90 146 77 l 43 0 l 852 0 l 861 292 l 800 292 b 540 82 762 106 723 88 l 362 76 l 362 463 l 530 463 b 614 328 578 463 594 444 l 673 328 l 673 673 l 614 673 b 530 538 591 556 576 538 l 362 538 l 362 903 l 534 898 b 768 720 690 893 732 866 l 829 720 z "},"Ё":{"ha":912,"x_min":0,"x_max":0,"o":"m 354 1079 b 440 1162 402 1079 440 1114 b 354 1246 440 1211 402 1246 b 269 1162 307 1246 269 1211 b 354 1079 269 1114 307 1079 z m 601 1079 b 686 1162 648 1079 686 1114 b 601 1246 686 1211 648 1246 b 515 1162 553 1246 515 1211 b 601 1079 515 1114 553 1079 z m 822 979 l 43 979 l 43 913 b 158 829 146 903 158 890 l 158 150 b 43 66 158 90 146 77 l 43 0 l 852 0 l 861 292 l 800 292 b 540 82 762 106 723 88 l 362 76 l 362 463 l 530 463 b 614 328 578 463 594 444 l 673 328 l 673 673 l 614 673 b 530 538 591 556 576 538 l 362 538 l 362 903 l 534 898 b 768 720 690 893 732 866 l 829 720 z "},"Ж":{"ha":1415,"x_min":0,"x_max":0,"o":"m 238 0 l 519 464 l 607 464 l 607 146 b 499 66 607 87 596 76 l 499 0 l 907 0 l 907 66 b 799 146 810 76 799 87 l 799 464 l 887 464 l 1168 0 l 1420 0 l 1420 62 b 1247 256 1368 77 1337 109 l 1032 606 l 1168 755 b 1402 913 1277 873 1311 899 l 1402 979 l 1040 979 l 1040 913 b 1090 795 1145 905 1158 879 l 884 543 l 799 543 l 799 833 b 907 913 799 892 810 903 l 907 979 l 499 979 l 499 913 b 607 833 596 903 607 892 l 607 543 l 522 543 l 315 795 b 366 913 248 879 261 905 l 366 979 l 3 979 l 3 913 b 233 756 94 899 125 874 l 377 595 l 168 256 b -5 62 79 109 47 77 l -5 0 z "},"З":{"ha":891,"x_min":0,"x_max":0,"o":"m 833 286 b 562 532 833 435 722 515 b 795 760 691 558 795 635 b 424 1000 795 905 674 1000 b 104 924 288 1000 165 964 l 97 701 l 159 701 b 399 909 195 852 273 909 b 583 734 515 909 583 842 b 371 547 583 621 505 547 l 280 547 l 280 469 l 371 469 b 614 273 526 469 614 401 b 390 70 614 144 522 70 b 142 285 267 70 179 123 l 80 285 l 87 62 b 414 -21 157 18 288 -21 b 833 286 647 -21 833 98 z "},"И":{"ha":1184,"x_min":0,"x_max":0,"o":"m 362 146 l 362 164 l 821 694 l 821 146 b 714 66 821 87 810 76 l 714 0 l 1140 0 l 1140 66 b 1025 150 1039 76 1025 89 l 1025 829 b 1140 913 1025 890 1039 903 l 1140 979 l 714 979 l 714 913 b 821 833 810 903 821 892 l 821 815 l 362 285 l 362 832 b 470 913 362 890 375 902 l 470 979 l 43 979 l 43 913 b 158 829 146 903 158 890 l 158 150 b 43 66 158 90 146 77 l 43 0 l 470 0 l 470 66 b 362 146 375 77 362 89 z "},"Й":{"ha":1184,"x_min":0,"x_max":0,"o":"m 593 1075 b 821 1236 730 1075 821 1143 b 741 1322 821 1290 789 1322 b 663 1247 694 1322 663 1289 b 705 1181 663 1217 680 1192 b 592 1149 676 1160 637 1149 b 480 1181 547 1149 508 1160 b 522 1247 505 1192 522 1217 b 444 1322 522 1289 490 1322 b 364 1236 396 1322 364 1290 b 593 1075 364 1143 455 1075 z m 362 146 l 362 164 l 821 694 l 821 146 b 714 66 821 87 810 76 l 714 0 l 1140 0 l 1140 66 b 1025 150 1039 76 1025 89 l 1025 829 b 1140 913 1025 890 1039 903 l 1140 979 l 714 979 l 714 913 b 821 833 810 903 821 892 l 821 815 l 362 285 l 362 832 b 470 913 362 890 375 902 l 470 979 l 43 979 l 43 913 b 158 829 146 903 158 890 l 158 150 b 43 66 158 90 146 77 l 43 0 l 470 0 l 470 66 b 362 146 375 77 362 89 z "},"К":{"ha":996,"x_min":0,"x_max":0,"o":"m 362 146 l 362 465 l 468 465 l 751 0 l 1001 0 l 1001 62 b 827 256 950 77 918 109 l 612 602 b 750 755 654 651 699 701 b 983 913 853 867 901 901 l 983 979 l 621 979 l 621 913 b 671 795 726 905 739 879 l 465 543 l 362 543 l 362 832 b 470 913 362 890 375 902 l 470 979 l 43 979 l 43 913 b 158 829 146 903 158 890 l 158 150 b 43 66 158 90 146 77 l 43 0 l 470 0 l 470 66 b 362 146 375 77 362 89 z "},"Ќ":{"ha":996,"x_min":0,"x_max":0,"o":"m 532 1061 l 755 1255 l 755 1262 l 555 1262 l 451 1061 z m 362 146 l 362 465 l 468 465 l 751 0 l 1001 0 l 1001 62 b 827 256 950 77 918 109 l 612 602 b 750 755 654 651 699 701 b 983 913 853 867 901 901 l 983 979 l 621 979 l 621 913 b 671 795 726 905 739 879 l 465 543 l 362 543 l 362 832 b 470 913 362 890 375 902 l 470 979 l 43 979 l 43 913 b 158 829 146 903 158 890 l 158 150 b 43 66 158 90 146 77 l 43 0 l 470 0 l 470 66 b 362 146 375 77 362 89 z "},"Ӄ":{"ha":988,"x_min":0,"x_max":0,"o":"m 362 146 l 362 465 l 476 465 l 659 233 b 738 46 710 167 738 115 b 568 -193 738 -44 673 -123 l 595 -250 b 944 80 819 -172 944 -64 b 844 308 944 165 918 216 l 614 606 b 750 755 656 653 701 703 b 983 913 853 867 901 901 l 983 979 l 621 979 l 621 913 b 671 795 726 905 739 879 l 465 543 l 362 543 l 362 832 b 470 913 362 890 375 902 l 470 979 l 43 979 l 43 913 b 158 829 146 903 158 890 l 158 150 b 43 66 158 90 146 77 l 43 0 l 470 0 l 470 66 b 362 146 375 77 362 89 z "},"Л":{"ha":1062,"x_min":0,"x_max":0,"o":"m 7 85 b 124 -21 7 25 49 -21 b 369 574 307 -21 357 219 l 380 899 l 700 899 l 700 150 b 585 66 700 89 686 76 l 585 0 l 1019 0 l 1019 66 b 904 150 918 76 904 89 l 904 829 b 1019 913 904 890 918 903 l 1019 979 l 153 979 l 153 913 b 279 808 267 901 282 886 l 271 578 b 195 135 262 361 244 214 b 109 189 179 167 146 189 b 7 85 51 189 7 144 z "},"М":{"ha":1309,"x_min":0,"x_max":0,"o":"m 390 979 l 45 979 l 45 913 b 153 814 140 903 155 886 l 138 156 b 31 66 136 90 125 77 l 31 0 l 348 0 l 348 66 b 239 158 251 77 240 91 l 239 831 l 545 0 l 657 0 l 743 249 l 948 827 l 962 146 b 855 66 964 87 951 76 l 855 0 l 1279 0 l 1279 66 b 1164 150 1177 76 1165 89 l 1149 829 b 1264 913 1148 890 1162 903 l 1264 979 l 909 980 l 661 223 z "},"Н":{"ha":1164,"x_min":0,"x_max":0,"o":"m 362 146 l 362 460 l 802 460 l 802 146 b 695 66 802 87 791 76 l 695 0 l 1121 0 l 1121 66 b 1006 150 1020 76 1006 89 l 1006 829 b 1121 913 1006 890 1020 903 l 1121 979 l 695 979 l 695 913 b 802 833 791 903 802 892 l 802 541 l 362 541 l 362 832 b 470 913 362 890 375 902 l 470 979 l 43 979 l 43 913 b 158 829 146 903 158 890 l 158 150 b 43 66 158 90 146 77 l 43 0 l 470 0 l 470 66 b 362 146 375 77 362 89 z "},"О":{"ha":1160,"x_min":0,"x_max":0,"o":"m 67 489 b 578 -21 67 175 304 -21 b 1093 490 890 -21 1093 203 b 581 1000 1093 804 855 1000 b 67 489 270 1000 67 776 z m 294 502 b 572 909 294 728 376 909 b 866 477 755 909 866 713 b 587 70 866 252 785 70 b 294 502 404 70 294 267 z "},"П":{"ha":1158,"x_min":0,"x_max":0,"o":"m 158 150 b 43 66 158 90 146 77 l 43 0 l 470 0 l 470 66 b 362 146 375 77 362 89 l 362 899 l 795 899 l 795 146 b 688 66 795 89 783 77 l 688 0 l 1114 0 l 1114 66 b 1000 150 1011 77 1000 90 l 1000 829 b 1114 913 1000 890 1011 903 l 1114 979 l 43 979 l 43 913 b 158 829 146 903 158 890 z "},"Р":{"ha":949,"x_min":0,"x_max":0,"o":"m 901 684 b 479 979 901 881 741 979 l 43 979 l 43 913 b 158 829 146 903 158 890 l 158 150 b 43 66 158 90 146 77 l 43 0 l 486 0 l 486 66 b 362 159 377 77 362 94 l 362 370 l 479 370 b 901 684 731 370 901 482 z m 684 673 b 419 448 684 529 595 456 l 362 446 l 362 903 l 419 901 b 684 673 598 894 684 813 z "},"С":{"ha":995,"x_min":0,"x_max":0,"o":"m 67 488 b 592 -21 67 172 306 -21 b 926 64 727 -21 863 17 l 933 295 l 872 295 b 613 70 833 125 746 70 b 294 505 423 70 294 252 b 613 909 294 745 409 909 b 868 694 746 909 830 850 l 929 694 l 922 926 b 592 1000 861 970 740 1000 b 67 488 290 1000 67 806 z "},"Т":{"ha":960,"x_min":0,"x_max":0,"o":"m 918 979 l 42 979 l 35 720 l 96 720 b 341 903 124 874 167 897 l 378 903 l 378 159 b 254 66 378 94 363 77 l 254 0 l 706 0 l 706 66 b 582 159 596 77 582 94 l 582 903 l 618 903 b 864 720 793 897 836 874 l 925 720 z "},"У":{"ha":1010,"x_min":0,"x_max":0,"o":"m 171 83 b 287 -21 171 23 219 -21 b 557 222 391 -21 468 54 l 871 814 b 1017 913 910 888 927 903 l 1017 979 l 684 979 l 684 913 b 768 813 805 900 806 892 l 579 422 l 369 813 b 452 913 328 890 332 900 l 452 979 l 0 979 l 0 913 b 146 814 90 903 104 888 l 473 233 b 370 84 438 161 406 112 b 271 182 367 139 324 182 b 171 83 216 182 171 138 z "},"Ў":{"ha":1010,"x_min":0,"x_max":0,"o":"m 549 1075 b 777 1236 686 1075 777 1143 b 696 1322 777 1290 745 1322 b 619 1247 650 1322 619 1289 b 661 1181 619 1217 636 1192 b 548 1149 633 1160 593 1149 b 436 1181 503 1149 464 1160 b 478 1247 460 1192 478 1217 b 400 1322 478 1289 446 1322 b 320 1236 352 1322 320 1290 b 549 1075 320 1143 412 1075 z m 171 83 b 287 -21 171 23 219 -21 b 557 222 391 -21 468 54 l 871 814 b 1017 913 910 888 927 903 l 1017 979 l 684 979 l 684 913 b 768 813 805 900 806 892 l 579 422 l 369 813 b 452 913 328 890 332 900 l 452 979 l 0 979 l 0 913 b 146 814 90 903 104 888 l 473 233 b 370 84 438 161 406 112 b 271 182 367 139 324 182 b 171 83 216 182 171 138 z "},"Ф":{"ha":1321,"x_min":0,"x_max":0,"o":"m 48 486 b 564 153 48 285 241 161 l 564 138 b 441 45 564 72 550 56 l 441 -21 l 880 -21 l 880 45 b 757 138 771 56 757 72 l 757 153 b 1273 490 1080 161 1273 284 b 757 827 1273 686 1105 818 l 757 842 b 880 935 757 907 771 923 l 880 1000 l 441 1000 l 441 935 b 564 842 550 923 564 907 l 564 827 b 48 486 215 818 48 686 z m 1056 490 b 757 235 1056 356 961 247 l 757 745 b 1056 490 975 733 1056 624 z m 265 492 b 564 745 265 625 350 733 l 564 235 b 265 492 356 247 265 357 z "},"Х":{"ha":985,"x_min":0,"x_max":0,"o":"m 193 202 b 1 66 116 94 92 75 l 1 0 l 345 0 l 345 66 b 289 187 237 80 232 100 l 433 407 l 583 187 b 526 66 640 102 634 80 l 526 0 l 984 0 l 984 66 b 828 174 909 81 880 98 l 600 511 l 789 782 b 977 913 861 886 888 904 l 977 979 l 634 979 l 634 913 b 690 792 743 899 747 879 l 553 580 l 410 792 b 466 913 352 878 358 899 l 466 979 l 8 979 l 8 913 b 164 806 85 899 112 882 l 387 476 z "},"Џ":{"ha":1158,"x_min":0,"x_max":0,"o":"m 362 833 b 470 913 362 890 375 903 l 470 979 l 43 979 l 43 913 b 158 829 146 903 158 890 l 158 150 b 43 66 158 90 146 77 l 43 0 l 431 0 b 545 -206 498 0 514 -14 l 614 -206 b 726 0 644 -14 659 0 l 1114 0 l 1114 66 b 1000 150 1011 77 1000 90 l 1000 829 b 1114 913 1000 890 1011 903 l 1114 979 l 688 979 l 688 913 b 795 833 783 903 795 890 l 795 81 l 362 81 z "},"Ц":{"ha":1178,"x_min":0,"x_max":0,"o":"m 362 833 b 470 913 362 890 375 903 l 470 979 l 43 979 l 43 913 b 158 829 146 903 158 890 l 158 150 b 43 66 158 90 146 77 l 43 0 l 870 0 b 1071 -206 990 0 1015 -14 l 1141 -206 l 1135 81 l 1000 81 l 1000 829 b 1114 913 1000 890 1011 903 l 1114 979 l 688 979 l 688 913 b 795 833 783 903 795 890 l 795 81 l 362 81 z "},"Ч":{"ha":1121,"x_min":0,"x_max":0,"o":"m 963 150 l 963 829 b 1078 913 963 890 975 903 l 1078 979 l 651 979 l 651 913 b 758 833 747 903 758 892 l 758 499 b 565 471 707 481 637 471 b 342 704 412 471 342 546 l 342 833 b 450 913 342 892 353 903 l 450 979 l 31 979 l 31 913 b 138 833 127 903 138 892 l 138 702 b 503 374 138 479 277 374 b 758 418 602 374 697 393 l 758 159 b 632 66 758 94 743 77 l 632 0 l 1078 0 l 1078 66 b 963 150 975 77 963 90 z "},"Ҽ":{"ha":1234,"x_min":0,"x_max":0,"o":"m 126 819 b 17 701 61 819 17 772 b 267 495 17 594 98 511 l 267 494 b 774 -21 267 162 471 -21 b 1123 54 929 -21 1060 13 l 1130 285 l 1068 285 b 798 71 1031 136 941 71 b 489 492 600 71 492 219 l 1166 492 b 1175 571 1171 515 1175 543 b 751 1000 1175 818 1037 1000 b 271 572 490 1000 301 840 b 149 616 214 578 174 591 b 231 718 197 625 231 666 b 126 819 231 776 183 819 z m 747 909 b 976 585 910 909 976 770 b 976 570 976 580 976 574 l 492 570 b 747 909 507 789 597 909 z "},"Ш":{"ha":1634,"x_min":0,"x_max":0,"o":"m 1476 150 l 1476 829 b 1591 913 1476 890 1488 903 l 1591 979 l 1164 979 l 1164 913 b 1272 833 1259 902 1272 890 l 1272 81 l 919 81 l 919 833 b 1027 913 919 890 932 902 l 1027 979 l 608 979 l 608 913 b 715 833 703 902 715 890 l 715 81 l 362 81 l 362 833 b 470 913 362 890 375 902 l 470 979 l 43 979 l 43 913 b 158 829 146 903 158 890 l 158 150 b 43 66 158 90 146 77 l 43 0 l 1591 0 l 1591 66 b 1476 150 1488 77 1476 90 z "},"Щ":{"ha":1655,"x_min":0,"x_max":0,"o":"m 1613 81 l 1476 81 l 1476 829 b 1591 913 1476 890 1488 903 l 1591 979 l 1164 979 l 1164 913 b 1272 833 1259 902 1272 890 l 1272 81 l 919 81 l 919 833 b 1027 913 919 890 932 902 l 1027 979 l 608 979 l 608 913 b 715 833 703 902 715 890 l 715 81 l 362 81 l 362 833 b 470 913 362 890 375 902 l 470 979 l 43 979 l 43 913 b 158 829 146 903 158 890 l 158 150 b 43 66 158 90 146 77 l 43 0 l 1347 0 b 1548 -206 1467 0 1491 -14 l 1618 -206 z "},"Ъ":{"ha":1101,"x_min":0,"x_max":0,"o":"m 199 0 l 673 0 b 1053 309 924 0 1053 142 b 665 604 1053 498 910 604 l 518 604 l 518 821 b 642 913 518 886 533 902 l 642 979 l 33 979 l 26 720 l 87 720 b 314 903 117 876 157 899 l 314 150 b 199 66 314 90 302 77 z m 836 302 b 605 79 836 165 762 83 l 518 77 l 518 524 l 596 524 b 836 302 746 524 836 446 z "},"Ь":{"ha":945,"x_min":0,"x_max":0,"o":"m 43 0 l 517 0 b 897 309 768 0 897 142 b 509 604 897 498 753 604 l 362 604 l 362 821 b 486 913 362 886 377 902 l 486 979 l 43 979 l 43 913 b 158 829 146 903 158 890 l 158 150 b 43 66 158 90 146 77 z m 680 302 b 449 79 680 165 606 83 l 362 77 l 362 524 l 439 524 b 680 302 589 524 680 446 z "},"Ы":{"ha":1420,"x_min":0,"x_max":0,"o":"m 43 0 l 517 0 b 897 309 768 0 897 142 b 509 604 897 498 753 604 l 362 604 l 362 821 b 486 913 362 886 377 902 l 486 979 l 43 979 l 43 913 b 158 829 146 903 158 890 l 158 150 b 43 66 158 90 146 77 z m 1261 150 l 1261 829 b 1376 913 1261 890 1273 903 l 1376 979 l 943 979 l 943 913 b 1057 829 1046 903 1057 890 l 1057 150 b 943 66 1057 90 1046 77 l 943 0 l 1376 0 l 1376 66 b 1261 150 1273 77 1261 90 z m 680 302 b 449 79 680 165 606 83 l 362 77 l 362 524 l 439 524 b 680 302 589 524 680 446 z "},"Љ":{"ha":1477,"x_min":0,"x_max":0,"o":"m 7 85 b 124 -21 7 25 49 -21 b 369 574 307 -21 357 219 l 380 899 l 700 899 l 700 150 b 585 66 700 89 686 76 l 585 0 l 1059 0 b 1438 309 1309 0 1438 142 b 1050 604 1438 498 1295 604 l 904 604 l 904 821 b 1027 913 904 886 918 902 l 1027 979 l 153 979 l 153 913 b 279 808 267 901 282 886 l 271 578 b 195 135 262 361 244 214 b 109 189 179 167 146 189 b 7 85 51 189 7 144 z m 1222 302 b 990 79 1222 165 1148 83 l 904 77 l 904 524 l 981 524 b 1222 302 1131 524 1222 446 z "},"Њ":{"ha":1579,"x_min":0,"x_max":0,"o":"m 362 146 l 362 479 l 802 479 l 802 146 b 695 66 802 89 790 77 l 695 0 l 1162 0 b 1541 288 1412 0 1541 132 b 1153 560 1541 462 1398 560 l 1006 560 l 1006 821 b 1131 913 1006 886 1021 902 l 1131 979 l 695 979 l 695 913 b 802 833 790 903 802 890 l 802 560 l 362 560 l 362 833 b 470 913 362 890 375 903 l 470 979 l 43 979 l 43 913 b 158 829 146 903 158 890 l 158 150 b 43 66 158 90 146 77 l 43 0 l 470 0 l 470 66 b 362 146 375 77 362 89 z m 1325 280 b 1093 79 1325 157 1251 83 l 1006 77 l 1006 480 l 1084 480 b 1325 280 1234 480 1325 410 z "},"Э":{"ha":1016,"x_min":0,"x_max":0,"o":"m 87 62 b 424 -21 152 17 291 -21 b 948 500 711 -21 948 171 b 424 1000 948 821 730 1000 b 92 924 279 1000 155 968 l 84 701 l 146 701 b 403 909 184 858 274 909 b 722 541 588 909 706 768 l 290 545 l 290 455 l 723 458 b 403 70 713 224 581 70 b 141 285 274 70 180 117 l 80 285 z "},"Ю":{"ha":1601,"x_min":0,"x_max":0,"o":"m 362 146 l 362 460 l 519 460 b 1023 -21 532 159 762 -21 b 1533 490 1333 -21 1533 200 b 1029 1000 1534 808 1299 1000 b 520 541 738 1000 543 805 l 362 541 l 362 832 b 470 913 362 890 375 902 l 470 979 l 43 979 l 43 913 b 158 829 146 903 158 890 l 158 150 b 43 66 158 90 146 77 l 43 0 l 470 0 l 470 66 b 362 146 375 77 362 89 z m 1034 70 b 743 502 853 70 743 263 b 1018 909 743 732 824 909 b 1309 477 1198 909 1310 716 b 1034 70 1308 248 1227 70 z "},"Я":{"ha":978,"x_min":0,"x_max":0,"o":"m 95 689 b 297 449 95 556 186 475 l 172 241 b 18 62 88 106 68 78 l 18 0 l 237 0 l 484 419 l 616 419 l 616 146 b 509 66 616 89 605 77 l 509 0 l 935 0 l 935 66 b 820 150 833 77 820 90 l 820 829 b 935 913 820 890 833 903 l 935 979 l 458 979 b 95 689 219 979 95 861 z m 303 703 b 526 901 303 830 378 897 l 616 903 l 616 495 l 530 495 b 303 703 397 496 303 570 z "},"Є":{"ha":1016,"x_min":0,"x_max":0,"o":"m 928 62 l 936 285 l 874 285 b 613 70 836 117 742 70 b 292 458 434 70 302 224 l 726 455 l 726 545 l 294 541 b 613 909 309 768 427 909 b 869 701 742 909 832 858 l 931 701 l 924 924 b 591 1000 861 968 736 1000 b 67 500 286 1000 67 821 b 591 -21 67 171 304 -21 b 928 62 725 -21 864 17 z "},"І":{"ha":521,"x_min":0,"x_max":0,"o":"m 362 150 l 362 829 b 477 913 362 890 374 903 l 477 979 l 43 979 l 43 913 b 158 829 146 903 158 890 l 158 150 b 43 66 158 90 146 77 l 43 0 l 477 0 l 477 66 b 362 150 374 77 362 90 z "},"Ӏ":{"ha":521,"x_min":0,"x_max":0,"o":"m 362 150 l 362 829 b 477 913 362 890 374 903 l 477 979 l 43 979 l 43 913 b 158 829 146 903 158 890 l 158 150 b 43 66 158 90 146 77 l 43 0 l 477 0 l 477 66 b 362 150 374 77 362 90 z "},"Ї":{"ha":521,"x_min":0,"x_max":0,"o":"m 138 1079 b 223 1162 185 1079 223 1114 b 138 1246 223 1211 185 1246 b 52 1162 90 1246 52 1211 b 138 1079 52 1114 90 1079 z m 384 1079 b 469 1162 431 1079 469 1114 b 384 1246 469 1211 431 1246 b 298 1162 336 1246 298 1211 b 384 1079 298 1114 336 1079 z m 362 150 l 362 829 b 477 913 362 890 374 903 l 477 979 l 43 979 l 43 913 b 158 829 146 903 158 890 l 158 150 b 43 66 158 90 146 77 l 43 0 l 477 0 l 477 66 b 362 150 374 77 362 90 z "},"Ћ":{"ha":1345,"x_min":0,"x_max":0,"o":"m 694 66 b 587 146 597 76 587 87 l 587 480 b 780 508 637 498 707 508 b 1002 275 933 508 1002 433 l 1002 146 b 895 66 1002 87 991 76 l 895 0 l 1314 0 l 1314 66 b 1206 146 1217 76 1206 87 l 1206 277 b 842 606 1206 500 1069 606 b 587 562 743 606 648 586 l 587 903 l 646 901 b 878 722 803 897 846 872 l 939 722 l 932 979 l 42 979 l 35 722 l 96 722 b 328 901 127 873 170 897 l 382 903 l 382 150 b 267 66 382 90 370 77 l 267 0 l 694 0 z "},"Ђ":{"ha":1210,"x_min":0,"x_max":0,"o":"m 710 66 b 587 159 601 77 587 94 l 587 431 b 736 464 621 450 677 464 b 958 203 875 464 958 380 l 958 202 b 755 -212 958 20 886 -115 l 787 -264 b 1162 224 1006 -175 1162 -14 l 1162 225 b 818 566 1162 454 1021 566 b 587 513 718 566 634 543 l 587 903 l 646 901 b 878 720 803 897 846 871 l 939 720 l 932 979 l 42 979 l 35 720 l 96 720 b 328 901 128 872 170 897 l 382 903 l 382 150 b 267 66 382 90 370 77 l 267 0 l 710 0 z "},"Ѕ":{"ha":843,"x_min":0,"x_max":0,"o":"m 397 -21 b 780 275 611 -21 780 90 b 524 569 780 420 696 512 l 453 591 b 264 766 329 632 264 677 b 450 909 264 852 329 909 b 680 701 568 909 652 844 l 742 701 l 734 924 b 451 1000 675 968 570 1000 b 74 713 214 1000 74 883 b 334 427 74 574 165 482 l 406 404 b 590 221 531 363 590 311 b 396 70 590 133 516 70 b 127 288 267 70 161 139 l 66 288 l 74 63 b 397 -21 137 17 261 -21 z "},"Ј":{"ha":521,"x_min":0,"x_max":0,"o":"m 362 190 l 362 829 b 477 913 362 890 374 903 l 477 979 l 43 979 l 43 913 b 158 829 146 903 158 890 l 158 174 b -24 -233 158 -37 111 -133 l 8 -287 b 362 190 261 -155 362 -58 z "},"Ѵ":{"ha":1084,"x_min":0,"x_max":0,"o":"m 138 781 l 422 0 l 591 0 l 852 732 b 903 847 869 780 884 819 b 992 788 918 812 952 788 b 1094 891 1050 788 1094 832 b 977 998 1094 951 1052 998 b 766 764 873 998 818 924 l 564 167 l 352 781 b 439 913 317 881 331 899 l 439 979 l -5 979 l -5 913 b 138 781 80 903 100 886 z "},"&":{"ha":1114,"x_min":0,"x_max":0,"o":"m 359 -19 b 686 144 490 -19 587 38 l 838 0 l 1094 0 l 1094 62 b 855 243 1041 79 996 111 l 806 289 l 891 397 b 1094 545 985 516 1021 535 l 1094 610 l 766 610 l 766 545 b 812 410 867 528 876 503 l 760 332 l 533 545 b 519 557 528 549 524 553 b 738 791 667 618 738 695 b 469 1001 738 916 634 1001 b 174 764 290 1001 174 894 b 292 523 174 682 208 615 b 56 251 131 463 56 372 b 359 -19 56 86 186 -19 z m 351 802 b 469 911 351 867 398 911 b 587 779 543 911 587 857 b 475 600 585 701 551 645 b 351 802 382 692 351 742 z m 234 321 b 334 478 234 391 267 440 b 405 409 355 456 378 433 l 646 182 b 463 96 585 121 528 96 b 234 321 338 96 234 186 z "},"a":{"ha":804,"x_min":0,"x_max":0,"o":"m 263 -16 b 497 90 370 -16 456 31 b 654 -12 515 26 576 -12 b 783 24 710 -12 755 5 l 783 86 b 747 81 773 82 761 81 b 676 160 708 81 676 102 l 676 471 b 389 705 676 634 567 705 b 81 535 212 705 81 633 b 175 448 81 484 121 448 b 271 536 231 448 271 486 b 239 603 271 563 258 587 b 332 618 266 613 298 618 b 490 461 427 618 490 577 l 490 415 l 334 381 b 57 159 134 338 57 268 b 263 -16 57 58 142 -16 z m 244 191 b 410 322 244 257 290 296 l 490 340 l 490 148 b 359 85 465 110 416 85 b 244 191 293 85 244 124 z "},"á":{"ha":804,"x_min":0,"x_max":0,"o":"m 355 795 l 593 1046 l 593 1055 l 392 1055 l 273 795 z m 263 -16 b 497 90 370 -16 456 31 b 654 -12 515 26 576 -12 b 783 24 710 -12 755 5 l 783 86 b 747 81 773 82 761 81 b 676 160 708 81 676 102 l 676 471 b 389 705 676 634 567 705 b 81 535 212 705 81 633 b 175 448 81 484 121 448 b 271 536 231 448 271 486 b 239 603 271 563 258 587 b 332 618 266 613 298 618 b 490 461 427 618 490 577 l 490 415 l 334 381 b 57 159 134 338 57 268 b 263 -16 57 58 142 -16 z m 244 191 b 410 322 244 257 290 296 l 490 340 l 490 148 b 359 85 465 110 416 85 b 244 191 293 85 244 124 z "},"à":{"ha":804,"x_min":0,"x_max":0,"o":"m 397 795 l 479 795 l 366 1055 l 157 1055 l 157 1046 z m 263 -16 b 497 90 370 -16 456 31 b 654 -12 515 26 576 -12 b 783 24 710 -12 755 5 l 783 86 b 747 81 773 82 761 81 b 676 160 708 81 676 102 l 676 471 b 389 705 676 634 567 705 b 81 535 212 705 81 633 b 175 448 81 484 121 448 b 271 536 231 448 271 486 b 239 603 271 563 258 587 b 332 618 266 613 298 618 b 490 461 427 618 490 577 l 490 415 l 334 381 b 57 159 134 338 57 268 b 263 -16 57 58 142 -16 z m 244 191 b 410 322 244 257 290 296 l 490 340 l 490 148 b 359 85 465 110 416 85 b 244 191 293 85 244 124 z "},"ȁ":{"ha":804,"x_min":0,"x_max":0,"o":"m 212 1055 l 39 1055 l 39 1046 l 241 795 l 329 795 z m 487 1055 l 329 1055 l 329 1046 l 456 795 l 541 795 z m 263 -16 b 497 90 370 -16 456 31 b 654 -12 515 26 576 -12 b 783 24 710 -12 755 5 l 783 86 b 747 81 773 82 761 81 b 676 160 708 81 676 102 l 676 471 b 389 705 676 634 567 705 b 81 535 212 705 81 633 b 175 448 81 484 121 448 b 271 536 231 448 271 486 b 239 603 271 563 258 587 b 332 618 266 613 298 618 b 490 461 427 618 490 577 l 490 415 l 334 381 b 57 159 134 338 57 268 b 263 -16 57 58 142 -16 z m 244 191 b 410 322 244 257 290 296 l 490 340 l 490 148 b 359 85 465 110 416 85 b 244 191 293 85 244 124 z "},"â":{"ha":804,"x_min":0,"x_max":0,"o":"m 229 795 l 376 930 l 521 795 l 605 795 l 443 1055 l 308 1055 l 146 795 z m 263 -16 b 497 90 370 -16 456 31 b 654 -12 515 26 576 -12 b 783 24 710 -12 755 5 l 783 86 b 747 81 773 82 761 81 b 676 160 708 81 676 102 l 676 471 b 389 705 676 634 567 705 b 81 535 212 705 81 633 b 175 448 81 484 121 448 b 271 536 231 448 271 486 b 239 603 271 563 258 587 b 332 618 266 613 298 618 b 490 461 427 618 490 577 l 490 415 l 334 381 b 57 159 134 338 57 268 b 263 -16 57 58 142 -16 z m 244 191 b 410 322 244 257 290 296 l 490 340 l 490 148 b 359 85 465 110 416 85 b 244 191 293 85 244 124 z "},"ấ":{"ha":804,"x_min":0,"x_max":0,"o":"m 582 1048 l 582 1162 l 170 1050 l 170 984 z m 170 773 l 376 846 l 582 773 l 582 841 l 396 957 l 354 957 l 170 841 z m 263 -16 b 497 90 370 -16 456 31 b 654 -12 515 26 576 -12 b 783 24 710 -12 755 5 l 783 86 b 747 81 773 82 761 81 b 676 160 708 81 676 102 l 676 471 b 389 705 676 634 567 705 b 81 535 212 705 81 633 b 175 448 81 484 121 448 b 271 536 231 448 271 486 b 239 603 271 563 258 587 b 332 618 266 613 298 618 b 490 461 427 618 490 577 l 490 415 l 334 381 b 57 159 134 338 57 268 b 263 -16 57 58 142 -16 z m 244 191 b 410 322 244 257 290 296 l 490 340 l 490 148 b 359 85 465 110 416 85 b 244 191 293 85 244 124 z "},"ầ":{"ha":804,"x_min":0,"x_max":0,"o":"m 170 1048 l 582 984 l 582 1050 l 170 1162 z m 170 773 l 376 846 l 582 773 l 582 841 l 396 957 l 354 957 l 170 841 z m 263 -16 b 497 90 370 -16 456 31 b 654 -12 515 26 576 -12 b 783 24 710 -12 755 5 l 783 86 b 747 81 773 82 761 81 b 676 160 708 81 676 102 l 676 471 b 389 705 676 634 567 705 b 81 535 212 705 81 633 b 175 448 81 484 121 448 b 271 536 231 448 271 486 b 239 603 271 563 258 587 b 332 618 266 613 298 618 b 490 461 427 618 490 577 l 490 415 l 334 381 b 57 159 134 338 57 268 b 263 -16 57 58 142 -16 z m 244 191 b 410 322 244 257 290 296 l 490 340 l 490 148 b 359 85 465 110 416 85 b 244 191 293 85 244 124 z "},"ẫ":{"ha":804,"x_min":0,"x_max":0,"o":"m 461 1001 b 582 1146 531 1001 582 1050 l 509 1146 b 465 1097 509 1112 492 1097 b 404 1113 448 1097 430 1103 l 382 1121 b 290 1141 353 1133 323 1141 b 170 996 222 1141 170 1093 l 242 996 b 286 1044 242 1030 259 1044 b 347 1029 303 1044 321 1039 l 369 1021 b 461 1001 399 1009 428 1001 z m 170 773 l 376 846 l 582 773 l 582 841 l 396 957 l 354 957 l 170 841 z m 263 -16 b 497 90 370 -16 456 31 b 654 -12 515 26 576 -12 b 783 24 710 -12 755 5 l 783 86 b 747 81 773 82 761 81 b 676 160 708 81 676 102 l 676 471 b 389 705 676 634 567 705 b 81 535 212 705 81 633 b 175 448 81 484 121 448 b 271 536 231 448 271 486 b 239 603 271 563 258 587 b 332 618 266 613 298 618 b 490 461 427 618 490 577 l 490 415 l 334 381 b 57 159 134 338 57 268 b 263 -16 57 58 142 -16 z m 244 191 b 410 322 244 257 290 296 l 490 340 l 490 148 b 359 85 465 110 416 85 b 244 191 293 85 244 124 z "},"ẩ":{"ha":804,"x_min":0,"x_max":0,"o":"m 535 1156 b 406 1116 483 1156 433 1138 l 406 1062 b 494 1082 425 1072 461 1082 b 567 1038 541 1082 567 1065 b 486 981 567 1012 542 995 l 543 940 b 678 1059 626 962 678 996 b 535 1156 678 1122 612 1156 z m 170 773 l 376 846 l 582 773 l 582 841 l 396 957 l 354 957 l 170 841 z m 263 -16 b 497 90 370 -16 456 31 b 654 -12 515 26 576 -12 b 783 24 710 -12 755 5 l 783 86 b 747 81 773 82 761 81 b 676 160 708 81 676 102 l 676 471 b 389 705 676 634 567 705 b 81 535 212 705 81 633 b 175 448 81 484 121 448 b 271 536 231 448 271 486 b 239 603 271 563 258 587 b 332 618 266 613 298 618 b 490 461 427 618 490 577 l 490 415 l 334 381 b 57 159 134 338 57 268 b 263 -16 57 58 142 -16 z m 244 191 b 410 322 244 257 290 296 l 490 340 l 490 148 b 359 85 465 110 416 85 b 244 191 293 85 244 124 z "},"ậ":{"ha":804,"x_min":0,"x_max":0,"o":"m 229 795 l 376 930 l 521 795 l 605 795 l 443 1055 l 308 1055 l 146 795 z m 263 -16 b 497 90 370 -16 456 31 b 654 -12 515 26 576 -12 b 783 24 710 -12 755 5 l 783 86 b 747 81 773 82 761 81 b 676 160 708 81 676 102 l 676 471 b 389 705 676 634 567 705 b 81 535 212 705 81 633 b 175 448 81 484 121 448 b 271 536 231 448 271 486 b 239 603 271 563 258 587 b 332 618 266 613 298 618 b 490 461 427 618 490 577 l 490 415 l 334 381 b 57 159 134 338 57 268 b 263 -16 57 58 142 -16 z m 244 191 b 410 322 244 257 290 296 l 490 340 l 490 148 b 359 85 465 110 416 85 b 244 191 293 85 244 124 z m 414 -294 b 511 -203 468 -294 511 -256 b 414 -114 511 -152 468 -114 b 317 -203 361 -114 317 -152 b 414 -294 317 -256 360 -294 z "},"ǎ":{"ha":804,"x_min":0,"x_max":0,"o":"m 523 1054 l 376 919 l 231 1054 l 146 1054 l 308 794 l 443 794 l 605 1054 z m 263 -16 b 497 90 370 -16 456 31 b 654 -12 515 26 576 -12 b 783 24 710 -12 755 5 l 783 86 b 747 81 773 82 761 81 b 676 160 708 81 676 102 l 676 471 b 389 705 676 634 567 705 b 81 535 212 705 81 633 b 175 448 81 484 121 448 b 271 536 231 448 271 486 b 239 603 271 563 258 587 b 332 618 266 613 298 618 b 490 461 427 618 490 577 l 490 415 l 334 381 b 57 159 134 338 57 268 b 263 -16 57 58 142 -16 z m 244 191 b 410 322 244 257 290 296 l 490 340 l 490 148 b 359 85 465 110 416 85 b 244 191 293 85 244 124 z "},"ă":{"ha":804,"x_min":0,"x_max":0,"o":"m 376 800 b 600 1007 519 800 600 899 b 597 1048 600 1022 600 1036 l 522 1048 l 522 1042 b 376 926 522 977 469 926 b 229 1042 283 926 229 977 l 229 1048 l 154 1048 b 151 1007 152 1036 151 1022 b 376 800 151 899 232 800 z m 263 -16 b 497 90 370 -16 456 31 b 654 -12 515 26 576 -12 b 783 24 710 -12 755 5 l 783 86 b 747 81 773 82 761 81 b 676 160 708 81 676 102 l 676 471 b 389 705 676 634 567 705 b 81 535 212 705 81 633 b 175 448 81 484 121 448 b 271 536 231 448 271 486 b 239 603 271 563 258 587 b 332 618 266 613 298 618 b 490 461 427 618 490 577 l 490 415 l 334 381 b 57 159 134 338 57 268 b 263 -16 57 58 142 -16 z m 244 191 b 410 322 244 257 290 296 l 490 340 l 490 148 b 359 85 465 110 416 85 b 244 191 293 85 244 124 z "},"ắ":{"ha":804,"x_min":0,"x_max":0,"o":"m 582 1048 l 582 1162 l 170 1050 l 170 984 z m 376 772 b 582 954 501 772 587 842 l 509 954 b 376 877 508 908 452 877 b 242 954 300 877 243 908 l 170 954 b 376 772 164 842 250 772 z m 263 -16 b 497 90 370 -16 456 31 b 654 -12 515 26 576 -12 b 783 24 710 -12 755 5 l 783 86 b 747 81 773 82 761 81 b 676 160 708 81 676 102 l 676 471 b 389 705 676 634 567 705 b 81 535 212 705 81 633 b 175 448 81 484 121 448 b 271 536 231 448 271 486 b 239 603 271 563 258 587 b 332 618 266 613 298 618 b 490 461 427 618 490 577 l 490 415 l 334 381 b 57 159 134 338 57 268 b 263 -16 57 58 142 -16 z m 244 191 b 410 322 244 257 290 296 l 490 340 l 490 148 b 359 85 465 110 416 85 b 244 191 293 85 244 124 z "},"ằ":{"ha":804,"x_min":0,"x_max":0,"o":"m 170 1048 l 582 984 l 582 1050 l 170 1162 z m 376 772 b 582 954 501 772 587 842 l 509 954 b 376 877 508 908 452 877 b 242 954 300 877 243 908 l 170 954 b 376 772 164 842 250 772 z m 263 -16 b 497 90 370 -16 456 31 b 654 -12 515 26 576 -12 b 783 24 710 -12 755 5 l 783 86 b 747 81 773 82 761 81 b 676 160 708 81 676 102 l 676 471 b 389 705 676 634 567 705 b 81 535 212 705 81 633 b 175 448 81 484 121 448 b 271 536 231 448 271 486 b 239 603 271 563 258 587 b 332 618 266 613 298 618 b 490 461 427 618 490 577 l 490 415 l 334 381 b 57 159 134 338 57 268 b 263 -16 57 58 142 -16 z m 244 191 b 410 322 244 257 290 296 l 490 340 l 490 148 b 359 85 465 110 416 85 b 244 191 293 85 244 124 z "},"ẵ":{"ha":804,"x_min":0,"x_max":0,"o":"m 461 1001 b 582 1146 531 1001 582 1050 l 509 1146 b 465 1097 509 1112 492 1097 b 404 1113 448 1097 430 1103 l 382 1121 b 290 1141 353 1133 323 1141 b 170 996 222 1141 170 1093 l 242 996 b 286 1044 242 1030 259 1044 b 347 1029 303 1044 321 1039 l 369 1021 b 461 1001 399 1009 428 1001 z m 376 772 b 582 954 501 772 587 842 l 509 954 b 376 877 508 908 452 877 b 242 954 300 877 243 908 l 170 954 b 376 772 164 842 250 772 z m 263 -16 b 497 90 370 -16 456 31 b 654 -12 515 26 576 -12 b 783 24 710 -12 755 5 l 783 86 b 747 81 773 82 761 81 b 676 160 708 81 676 102 l 676 471 b 389 705 676 634 567 705 b 81 535 212 705 81 633 b 175 448 81 484 121 448 b 271 536 231 448 271 486 b 239 603 271 563 258 587 b 332 618 266 613 298 618 b 490 461 427 618 490 577 l 490 415 l 334 381 b 57 159 134 338 57 268 b 263 -16 57 58 142 -16 z m 244 191 b 410 322 244 257 290 296 l 490 340 l 490 148 b 359 85 465 110 416 85 b 244 191 293 85 244 124 z "},"ẳ":{"ha":804,"x_min":0,"x_max":0,"o":"m 371 1156 b 241 1116 318 1156 269 1138 l 241 1062 b 330 1082 260 1072 296 1082 b 402 1038 376 1082 402 1065 b 321 981 402 1012 377 995 l 378 940 b 513 1059 461 962 513 996 b 371 1156 513 1122 448 1156 z m 376 772 b 582 954 501 772 587 842 l 509 954 b 376 877 508 908 452 877 b 242 954 300 877 243 908 l 170 954 b 376 772 164 842 250 772 z m 263 -16 b 497 90 370 -16 456 31 b 654 -12 515 26 576 -12 b 783 24 710 -12 755 5 l 783 86 b 747 81 773 82 761 81 b 676 160 708 81 676 102 l 676 471 b 389 705 676 634 567 705 b 81 535 212 705 81 633 b 175 448 81 484 121 448 b 271 536 231 448 271 486 b 239 603 271 563 258 587 b 332 618 266 613 298 618 b 490 461 427 618 490 577 l 490 415 l 334 381 b 57 159 134 338 57 268 b 263 -16 57 58 142 -16 z m 244 191 b 410 322 244 257 290 296 l 490 340 l 490 148 b 359 85 465 110 416 85 b 244 191 293 85 244 124 z "},"ặ":{"ha":804,"x_min":0,"x_max":0,"o":"m 376 800 b 600 1007 519 800 600 899 b 597 1048 600 1022 600 1036 l 522 1048 l 522 1042 b 376 926 522 977 469 926 b 229 1042 283 926 229 977 l 229 1048 l 154 1048 b 151 1007 152 1036 151 1022 b 376 800 151 899 232 800 z m 263 -16 b 497 90 370 -16 456 31 b 654 -12 515 26 576 -12 b 783 24 710 -12 755 5 l 783 86 b 747 81 773 82 761 81 b 676 160 708 81 676 102 l 676 471 b 389 705 676 634 567 705 b 81 535 212 705 81 633 b 175 448 81 484 121 448 b 271 536 231 448 271 486 b 239 603 271 563 258 587 b 332 618 266 613 298 618 b 490 461 427 618 490 577 l 490 415 l 334 381 b 57 159 134 338 57 268 b 263 -16 57 58 142 -16 z m 244 191 b 410 322 244 257 290 296 l 490 340 l 490 148 b 359 85 465 110 416 85 b 244 191 293 85 244 124 z m 414 -294 b 511 -203 468 -294 511 -256 b 414 -114 511 -152 468 -114 b 317 -203 361 -114 317 -152 b 414 -294 317 -256 360 -294 z "},"ȃ":{"ha":804,"x_min":0,"x_max":0,"o":"m 376 1049 b 151 842 232 1049 151 950 b 154 801 151 827 152 813 l 229 801 l 229 807 b 376 923 229 872 283 923 b 522 807 468 923 522 871 l 522 801 l 597 801 b 600 842 600 813 600 827 b 376 1049 600 950 519 1049 z m 263 -16 b 497 90 370 -16 456 31 b 654 -12 515 26 576 -12 b 783 24 710 -12 755 5 l 783 86 b 747 81 773 82 761 81 b 676 160 708 81 676 102 l 676 471 b 389 705 676 634 567 705 b 81 535 212 705 81 633 b 175 448 81 484 121 448 b 271 536 231 448 271 486 b 239 603 271 563 258 587 b 332 618 266 613 298 618 b 490 461 427 618 490 577 l 490 415 l 334 381 b 57 159 134 338 57 268 b 263 -16 57 58 142 -16 z m 244 191 b 410 322 244 257 290 296 l 490 340 l 490 148 b 359 85 465 110 416 85 b 244 191 293 85 244 124 z "},"ä":{"ha":804,"x_min":0,"x_max":0,"o":"m 209 829 b 307 924 263 829 307 869 b 209 1017 307 978 263 1017 b 111 924 155 1017 111 978 b 209 829 111 869 155 829 z m 543 829 b 640 924 597 829 640 869 b 543 1017 640 978 597 1017 b 444 924 488 1017 444 978 b 543 829 444 869 488 829 z m 263 -16 b 497 90 370 -16 456 31 b 654 -12 515 26 576 -12 b 783 24 710 -12 755 5 l 783 86 b 747 81 773 82 761 81 b 676 160 708 81 676 102 l 676 471 b 389 705 676 634 567 705 b 81 535 212 705 81 633 b 175 448 81 484 121 448 b 271 536 231 448 271 486 b 239 603 271 563 258 587 b 332 618 266 613 298 618 b 490 461 427 618 490 577 l 490 415 l 334 381 b 57 159 134 338 57 268 b 263 -16 57 58 142 -16 z m 244 191 b 410 322 244 257 290 296 l 490 340 l 490 148 b 359 85 465 110 416 85 b 244 191 293 85 244 124 z "},"ǟ":{"ha":804,"x_min":0,"x_max":0,"o":"m 170 1022 l 582 1022 l 582 1112 l 170 1112 z m 258 785 b 330 855 298 785 330 815 b 258 926 330 896 298 926 l 249 926 b 176 855 208 926 176 896 b 249 785 176 815 208 785 z m 503 785 b 575 855 543 785 575 815 b 503 926 575 896 543 926 l 494 926 b 420 855 453 926 420 896 b 494 785 420 815 453 785 z m 263 -16 b 497 90 370 -16 456 31 b 654 -12 515 26 576 -12 b 783 24 710 -12 755 5 l 783 86 b 747 81 773 82 761 81 b 676 160 708 81 676 102 l 676 471 b 389 705 676 634 567 705 b 81 535 212 705 81 633 b 175 448 81 484 121 448 b 271 536 231 448 271 486 b 239 603 271 563 258 587 b 332 618 266 613 298 618 b 490 461 427 618 490 577 l 490 415 l 334 381 b 57 159 134 338 57 268 b 263 -16 57 58 142 -16 z m 244 191 b 410 322 244 257 290 296 l 490 340 l 490 148 b 359 85 465 110 416 85 b 244 191 293 85 244 124 z "},"ã":{"ha":804,"x_min":0,"x_max":0,"o":"m 465 821 b 597 1031 538 821 597 879 l 522 1031 b 477 940 520 964 506 940 b 419 966 458 940 440 949 l 398 983 b 286 1028 361 1010 330 1028 b 154 818 214 1028 154 969 l 229 818 b 274 909 231 884 245 909 b 332 882 294 909 311 899 l 353 865 b 465 821 390 838 422 821 z m 263 -16 b 497 90 370 -16 456 31 b 654 -12 515 26 576 -12 b 783 24 710 -12 755 5 l 783 86 b 747 81 773 82 761 81 b 676 160 708 81 676 102 l 676 471 b 389 705 676 634 567 705 b 81 535 212 705 81 633 b 175 448 81 484 121 448 b 271 536 231 448 271 486 b 239 603 271 563 258 587 b 332 618 266 613 298 618 b 490 461 427 618 490 577 l 490 415 l 334 381 b 57 159 134 338 57 268 b 263 -16 57 58 142 -16 z m 244 191 b 410 322 244 257 290 296 l 490 340 l 490 148 b 359 85 465 110 416 85 b 244 191 293 85 244 124 z "},"ā":{"ha":804,"x_min":0,"x_max":0,"o":"m 154 859 l 597 859 l 597 968 l 154 968 z m 263 -16 b 497 90 370 -16 456 31 b 654 -12 515 26 576 -12 b 783 24 710 -12 755 5 l 783 86 b 747 81 773 82 761 81 b 676 160 708 81 676 102 l 676 471 b 389 705 676 634 567 705 b 81 535 212 705 81 633 b 175 448 81 484 121 448 b 271 536 231 448 271 486 b 239 603 271 563 258 587 b 332 618 266 613 298 618 b 490 461 427 618 490 577 l 490 415 l 334 381 b 57 159 134 338 57 268 b 263 -16 57 58 142 -16 z m 244 191 b 410 322 244 257 290 296 l 490 340 l 490 148 b 359 85 465 110 416 85 b 244 191 293 85 244 124 z "},"ả":{"ha":804,"x_min":0,"x_max":0,"o":"m 402 1059 b 231 996 321 1059 263 1028 l 231 938 b 330 966 252 953 290 966 b 411 909 380 966 411 944 b 308 793 411 873 380 842 l 388 793 b 555 947 510 844 555 888 b 402 1059 555 1014 494 1059 z m 263 -16 b 497 90 370 -16 456 31 b 654 -12 515 26 576 -12 b 783 24 710 -12 755 5 l 783 86 b 747 81 773 82 761 81 b 676 160 708 81 676 102 l 676 471 b 389 705 676 634 567 705 b 81 535 212 705 81 633 b 175 448 81 484 121 448 b 271 536 231 448 271 486 b 239 603 271 563 258 587 b 332 618 266 613 298 618 b 490 461 427 618 490 577 l 490 415 l 334 381 b 57 159 134 338 57 268 b 263 -16 57 58 142 -16 z m 244 191 b 410 322 244 257 290 296 l 490 340 l 490 148 b 359 85 465 110 416 85 b 244 191 293 85 244 124 z "},"å":{"ha":804,"x_min":0,"x_max":0,"o":"m 173 925 b 376 775 173 836 261 775 b 578 925 490 775 578 836 b 376 1075 578 1013 490 1075 b 173 925 261 1075 173 1013 z m 301 925 b 376 1007 301 975 334 1007 b 450 925 418 1007 450 975 b 376 843 450 876 418 843 b 301 925 334 843 301 876 z m 263 -16 b 497 90 370 -16 456 31 b 654 -12 515 26 576 -12 b 783 24 710 -12 755 5 l 783 86 b 747 81 773 82 761 81 b 676 160 708 81 676 102 l 676 471 b 389 705 676 634 567 705 b 81 535 212 705 81 633 b 175 448 81 484 121 448 b 271 536 231 448 271 486 b 239 603 271 563 258 587 b 332 618 266 613 298 618 b 490 461 427 618 490 577 l 490 415 l 334 381 b 57 159 134 338 57 268 b 263 -16 57 58 142 -16 z m 244 191 b 410 322 244 257 290 296 l 490 340 l 490 148 b 359 85 465 110 416 85 b 244 191 293 85 244 124 z "},"ǻ":{"ha":804,"x_min":0,"x_max":0,"o":"m 582 1050 l 582 1164 l 170 1053 l 170 987 z m 406 755 b 557 859 498 755 557 796 b 406 962 557 922 498 962 l 345 962 b 194 859 254 962 194 922 b 345 755 194 796 254 755 z m 397 821 l 354 821 b 307 859 324 821 307 836 b 354 897 307 882 324 897 l 397 897 b 444 859 427 897 444 882 b 397 821 444 836 427 821 z m 263 -16 b 497 90 370 -16 456 31 b 654 -12 515 26 576 -12 b 783 24 710 -12 755 5 l 783 86 b 747 81 773 82 761 81 b 676 160 708 81 676 102 l 676 471 b 389 705 676 634 567 705 b 81 535 212 705 81 633 b 175 448 81 484 121 448 b 271 536 231 448 271 486 b 239 603 271 563 258 587 b 332 618 266 613 298 618 b 490 461 427 618 490 577 l 490 415 l 334 381 b 57 159 134 338 57 268 b 263 -16 57 58 142 -16 z m 244 191 b 410 322 244 257 290 296 l 490 340 l 490 148 b 359 85 465 110 416 85 b 244 191 293 85 244 124 z "}}}
